<mxfile host="app.diagrams.net" modified="2022-01-05T06:14:59.961Z" agent="5.0 (Windows NT 10.0; Win64; x64) AppleWebKit/537.36 (KHTML, like Gecko) Chrome/96.0.4664.110 Safari/537.36" etag="sB3zKEq2s7CXyDe7uP2j" version="16.2.1" type="github">
  <diagram id="nG0VWYXkvXI7tGPgB4zh" name="Page-1">
    <mxGraphModel dx="782" dy="411" grid="1" gridSize="10" guides="1" tooltips="1" connect="1" arrows="1" fold="1" page="1" pageScale="1" pageWidth="850" pageHeight="1100" math="0" shadow="0">
      <root>
        <mxCell id="0" />
        <mxCell id="1" parent="0" />
        <mxCell id="TjRo9aIQS-ce4NooAczT-2" value="" style="shape=image;verticalLabelPosition=bottom;labelBackgroundColor=default;verticalAlign=top;aspect=fixed;imageAspect=0;image=data:image/png,iVBORw0KGgoAAAANSUhEUgAAAgAAAAIACAYAAAD0eNT6AAAABHNCSVQICAgIfAhkiAAAAAlwSFlzAAAOxAAADsQBlSsOGwAAABl0RVh0U29mdHdhcmUAd3d3Lmlua3NjYXBlLm9yZ5vuPBoAACAASURBVHic7d13mCVFvf/x9+zsLpuIC0tmSYvALhlRAckIIohXBQMK+ENBFERMYELUG0yIKCheAQH1XkG8CkgGyVGSsOQg7ILEZWFzmPD74zsjwzDhnFOxuz6v56lHhDnnfKu7qqu6uroKRERERERERERERERERERERERERERERERERERERERERCQXbakDkCyNBzYE1gVWBVbuSRN70jJ9/nYCMApYCMwB5gKv9aQ5wAzgqZ7/fQboiBC/SJWp/kkU6gCUbSywJbAdsAV20ZkCrBbo9zqBZ4EHgXv7pMd7/ptISVT/JCl1AMqyCrAnsBN20ZmG3T2kNh+4E7gWuAa4A1iSNCIR/1T/JCvqANTbKGB7YC/gXcBWwIikETVmPnAzcCXwR2wIU6RqVP9EJKoRwI7AKcALQHcN0gPAicBb/B0mkSBU/0QkumnAD7HJPqkvGCHTncARwLJ+DpuIF6p/IhLVCGA/4Cqgi/QXh5hpDvBLbFhVJAXVP9U/kehWBr5G/e82Gk23AgcA7S4HVaRBqn+qfyLRrYQ9i3uV9JU+x/QkcAz2HrWIb6p/qn8i0S0LHAfMJn0lr0J6FZuEtWYrB1ukH9W/5tJrqP6JOBsNfAXdcbSaFmLPKTV7WVqh+ude//4b2LjZAy9Sut2A6aSvxHVIncDFwB5NnQEpmeqfv9SFTZTcr6kzIFKgtYBzSV9p65ruAg4GRjZ6QqQoqn9h092o/om8SRvwOWAB6StpCekx4DPAuEZOjtSe6l/c9ARwFJowKMLqwCWkr5QlppeA7wFrDHuWpK5U/9IlTdiVoh0AzCJ9RSw9LcKGfjcZ+nRJzaj+5ZEWY/Vv06FPl/ikzYDSWQ74FXBg6kAGsQDbJvRxbMGTWcDL2B3zaz1/M5/Xdw1bFsvTsj1pNWAysE7P/66NzarOXRdwIfAj4JbEsUg4qn956gL+gtW/GxPHUnvqAKSxJXA+tvd3Dv4J/K1Pmt7z73wahfXut8T2Pt8aeBswxvPv+HQL8B/ApakDEa9U/6pR/27HHs9diI0SiFTe4dj7sSmH214F/g/b1GO9sNkd0hhgV+C72PajHaQfihwo3Ypt5yrVp/r3uqrUv/uAD1GNrZRFBjQB+B3pKtHLwOnALuT7Cs6qwJHANeR5MboJ2D1Y7iUk1b/h5V7/7kZreUgFbQY8RPwKswQ4D9iXajz/62sV4FjgYdJfePqni7DnqlINqn/Ny7n+XUY+j29EhvT/sMk6MSvIc8C3sdebqq4NG6b8PXZBTX3x6U3zgC+S792cGNU/N7nWv0XYxkw5z2GQgo0HziZupXgE+DjVu9to1NrAD7FZ0KkvQL3pHmC7kJmWlqj++Zdj/XsYm8woko1NibuO+GPAIZSzH/dywJeAmaS/AHVjz0u/iSYp5UL1L6zc6t9SbCLjqJCZFmnEx7Hh4RgF/2VsJnGpw9CjsON9L+kvQt3AlcCkoDmW4aj+xZNb/bsFG6UQiaod2AE4hzgFvQP4ObBSjMxVxJ7AFdhCIikvQs8COwXOq7xRG/BWVP9SyqX+vQTsFTivIiwD7A/8L/AK8Qr437DFPGRgW2BLiqacsLQUOCZ0Rgu3DLA39mrds6j+5SKH+tcBfD50RqVMm2O9/9nEb1RORM+5GrUW8ANs0ZVUF6IfoNU2fVsPO66x1+9X/WtODvXvdMp9PCMetWHv8t5ImoL8ILBt8FzW03LY63ozSHPufoMaDVdt2EqMFwGdqP5VSer6dyF6VVAc7I+96pWi8HYDZ6E9630YBXyMNOfyCmwlOmneTtjkLtW/aktZ/67FNkgSadjbSHfH340tXnJI8FyWaQ/gcuJOWLoRNSTNmAZcjOpfHaWofzejToA0YAXs2VGKocbe9CAwNXRGhc2xmeOLiXNeL6W+i8T4Mg74KWnXolf9iyN2/bseWyBKZED7Yct4prrwdAO/RcPFsU0GzsAmeoU+v+dTzoIxzdoBW1RH9a8sMevfFWhOjvQzDrvrT3nhWQh8KnRGZUhTsB3jQo/+nIHeDuhrDPAj0o66qf6lF6v+nYPqn/TYAPg7aRv/R9G7xTnZHLiVsOf869Fyk7c1gNtR/ZPXxah/34mWG8nWu4i7iM9A6TzsVRnJSzu2HWqoneQ60Ypl2xF3ER/Vv+oIXf+6gA9Ey41k5zDiPHMaLC0CPhs8l+JqfeAawpSBWdjCNiU6CBt2V/2ToYSsf3Oxt02kMN8g3YWnG3gSLSxSJSOw3cZCvLZ0DzA2XlaycBRp14xX/auWkPXvAbRQUFG+TdrG/0/Yq4ZSPe/H7hp8l4lfxcxEYqkbf9W/6gpV/34cMxOSzgmku/C8AhyJZp9W3VT8v6rWhc1HqbuUjb/qXz2EqH+dwK4xMyHxHUn8i04ncBu2FvbK4bMokawGTMdvWXmaeq9UdhjxG3/Vv3oKUf+eApaPmAeJaH/irSz2PLZ++IfRRafOVsH/66O/iJqDeHYi3mpvqn9lCFH/zo6ZAYljU2AOYS86XcDVwAfRKlMlmQjchd9yVLehyHWBF1H9E/98179u6lf/irYctshHqAtPJ7bd60axMiTZWQl4BH9l6n7qs1TwBMIusqX6J77r313YWwdSA78j3MXnCrR6mJiNsHf6fZWtw+KGH8w5hKt/VwJbxcuKZMx3/TskbvgSwsGEufC8hL2OItLXbsAS/JSxZ6j+1sH7Eab+vYxWcJM381n/ZlL9+le01YHZ+L/4XN7z3SIDOQJ/Ze1rkWP3aSXgn4Spf2tEzIdUi8/6983IsYtHF+D3wtMFHIfeIZbh+Sp7r2GTnKrot/ivf8ej+ifD81X/5mIdWamYd+P34rMIe6VIpBErA8/hp+xVccfAvfBf/z4SNQdSZT7r3/GRYxdHI7G1nX1dfF4FdomZAamF9+Bn0ZtngdGRY3cRov7ptSxplq/69wx6rbRSPo2/i89CbAETkVaciZ9y+LHYgTv4DH7r385xw5ca8VX/DooduLRmFLaco4+T3oktKiLSqknYc3zXsnhX7MBbtAw2e1r1T3Lgq/7dGTtwac2n8Hf3cVTk2KWevo6f8rhD7MBb4PPu/+jIsUs9+ap/74wduDRnBP5W/Ds/cuxSX2OBGbiXydNjB96kNvzt0PaHyLFLffmqf7+OHbg0x9fM/xnAipFjl3o7BPdy+RI2wS5Xu+Gn/s1Er16JXz7q3ytUazJucS7B/SR3ohn/4t8obDaxa/ncO3bgTfgf/NQ/zfgX33zVv3fHDlwaszp+tvo9N3bgUoyv4l4+fx096sZMxGbsu+bvN7EDl2L4qH9nRY9aGnIs7id3ITA5duBSjInAfNzK6Gxspn1uVP8kdz7q3yy0JkCWbsf9AvT96FFLaU7HvZzmuC7Fbbjn6wfRo5bS+Kh/e0WPWoa0Gvbs0OWkzkcT/yS8HXC/AJ0QPeqhrYT747f5aOKfhOej/qmjmpnDcD+pv4oetZSoDfdXkq6JHvXQDsS9/p0RPWopkY/6d3P0qGVI/4v7BWib6FFLqU7BrawuBMZEj3pwZ+Be/7aNHrWUyrX+LSKv+lc81x7dHfFDloK9E/cGM6d5AK7172/xQ5aC+ah/O0aPOqARqQNwMBlY2/E7LvARiEiDbsZ2uHOxnY9APFgP1T+pFh/1b3sfgeSiyh2ArTx8x+UevkOkUV3ArY7fsamPQDzwEYfqn8Tko/6pA5CJLR0//xxwv49ARJpwi+PnN/YShbtNHD//HHCfj0BEmuBa/1zLfVaq3AFwvQO5CnumIxKT60ziXEYAXDsiqn+Sgmv9m0y12803qHJG1nX8vO4+JIU7sLUrWrU8sIanWFy43gmp/kkKrvVvGWBNT7EkV+UOwGTHzz/oJQqR5swHnnX8jrf4CMTRRo6ff8hLFCLN8VH/1vcRSA6q2gEYBazi+B26AEkqTzp+fpKXKFrXhvvqmeqASyqu9U8dgMRWwC5CreoAnvYUi0izXC9AqZfOHQe0O3xe9U9Scq1/63mJIgNV7QC43n3MRROQJJ1/OH5+opcoWres4+dV/yQl1/qXegTOm6p2AMY6fn6elyhEWuP6DDJ1B2A5x8+r/klKrvVveS9RZKCqHQDXuHUBkpQWOH4+dQfAdQRA9U9Scq1/6gAk5vL8HzT8KGktdPx86g1JXF6jAtU/Scu1/rmOQGejqh2ARY6fX8FLFCKtcb0AuTbAruY4fl71T1JyrX8uE2CzUtUOwHzHz+sCJClVvQPwmuPnVf8kJdf6N9JLFBmoagfA9Q5kHDDaRyAiLXAte1XvAKj+SUquZa/LSxQZqGoH4FXcHwPU5l1OqRzX11hTdwA6cJ9IpfonqbjWP9eyn42qdgC6sd3EXGzuIxCRFri+RtfhJQo3Lzl+XvVPUnGtf66PELJR1Q4AwAzHz+sCJKm4PgN/0UsUblxXU1P9k1Rc65/rI+hsVLkD8LDj57fwEoVI81yX8nUd/fLhCcfPq/5JKq71L4cOuBdV7gA84vj5ndFEJEljiuPn/+klCjcPOH5e9U9Sca1/ro+/slHlDsA9jp9fDtjJRyAiTdrE8fM5jADc7fj55bBOgEhsrvUvhw64F1XuANyJ+2zofX0EItKEdmAjx+/I4QJ0D6p/Uj0+6p/r/Bfx5O/YGwGtpqeo0apOUgkb4FZmFwGjokc9sDtxy8vTqP5JXK71rxtYI3rUgVR5BADgGsfPT0Z3IRLXlo6ffwBY6iMQD651/Pw6wH4+AhFpkGv9m0cej+C8qHoH4EoP33G0h+8QadTujp+/10sUflzt4Ts+5+E7RBrlWv/up0abWVV9TeMbsH0Bxjt8x27ANGC6l4hEhhajA9AGrAashQ1XrgNMwLYxXQ6rLwPtaDYHW+b3tZ5/fgWY2ZOe4c2rb17b87cu26PuCmyGXVhFQnOtf3/3EkUmqt4BWABcChzg8B1twFeAg71EJDK4dXCfgNS3AzASazynAptis5unAusSZp7AC8BjWGd5OvY44mZgH8fv/QrwccfvEBmO7/onGfgg7pM6OnAvGCLD+QTuZfVjwH8C12HPI12/L4fUAbyl9cMq0hAf9W9a9KhlSGOAWbif2HNjBy7FuYT0jW2u6TcOx1WkEa71bxbVnzdXSyfjfgHSKICEtBo2ez91Q5tr0iiAhOSj/v05etSB1aU389/YCXLRDnzTQywiAzmI6s+5Cakd+EbqIKS2fNS/K3wEImFcjO5CJF+ui1aVkDqAjVs9wCJD8FH/1o0dtDRuR/xchPQsUnzblvSNa1WS6p/45qP+6TXxCrge9xOtuQDi29mkb1irkjQKJ76djXu5PDFyzNKC3fBzEdIbAeLLKsBC0jesVUqvAacAa7ZwvEX68lX/XHcQlEiuw/1k6y5EfFgG+BXpG9SqpkU9x0/zAqRV38S9HLpufS0R7Yqfi49GAcTF7sCDpG9E65C6gKvQxkHSnFHYEtau5e+o2IGLm+twP+kaBZBWrIV1HlM3mnVNd2HLduuVShnOQbiXtwXAirEDFze74OdioxnJ0qgRwLHYBSN1I1lCehz4LDCukZMjRbod93J2duygxY/rcD/5GgWQRqwDXEP6RrHE9Co2YXCNYc+SlOQd+Clfb40duPihuQASwwH42YtCyS0twuqqZmsLwP/iXqZuih51ZG2pAwjsOmBnx+/oxLZYfcQ5GqmTZYFfAh9JHcgglmBl9inguT7pFey1qEXAHKx8L489wmgDVu5JqwCTsNXPNgQmU43n7l3ARcAPgVsSxyJprIGVe9ctsT8MnOccjSSzC37uLjQXQPraAmtcU9/19qZXgcuxxUreC0zB1tb3aRT2OOzDwI+wzvWcDPI+VLoZe3Og7jc68kbfxb3sPIN7B0IycC3uhUFzAaTXEaRf2GchtjHJ57HRqVSbeo3EnrWeANxIvrsd3gN8EHUESjAGeBH3MvO12IFLGLvg5yKiUYCyLYuf54qtpnnA77A7/PGB89qqFYBDsX3XF5O+4e+f7sTmBkl9fQL3crIQewQmNXEt7oVCowDl2hJ4lPgNVidwGfBR8m30B7MiNlpyN+kb/v7pYmCDcFmXhO7BvXycGT1qCWpn/Fw4NApQniOJP+T/KvAT7Fl+HWwHnEVeayQsxJaJXSZgviWunfBTNraMHbiEdy3uBUOjAOVYDvg9cRul54EvABMi5C+FScC3gZdI3wHoTQ9i28VK9V2Ae3m4LnbQEsfO+Llg/DZ24BLdVsQd8v8nNqGvlFXtxmGr+D1O+g5ANzZ58USq8ZqjDGwydoPmWhbeHztwieda3AtIB9qdrM4OBuYTp+FZAHwPm2BYohHYa3q3kL4T0A3cgTUkUj0/xP38P4X/12clIzvj50KhUYB6GQG8DfgD8Rqb81Fj09dO2OS8LtJ2Al4E9gycV/FrHH5W4/xy7MAlvr/iXlA0F6D6RmN3n78lzTPpe7BJaJuGzmjFbAKcga1UmKoT0AEcHTqj4s0RuJ/z+cBKsQOX+HzNFNUoQDVNA04jr/X7H8Imx60ZMN9Vsxrwn9jSxanOy2loXkDu2oDpuJ/r02MHLun4GgVYL3bg0pI2YF/getI39kOlJdja4zuGOQyVNAE4Bns+m+Kc/B96VTBne+B+jruwFTWlEL5GAU6IHbg07X34WRwkdrob2D/A8aiqkdjGS3cR/1xcTX1fzay6s3A/v1dFj1qS87F/+43Ro5ZGvQPbzjN1Q+6abkYjAv3tjq2QGHPC4I2oE5CjZ3A/t/tFj1qS8zEKMDN61DKclbBJZKlnk/tOF2Pb8srrNgPOId6+A9dSzloNVTASWy7b5Zw+TrrNtCSCkcAOwFeB/wHuBZ7Fz7KkcyLmQ4b3fuAF0jfWodJ8bKVAvav8RpOxTl+M3QgvQ9vE5mJZ/JzTOcAM4HZsH4BjsM6lVNg7sbuD2YS7GMyLlhsZygSsAUjdQMdKt2Cvy8kbTcF2THS9KxwunYW2Fs7BeMKe538CJ6EJgpXRBvwb8HfiXIgXxMmWDGEj4AHSN8qx00LgcA/Hr442B24l7PH/VrTcyGDGEa++XQFsHydb0orNgduIfxGWdPbFds5L3RinTL9Cr6kNpB04lnDLOndhNxuSzhji17cLgDViZE4aMwJbUW0J8QvD4gj5k4EdiZ/NP+qQbgfWdjuctbU+ft74GSjNQcPDKY0mTX17DfhohPzJMFYELiHdhXdp+CzKAP6d9I1ubuk5NHFpMCOA7xLmzZDp2J2oxDeStHXuVLRSZDKTSL/AS0fwXEp/avwHT68Ab2/90NZeqEdGP4qZCfmXdtLXuYuAsaEzKm80EXiQ9Ce/K3RG5Q3+i/TnPPf0GrbGhQxsKvAYfo95J7BLxDyIaSN9feumwq+GVvFVljHY0pw7pA4EmAsslzqIQhwL/Djyb3ZgG/Xc3ZMexjYRmo3dSb6KvYK4fJ+0GrBFT9oSWCdyzGBvp+yD7X0gb7Yadg3x+fz+Keyca22QuOZg6wGkdg7wCaxDIAGdSfoeX2+aHjivYj5EvJX9ZmHvee+Dn6G9idga9udjHcZYZXM2mqA2lFXw/7rwr6PmQCCvV4A/Fzivxfsg6U9y33Ry2OwKdhcd6lWu3tQF/AnYm7BDeWOwdcfPJ84bDE+jV5aGMhH/mwvtEjMDwk9I3w70pkXYKJAEsDx5LfPaAWwaNMcyEfgHYc/h74BpsTLUxwbAz/GzJPVQ6V70mGooKwGP4O9434nWlo9pGnm9Dnw7Ov9B/Jj0J7dv+mnY7Ap2Vx7q/F1KHpvrTMJmkYdcx+L8aLmppo2wRz++jvfBccMv3qmkbw/6pk+EzW55VseGV1Kf2N50NbYIhYTzacKcuxeBgyLmo1GbEXb74iPiZaWSdsNfJ2wG2jUwptHYNTl1u9CbnkTrA3iVy+tfHcApqPEPbTJhJsz9AVg5Yj6a1QZ8Enuf33feF5DmUUeVHIG/4/2NyLGXbjTwM/J5HJDjTUYljQJeIt2JnAvcjz2C0DP/OHyv7tgFnEB1XnvdALgP/2X5AXRnOpwL8HOs52DzCySuqdi1+n7ivnXTP+kVXE/ejd8Tcx+23/NUbDtJycsH8Hu+FwAHRs2BH+OB8/B/YdKbK0NbGVtW2cexPj5y7NK88VhbcAzWafBVzzrR/hxe/Dd+TsgibAMZzdDM1zLA4/irhHOAd0TNgV9twFfxuwZCJ7BjzExU0Hvwc8xnUtEV4grVDnwW2+TNR137bNzw6+kh/DT+u8YOXJr2Bfw1dIuwiV118Hn8HZdu4FH0KGA4vhYc065x1bMbfjoB58UOvG4m4qcn/unYgUvTxgHP4+ei2wG8P274wX0Fv50ANUxDWxUbQXI9znfEDly8OAr3cz8zetQ1sz3uJ+E+NOxfBcfgr3E7MnLssXwD92PzLDbELcP7On7Kox65VE87ttS7y3nvQvPMnHwM98p3TPSopVkjsXenfVxsL4gce2xn0/qxORtYIXbAFTYWP+XyrNiBixfH4n7uN4sedY34OAF6dS9/vmb+P4M9NqqzcTQ/W1l3/a07BPdyOQtNBqyiabife809c3A87icgh60iZWjX4n6eO4E9YgeeyMY0/o7zOcCKacKshVFYx9K1fO4dO3Bxtizu5z3rjnfuz8a1nGL9rQfs7OF7fostB1qChxl+ad9/YjsPHoJtDSytWQqc5uF7DvDwHVI9asMcHI17D0yPAPLmY6LVImz54NKcj+76Y5iI+5bUegxQPT4eAewSO+g6OQj3E6BJgHnzsfpWqavbrYJtbtR7HJ4F9k0aUX2djns53St61OLCxxy0LaJHXSM74H4C7sde6ZD8rI/7+X0NawhLdSB2HM5Fd/0h+bgW/SB61NKqdmzvDJfz3YXmoDlZHj8LAWlJxjz5eMTz8+hR52e71AEUYATukwFvih61tOpzuF+bnooddB09hvuJWAzsHjtwGdZFuJ9bNX4Syym4ldVF2H4Xkrc9gCW4X5vqviZJFKfhfiJ6OwFHoccBuWgDXsbtnD4QPWop2Ttxvw7tED1qaVQ7dufvo/HvBg6PG3497Yufk9GbpmOTO6YBEyLmQ95oE9zP5ZejRy0lG4G9UulSZr8SPWoZygSsLfgC7s/8+6YuYJ2I+aitUfjbJKaV1IG9U30xcDB6r9MXH2946BVPie1S3Mrsn+OHXIxR2DX6Yuya3UG6duOvgfNalO+R7kT2Tw8DW4fNbhG+j9t5eAl7jCASk+uGTI/ED7kI22DHNnX70JsOCpvdsqwOLCD9Se1NC4Cdgua4/v6C2zn4U/yQRdgVt3K7iPxXYK2aXcirfXgcjRR792PSn9i+aRa2Z7i0xnWrzS/ED1mE8bgPLa8dPer6Wh14hfTtQd90SNAcF2oF7LlO6pPbN/0qaI7rbQ5ux16vdUoqT+NWdneOH3JtnUn6dqBvuhmN8ATja9tYX2k+WumpFT522do4etQi5lrcyu6h0SOup+XIa+h/EfZGQWVUrafyR+CXqYPoYxxaiKYVPpasfcbDd4i04knHz6/vJQrZDhibOog+jsUebVZG1ToAYJv73Jo6iD42Tx1ABbl2AF4D5vkIRKQF/3D8/CQvUchmqQPo42zgF6mDaFYVOwCLscWB7k8dSI8NUwdQQa699pe8RCHSmmcdP7+8lyhkSuoAelwEfCp1EK2oYgcAbNbnnsA9qQNBHYBWuJY7LecsKS1w/Lw6AH7kcO39M/Ah7M2QyqlqBwDgBWw27WWJ48ihEFaN6wI+esdWUlro+PmcnltXWeoRgFOAD2KT/yqpyh0AgLnY44DjgaWJYpiMvRssjXOtMKO8RCHSGtcOgDqw7pYl3Vr7s4EDgM8DnYli8KLqHQCwTRe+j80IvTHB77ejpYGbNd/x89pSVVJy7QDoEZa7rYnffnUD/4NNPqzFVr916AD0uhd7JPBB4M7Iv71t5N+rujmOn18RPUeVdEY7fr7LSxRle2vE3+oGLsG2cj4I90mg2ahTBwDsRP0RKxw7A2dgEwZDi1kY6+BF3C+CqZ//SblcO5+ukwglzjV3BvBD7I5/X/J6/dyLOj+LuqEnHYndoe+A7Ri1PrAuNoy8gqff2tHT95SiA+sErObwHVOIP9IjAu7XDddHCKVrw981txMbkVwAPIFt5HMn1nY8iN1USs3tjfsykJtEj7rabsfteH8rUFybAScB92GLDc0DHsA2o8pp4REZ2BbY7OyHsYv6IuBR4DT8Pao7Frey+xtPcZRqM9yv13tHj1qytQLWE3QpUMdEj7razsHteF/lOZ4xWMMx1E5vHcDPsCWgJS/jsHMz1Pnrwjbwcn1r57tD/EYj6STH3y/dF3E7/p1oDpH0cx9uheqS+CFX2ldxO96L8NcQjwUub+K3HwA29fTb4m5T7Jw0ev6uw60T8PsmfmugdLzDbwtcgdvx/3v8kCV3p+NWqBZiu1NJY3w8dtnHUyw/aeG356F9v3NwCHYumj1/LpuK/b2F3+ubVG5atwLW+Xc5/j+PHrVk78O4N0gfjx51da2EDcm6HO9TPMSxFUMPGw+Xfo0WgkphPHbsWz1vXcD2LfxuO9bZdym372zhd8V8Avfr9IHRo5bsrYRbQ9CNHgM06yHcjvdzuL+TfaFjDN3okUBszQ75D5aubOG3N/Dwu2u08LtimnlUN1Baip/tyKWGbsKtcC0BJkaPurpOxf1i+hGH398a91GI3jQPONQhFmnMobQ25D9YanYU4AOOvzcX970wSrUK1oC7HP8Uq8VKRXwD9wvKF6NHXV374368b3b4fR93//3TueiRQAhjsef2vs9Xs5uJ/dzx925p8vfkdcfhfr6/Fj1qqYzNcS9gj1G/FRZDWRb356ndtLYXw1b4u/vvnx4AprYQkwxsKn6G/AdLb2silkccf+v0pnMvYNfUJ3A/11rLQ4bk40KzV/Soq+tPuB/v37fwu3/28LtDpfnokYAPh2LHMuS5anTuzjoefuuI5g+BAO/B/dhPjx61VM43tjhlUAAAIABJREFUcS9of4kedXV9BPfj3Ulzd9wh7/77p7PRI4FWjMeOXYxz1E1ja8v7mIE+rYVjIe6T/7qBr0ePWipnI9wLWhfWyMjwxmH7a7se8/Oa+E0fow7NpAfRjpHN2JbX12GPlS5uIK6/OP7GLPR4sBXb4uccbxA7cKmm23AvbH+MHnV1/Qz3493oKMCWxLv775uWYPsX1HkDLlejgBNxn+ndSupi6Lkkq3mI68IWj0vpfEzW1eRLaZiPob5ONNzXqGn4aZQbGQX4Pw+/45LuQBtHDWRTbBe2lOfmz0PE57r+fDfwmRaPTcl8ddgPiR24VNdY4BXcC10jw4piLsX9eA83CrAFae7++6cF2GiANhWyZ/3fxs/bIK6pC2twBuK6V0g3tg25NMfHdWEWdk0XadjJ+Lmo7BE78IraGT/He6hRgD96+g1faQbwUcpcGKYNOAiYSfrz0DcN9OjOxzPoB1o/VMV6N37O6cmxA5fqm4L70sDd2J1De+TYq8p1JcZuBn/0sjl53P0PlG4B3t7iMauidwC3kv64D5S6sLLSl+vW1d3Y3AZp3Ej8TATtwK7lIk07Hz8Xlc/GDryi9sDP8R5oFOACT98dMl1NvUeM3gVcQ/rjPFz6Q5+YVwcWe/jOjZ2OXHk+T7hrgUhDtsZPIZwDTI4ce1XdiPvx7j8KkPPd/0Dpb9ia83V4Zawd233tLtIf11bKz3c8fN89boewOOvhb7+HVlYJFfmXK/BTEK+mzGe9zQoxCvAHT98ZOz0DfI9qDmGug63d/iTpj2Mr6ffAMsDzHr7raMdjWZI2/F1zL48cu9TQO/B3UflE5NiryucowGY9/+z6fZfg51lwK6mr55gchm1bnauJwCfxM5ej1XQOdq58lJ8fefieBWj72WZ8En91pqR5NRKQr5Xj5gJviRx7Fe2On+N9Pn7mcfRd2fFQwq9NP1TqwCYNfhNbvjblY4IRwHbACdikPh+TZltNffdeiLnU83Dp7FYObKE2wd/Q//9Fjl1qbBP8Xdz+DoyJG34l+RoF8HH333+BmNC70zWTXuyJ75vAPsCqTRzjZq2KbcpyArY620sJ8903DbT7YujNnhpNjewxILYmxv34OeYdaLGthuiZdON+hQ1P+fBL4NOevquudsfmTaTWDWzDmydyjQdOI88VxmYCj2LrDDzdk2YCr2L7LizB7pjn9fz9BCw/o7Hh6hWwZ/iTe9La2MjVWtFy0LhzsLds5vf791thEw9TXuNuBbZP+PtVchb+HpGeib9rtQhgzzdfxt+dgZYFHd71pL+D+9MwMR6A33Kh1FiaDRw8zLlJPQrwoWHiE3M0/o75a9irmyLefQZ/BbUDG06VwfmaC9Bq6qKxXfxWBS5KHGtJ6XJgzQbOS8q5AM9imxvJ0PbG7+ZPurGSYEZg72j7KqyzsU1QZHA3kK6hGWpzmP7agCOwiZ6pG8i6prnA4TQ3rJ9qFEB7zw9vM+yO3dcxvxOtuiqBbY09Q/VVaGdiC1/IwHYjzQW878z/ZmxAHo8u6pauA9Zv/DT8S4pRgIXAKi3EWpINsVESX8d8KY2N1ok4OxG/F4yn0UqBQ0nRoA737H84+1HdRXBySjOxZ/0uk/lijwKc6RBrCdbGf934dtQcSNFG4X9p04eB1WJmokJijwJ04WcJ0bHY63m+3m0uKc3DhtF9bOO6NXFHAQbbUlhs7sbj+D3e92BvsIhEMxX/e5g/TmvDnCWIOQrQzLP/RqwJnEs+i9PknLqwV/vWaOlIDy7WKMD1nuOukyn4v/NfxJt3bxSJ4gj8X0CeQ3cQA4k5ChDqWeI0rCPgcw5JXVIncDG25kIIseYCvD9Q/FU3Db/P/HvTkTEzIdLfb/BfqF/BGjx5oxijAL7v/geyLvAz0i4pnEuaD/yUOHNgQo8CPIVmoQ9kT/zO9u9N/xMzEyIDGU+YZWGXAsdEzEcV7ErYC7ivZ/+NWgX4LvCC53xUIT2PTdxa2fkoNi70XICvxMtKZXyRMHtEPIStYCmS3Fuwu/YQF5Wz0N4BfV1HuAv4hfGy8QajgPdiG5gsHibGKqfFwB+xNyRSLZJz4TAxtprmk/dOjbGNBX5HmGM9G9g4XlZEhrcT4S7e04Et4mUlayFHAXLYuGVFbLGblFvq+k4PAMcBkzwep1aFmgvwi5iZyNxU4F7ClKUlwB7xsiLSuE8Q7iK6EHskoA2cwowCxHj236z1sM7A+YR5hhoqLQCuwhr9HHdlCzEKsFnUHOSpDSuvIee2aNKfZO0/CHtxvRy9KrgLfo9p7Gf/rRgDvAv4Mfbec05vEiwB7gZOwiZ8LRPoGPjiey7AVXHDz9IU4BrClrP/ipYbEQc/JmxFWICtRpj7hTak6/B3PHO8+x/OKGyo9WDgFOyRwSLCN/ZLsSH9c7ERqR3xs1hPbD5HAfaNHHtORmEjPb7XROmfTkOjn97pgIYxAvg1w29X6uoB4MvAZYF/J0e7ANd6+J5u7L3/uz18V2qjsEWH1sFeq5vc889rYXMLRgMrYB3HccCyWP7nYZ3KxcCr2B39K8Az2FK8T/ekGdi73EtjZSigrbHNY1yvgU8AG2EjCqXZD/gRlv+QfgMcSpnHWCpqJPB7wt+RdWMN4XZxshXEasBHsTvZK4DHsAYoxjB3qpn/kl6oNwL6pt7O1GNY2T4F+AjVXvZ7R+JNUj0Pu5aKVE47NhIQo6J0YZVl7Sg5czcR+Bx+t1duJeX+7F/C2Zq0Ze8O4GisLlTBFOJ0mnrTOWhhJam4NuBU4lWal7FXEnO1FvAT8lkFT8qWuvx1Y49gTsYe3+Tq34i7qdUvsEepIrXwHeJtBjOX/F5LGgUcT34740nZUpe//h2Br5BukaTB7E7ct07+A81Pkxo6mHgrvd0ZKU+NeAvhFgZRB0BcpC5/A6V7CD+xrlHjsMmgMfK9GFtLRaS2dgZmEadC7RkpT0P5ADYikfqiqg6ADCR1+RsszcGG3VM7mjj5fQVb5VOk9jbAevmhK9UfYmVoEJ8mzEYg6gCIL6nL31CpA1tZL6UbCJ/Pv2MTDEWKMRY4k7AVa0a03LzZp4eIK6ckZUtd/hpJKTsBoUfvzsYeM4gU6f8RbmJcR8R89PUB8r/zVwdAIH35a7Qevy/UARjC6BbjbSTNBz4VLysi+VoPuJ56NHAbUq2Na6Rsqctfo2ku8bfAHeMp9v7pdmxisIj0aAe+iv+3BGIaTb6z/XM4PpKf1OWvmXQ3cV8R9N0BWAJ8Ha3sJzKoqfgdDYjpeI9xqwMgMaQuf82mL4c5DAPy2QG4ifzWJhHJUhtwCPAC1Wng1iS/RX5yOj6Sp9Tlr9k0F1g9yJF4Mx8dgJeweU5a2EekSStSnQbuJx5iVQdAYktd/lpJJwU5Em/mowNQlX0OiqReWf5cG6kY53gi9sphFV/nUR0oWxU7gfOxrZ5nBf6dMcBCx+9Q/cqYNlsQHw6imo2/SBWNBz6cOgipPnUAxIePe/yu+4HPA9OACdgdxFBJJKXhyucErCx/Hpju8XcP9vhdIpKp3J9xr46fXQ4XAUfSfKc09+MjeYtZftqBz+LnVd8uYFLz2W2KjzkAIuIg9wr4EQ8xLqL1jUByPz6StxTlZzf8dAI+1OLvN0odgJrTIwBx9XYP3/F54FoP3yNSBX8Fvujhe3zUPRHJWO498Csc47sPt45o7sdH8paq/LRjcwJcfvsyh99vhEYAak4jAOJqQ8fPn4k9zxQpSSdW9l241j0pnDoA4moFx89f5SUKkepxLfsreolCiqUOgLia4Pj5GV6iEKmepx0/71r3pHDqAEhqepdfSqWyL0mpAyCu5jl+fm0vUYhUzzqOn5/rJQopljoA4mq24+f39BKFSPW4lv1XvUQhxVIHQFw97vj5T2KvRImUpB0r+y4e8xGIlEsdAHH1iOPnpwGf9hGISIV8FtjU8Ttc656IZC73hTh8LAW8GNi9xd/P/fhI3lKUnz2AJR5++8AWf79RWghIJLHcK+Bq+NkMaDFwFM0/Dsj9+EjeYpafduBz+Gn8tRmQSAGqUAHv8BBnb5oOHMvr2wEPpwrHR/IVuvz0bgf8BeABD7/Xm251yXSD1AEQSawKFfBoD3GmSpqAWK6RpC9/rabPBDge/akDUHNaiCJ/rpUoxjmeiK1qNj7Cb/k2HliQOghJYjzu61ikMB+YDMwK/DtjgIWO36E2JmN6CyBvG6QOoEGzgF+lDqJFo1MHIMkskzqAFp1O+Mbfl6pcw0SyMAJ4D3AptmNYVYbg1sTuplIPjTab1ghxMKQS1iZ9+Ws2zcEm3sbg4xFAJ3Ytew+64RQZ1PLAMcAT+L1gxHSc59hjpM2CHAmpgq1IX/6aTV8MciQG5qMD0Dc9A5wIrBwxDyJZ2w44G3vWFuKCEdMo4G6PscdIu4Q4EFIJu5O+/DWT7sLqWCy+OwC9aSF2zdsuWk5EMjIGOBS/r88NlmLbCBumTH2xbDQdEOYwSAV8mPTlr9H0GrBhmMMwqFAdgL7pDuxaOCZOlkTSWR/4AfAy8S4cKfwb0NFEjCnTlwIdA8lfVR5ZdQDvDXQMhhKjA9CbXsaujetHyZlIJCOwpT/PJ36jOD9C/gZz+BBx5ZRODXUAJHunk778DZe6cN80qFUjiH/N6gSuwkbmtEaHVNZE4Mv4n9TXTHoweC6Hdjj5jwRcEiz3krsrSF/+hkodwKeC5b4xT5Iu/09g19CJwXMp4slbgV8TblJfMymHu9v3kfecgKeC5VxyN5P05W+w9Bpphv37O4P0x2Ihdk19a+C8irQk5qS+RlMnsHnAPDdjCvm+HdCFvYIpZVmJ9GVvsHQX8Sf8Deat+Nnsy1fSpEHJRopJfY2m0wPmuxWjsOG8uaQ/Nv3TOwPmW/K0M+nLXf80B3vPP+arfo04i/THpn/SpEFJYgSwD/bs2MdKfSHSdeTbQ14d+DF5rRoYc3EVycNXSF/uetM84CTirfDXrPHATaQ/TgOlTuxavA9aaVACymFS33CpC/hvYGygY+DTROAo4DbSDzH+MXBeJT8Xkr6u3gp8Fnsckbvx2H4fqevqUEmTBsW7nCb1DZYWA7/DljatoknAh4CTgcuAh7HNThYT5/g9Hz6LkpE24CXi1c1ZWJm+DCvjH8LKfBVtCfwGWET6695gSZMGxcky2HuoV5G+MA+V/gl8D1grzGGojL1xP5abRo9aUtkS9/KyV/So87ICtndJytcEG0l3Yq8jjwtzGKRO1sQ2q4h1d9BqugnroIwMchSqZznc1xvQPIByfBW3stKB3hzplXKhs2bSq8ApaNKg9FOVAvwa8EtgapjDUHn34HZ8r44fsiRyHW5l5a7oEVfDhtiIZI5vRfUmrTQogPXgD8dWy0tdKIdKD2FDbePDHIba+Blux3kJmjxUgpWBpbiVlVOiR10tvY9QbyH99XOo9AS2H4S2Jy5IlSb17RDoGNTRB3A/7odFj1pi87FHxfuiR11db0eTBiUxTeqrv+Vwf2vgyuhRS2x/xa2MLAaWjR519fVOGvwH6a+zQyVNGqwRTeori+vFvQNYJ3rUEstauM/zUSfRTVXmXGnSYEVVpYBpUp9/X8L9vJwQPWqJ5UTcy8exsYOuMU0aFG8mYg3A46QvNEOle7AtPjWpz78puJ+fp1FFr6N2YAZuZaML2CB24AUYB3ySfDcM602PY22MJgtnZBvsTno+6QvIYGkxNiKxR6BjIK/7G+7n6/3Ro5bQPoh7ubg1etTl6b2eLyD9dXuwtAi7nmuSdiKa1CeD+QLu5+326FFLaLfiXi4+Fz3qcmnSoLzJesD3yXtSXxc2Ueh9aCg5hTXxs0vj9rEDl2B2wr08dJDvbn111g7sD1xB3hsRvYS1TeuFOQzlGgG8G/gL+W6/2w3MBn4CbBTmMEgTrsT9fF4RPWoJ5Rrcy8Nl0aOW/qZgW4nPJv31frDUibVV70bbEzupykp9D6KV+nLzfvyc251jBy7evRM/ZeG9sQOXQY2hGisNPo5WGmzatsBZ5D0JRCv15W0kMBP383wDtnWsVFMbcDPu5WAGepyXq3cAvyXvlQYXYG3atoGOQeVpUp/49i38nPODYgcu3hyKnzLwjchxS/M0abCCVgf+C03qE/9Ww89+D8+hrV+raEXgBdzP/wJg1cixS+uqNGnwv7A2sDhTgDNxX7s9ZJoNnIwm9VXZz/FTFn4WO3Bx5uvcnxo7cPFmI/KfNLgIOANbFbH2VsKG0HN+XqNJffWxHu5bv3ZjM3u3ixy7tG4b/CwDvgRYN27oEsAY4GDyXmlwCbYA0qRAxyCpNmyr1Vx7Yr2T+vTud/38Fj9l5Db0CKgK2oE78HPOz4kcu4SX+6TBV4BPUKPJx+uQ7+S+p4GvUdNelwDwFvyMAnQDX40cuzTvu/g510soZFi2UJOw+vw06duhgdLlwNrBch/JbviZiOM7afvdsvwCP+VmKfC2yLFL43bF3w6gmvdRht7dYy8mv0mDLwN7h8t6OG3Ytqo5rdynSX3lWh2Yh59y9Bh6KyBHqwPP4+ccz0Uz/0u0EdZG5PSoupOKvYY6Cvg16Q9cb9L2uwLwHfyVqQup0TO6GmgH/oq/8/utuOFLZnq3J76H9O1XbzqDCoxYjwEuJf3B0qQ+6W8c8BT+ytgJUaOXofh67t8NPAmMjRu+ZGx78pk0eDG2aF6WRgEXkfYAPYtW6pPB7Y+/staFvdkiaX0cv89u940bvlTEJGxd/3+Qto27jAw7ASOAC0hzQLRSnzTDZyd1KbBf3PClj/fi7w2PbuBPccOXCupdafBK0k0aPI/Mdhr8AfEPgib1SSsmA6/hrxzOR5tCpbAjfjcMexV7ZVmkUSknDf5nhPw15FDiZlyT+sTVYfgtk7OAqVFzULZp2IIpPs/hoTEzILUyHmuTYk8a/FiMzA1lU+Js27sITeoTvy7Gbxl9FnUCYpiGHWuf5+7CqDmQOtsea6tiTBqcB2wcJ1tvtgxw7zABuiat1CehrAa8iN/y+gp6HBDSjvi/838RvfMv/k3C2q7QKw3eQ6JJgf/ZQrCNpunAgWhSn4S1F/4Xq5qPJgaG8F78jzZ2Au+KmQkpTjvWlk0nXHv579Fy02MqYbbyfRj4MJnNcJRa+zb+y/FSbEMP8eMw/M72703fipkJKdoI4CPAI/gvx4uBTeJlBa73nIEu4BRsISGRmNoJs1lVF9a50ChW69qxRX5CvG51BbrRkPjGYvtM+C7T18TKwHs8B/48Fd3wQGpjZeBx/DcyvRVztXhZqY3V8bu8b9/0KDAxXlZE3mQf/G+Ut1fooNuAuz0G/DTaclPysDH+J5j1pheJUDlrZFfgn4Q5F7OwLaJFUlsXeAJ/ZftOAu9Rsp/HYB+lBvsdS63sju0DH6Lh6QRORI8EhtI75B9qF9HFWOdCJBeTsR1GfZXxfUIG6+tZ6TPYEJ9Ibg4m7BKft6D1AgayLXAH4Y57JxksnCIygDXxN+J1eaggp+LnwrgELegjeTuKcA1RN3YneiKa9AqwIvBzwt3196bPxMqQSAveiZ/Rxy4CPeLytd7/0SGCE/Hs64RtkLqBmdiIQ9Dndplqw/L+POGP8/GR8iTi4lj8lHfv+wS04Wcv9et8ByYS0HcI3zh1AzdgdwCl2AW4mTjH9ltxsiTixQ24l/kn8XxT8Q4PQXUCW/kMSiSC44jTUHVjW4zuGCdbSeyEvRYZ41h2AV+Oky0Rb7bBz+Owt/kMysdqaWf6DEgkoqOIu/f3LcD7qcdCNe3AB4HbiHf8utAzf6mus3GvAyf4DMh1uK4LWN9nQCKRfYw4O3z1TU9jQ9hVfF12HWyi4wziHrNFwEfDZ08kmCm433Dc4CuY8bivwx1tmUKRgHYCXiZug9YNdABXY3uO57yC3crA4Vh9Dz2rf6D0EvV+hCLluA63urAYW3bYmY/n/wf5CEQkAxvhd+GOZtNS4FpsbsIWpH2DoA3YEptlfx1hNuxpND2CVhWV+vg47nXirT4C+bRjEIvw1BMRycSKwEWka+z6ppeAC4EvATv3xBYy37tgk+su7Pnt1Pnv7ollhXDZFoluHO477n5quB8Z2UAgrquW3QUsdPwOkZzMBvYHvoq9Kphyed+Vgff2pF4zgYew14Ge6vn/z2Pr4L8MLMCG6Of0/P1yWB7GY48YVgZWxeYerNeTNgXWCpqT5nUC3wC+j13wROpiAbbvztsdvmOaj0AuxK0X8kMfQYhkajfgWdLfBZeWnkHr+ku9nYRbHfnTcD/QyGtGrr3+Wx0/L5KzvwKbAb9PHUhB/hc75temDkQkINe208uInevdjZeJCCIV8GFsmD313XFd08vAgQ2fDZFq2w63+jLTRxCvOgaxno8gRCpiJeCXxF04qIR0PjCpifMgUnUb4FZnZvkIwnXxk+V8BCFSMTsB00nfcFY9PQrs2eSxF6mDFXCrO8NOvm/kHeKuBv9uMCN6ghEpzWjsVR5p3TLYNqkipWnD2t9WdTPMPL9GGnbXxrvErU5Feqnz60bXDylZ0Pa3DpuNiIiISJPUARARESmQOgAiIiIFUgdARESkQOoAiIiIFEgdAJG8fQm4gmptqLUQi/mLqQMRkcHpNUCRsHzVnzHAjsC7sIVxNiefDnwXcB9wJXAVcBO2gBjo+iHiImj9UQdAJKxQ9Wc0MAXYpk/aGhjr+HvD6cBW57urT7oXmDfI3+v6IdI6dQBEKixm/RkFrAusje0ENrnPP0/q+e8TgHHYCnvL93zuNWzFwgVYQ74UeAHbcvcZ4GlsY5FngKd6/nujdP0QaZ06ACIVVnr9KT3/Ii60EqCIiIj4pQ6AiIhIgdQBEBERKZA6ACIiIgVSB0BERKRA6gCIiIgUSB0AERGRAqkDICIiUiB1AETCaU8dQA3oGIoEog6AiF+rAgcA5wIvJo6lDl4FLgYOB9ZJHItIrWgpYBE3vbv07dGTtsZvma96/XG9fvT3JHB1T7qMwTchEqkD7QUgkplNgL160s6E3YFvWarbyE0A5gb8/oXA9cAVPemhgL8lkkLy9rfbMYlU3QRgP+CX2G54rnWimXQz1gmomvHAtcQ9Vs8D5wMHAyuGz6JIcMnb3+QBiEQ2AtgGOA64ClhC3Ias6p2AFI1//9QB3Al8D3s0MypojkXCSN7+Jg9AJIK+k/dmkbbxqnInIIfGf6A0F00mlOpJ3v4mD0AkgDHYneH3sDvFLtI3UlXvBOTa+A+UnsAe6RyAPeIRyVHy9jd5ACKerI/dAZ4PzCF9I1SnTkCVGv/+aQH2qOc47NGPJi5LLpK3v8kDEGlRysl7JXUCqtz4D5SeQ5MJJQ/J29/kAYg0KLfJeyFTLp2AujX+/ZMmE0pKydvf5AGIDCH3yXshU+pOQN0b/4GSJhNKTK7ltfoBiPRRxcl7IVOqTkCJjf9ASZMJJSTX8ln9AKR4dZi8FzLF7gSo8R84aTKh+OZaJqsfgBSnrpP3QqZYnQA1/o0nTSYUV65lcEjaC0By0A5sy+vr678NbQPbipuAdxNu74AJ2AY8Owb6/jrrBG7n9X0L7uz5dyJDSd7+Bu2BSLFKm7zX91nxqsA1gX4n1EhAyDv/O4HVKWtuhyYTSiNcy1n1A5BaKG3y3jzsefAxwOQBjsc4qtMJCN34DzQ8XnIHUZMJpZdruap+AFJZJU3e6+SN74uPbuD4VKETkKLx76+k9R260WRCeZ1rWap+AFIZpU3eewHr3ByODWG3IudOQA6N/0BKK2eaTFgu17JT/QAkW6XdmS3FJtr5vjPLsROQa+M/kJJGmrQyYVlcy0v1A5CslPxsNuRrdjl1AqrU+PdX2lwTTSasN9fyUf0AJKmR2GtfpVxQh5u8F1IOnYAqN/4DKbXDuh/WGZJqcy0P1Q9AoitpSLWVyXshpewE1K3x76+0R1aaTFh9rmWg+gFIcBOwxu8UyphU5WPyXkgpOgF1b/wHUuJkwnOxEZEcz4e8mes5r34A4l1pd0KhJu+FFLMTUGLjP5CSRr40mbAaXM9z9QMQL3qfhf4SuxNIfQEKnWJN3gspRidAjf/ASptMOIvXR8U0mTAfrue1+gFIS8YAewI/Au4n/QUmdJoNXAB8inpdwMYRroG+sSeF+O5bgeUCHI9U1gIOwxrJV0hf3kOn+7Frx55oMmFKruex+gFIw0oawsxt8l5IIUcCQqQq3/k3op2yHqFpMmE6rueu+gHIoDR5rxxV6QTUvfEfiCYTSiiu56r6Aci/aPJe2XLvBJTY+A+kpJE4TSYMy/X8VD+Awk1Ck/fkdbl2AtT4D2wsmkworXM9H9UPoDCj0eQ9GVrIiYGtpLpN+AtpbcqdTKjRgea5Hv/qB1CA0cD7sOdqs0lfaUOmDuA24NvA9tiEKmleLp0ANf6tawfeAZyIHccO0p/PkOkV4Bxgf+o9adcn12Ne/QBqbHXs+fZM0lfOkKnv5L3VvBw5gfSPAzTs71ffyYRPk77ehkzPY49FNOo3NNfjXP0Aamhd4CxsklvqihgiLQSuBL4ITPNzyGQQqUYCdOcf3lTgC8AV2Kt4qet1iLQUOIP4G29VhevxrX4ANTIROBVYTPqK5zs9CJwM7I01ShJP7E6AGv/4xgJ7AT8GHiB9ffedFgE/RSNK/bke1+oHUBMHYEPhqSuarzSXdNvmypvFehygYf881HWb41nYo8LSX/nt5Xo8qx9Axa0KXEb6iuWaNHkvf6FHAnTnn6c6Tia8FHsFunSux7H6AVTYLsCzpK9Mrabn0eS9qgk1EqA7/+qoy2TCF7DXB0uWvP1NHkBFfYnq9cQ1ea8efI8E6M6/2vpOJlxI+utMM6kDONb/IamM5O1v8gAqph34GekrTqNJK+/Vk6+RAN3510tVVyY8BVsKvTTJ29/kAVTISOAPpK8sQ6XZPTFq5b36cx0J0J1//a0NfBK7JuS+MuF52DW2JMnb3+QBVEQ78DvSV5L+qf9I8LSXAAAHUUlEQVS2uVqOsyytjgTozr88Vdjm+A+U1QlI3v4mD6AC2oCzSV85etMzwJnAgcBK4bItFTEOu6A3Wn5uRHf+YteOA7FryTOkv671pjMp5zXB5O1v8gAq4OukrRCavCfDGYUt1DTU6pOdwM+BZRLFKHmbhl1jcphM+NXAec1F8vY3eQCZ2x+7cMauAH1X3hsbPJdSFxsDJwH3YXvVz8N2bDsFdR6lcWOxa8/J2LUo9vWvE3hv8Fyml7z9TR5AxtbHLqIxCrwm74lIrtbh9cmEsXY0fQ1YL0bmEkre/iYPIFPtwM2ELeAzsLu1HdHKeyJSDe3YNesk7BoW8hp5A/W+NiZvf5MHkKmQz/1vxB4t1Llgi0j9tQP/BtxEuOvlcdFyE1/y9jd5ABlanzCTYB7EnquJiNTNPsDD+L9uLqC+G5Ilb3+TB5ChP+G3AHcA30Gzr0Wk3pYB/h3/y6RfEDMTESVvf5MHkJnd8VtwnwN2ipoDEZG0dsX/9ui7xMxAJMnb3+QBZOZ6/BXYB4F1o0YvIpKH9YFH8Hc9/Wvc8KNI3v4mDyAjO+OvsD6MttgVkbJNAh7A33V1x7jhB5e8/U0eQEYuwU8hnQGsHjl2EZEcrYm/pYYvjBx7aMnb3+QBZGJt/ExcWQBsHTl2EZGcbYtdG12vr0uxDkVdJG9/kweQiRPw00P9TOzARUQq4Gj8XGO/FjvwgJK3v8kDyMTjuB+LqyhnFysRkWa0YRP5XK+zj8YOPKDk7W/yADIwDffjsBRttiIiMpRNgSW4X283jh14IEHb3xFBQq6ffT18x5nAdA/fIyJSVw8C53r4Hh/XbEEjAOD+7v9S6r9rlYiIDxviPuH6muhRh5G8/U0eQGKjcJ+denH0qEVEqusy3K6584CR0aP2T48AEpsGjHX8jrM9xCEiUoqzHD8/HtjERyB1pg7A8N7q+PlFwOU+AhERKcTlwGLH79jORyB1pg7A8KY4fv4GYL6PQERECjEXuNnxO1yv3bWnDsDwXCfv3eYlChGRsrheO9f1EUSdqQMwvHUdP3+vjyBERApzt+Pn9ebVMNQBGN4kx88/6SUKEZGyPOX4+VV8BFFn6gAMz/UNgGe9RCEiUpZnHD8/wUsUNaYOwPBcC9E8L1GIiJRlruPnx3uJosYa2ZjGdTGfqm9+04VbHkZQjwWRRERiasOuv63qpvo3uUHb36ofnBhcOzBq/EVEmlf6zWdw6gCIiIgUSB0AERGRAqkDICIiUiB1AERERAqkDoCIiEiB1AEQEREp0MgIv6HX4EREJAW1P0PQCICIiEiB1AEQEREpkDoAIiIiBVIHQEREpEDqAIiIiBRIHQAREZECqQMgIiJSoEbWAZgLLBs6EMmWtuQUSUf1T1o1Z7g/aGQEYKaHQERERCSeGcP9QSMdgKs8BCIiIiLxXDncHzQyPDQNuBdodw6nTFUfgtMQpEg6pdc/LeXbmk5gc+DBof6okRGA6cDpPiISERGR4E5jmMYfGu8djgYuBXZ3iahQpffAq55/kZRKr38aAWje1cA+wNLh/rDR1wCX9HzhqdjQgoiIiOSjE/gpDTb+0FrvcCpwGLAnsC4woYXvKEnpPfCq518kpdLrn0YAhjYPeAqb8HcmDQz791X1whGDKqCbqudfJKXS61/p+Q9KKwGKiIgUSB0AERGRAqkDICIiUiB1AERERAqkDoCIiEiB1AEQEREpkDoAIiIiBVIHQEREpEDqAIiIiBRIHQAREZECqQMgIiJSIHUARERECqQOgIiISIHUARARESmQOgAiIiIFUgdARESkQOoAiIiIFEgdABERkQKpAyAiIlIgdQBEREQKpA6AiIhIgdQBEBERKZA6ACIiIgVSB0BERKRA6gCIiIgUSB0AERGRAqkDICIiUiB1AERERAqkDoCIiEiB1AEQEREpkDoAIiIiBVIHQEREpEDqAIiIiBRIHQAREZECqQMgIiJSIHUARERECqQOgIiISIHUARARESmQOgAiIiIFUgdARESkQOoAiIiIFEgdABERkQKpAyAiIlIgdQBEREQKpA6AiIhIgdQBEBERKZA6ACIiIgVSB0BERKRA6gCIiIgUSB0AERGRAqkDICIiUiB1AERERAqkDoCIiEiB1AEQEREpkDoAIiIiBWpLHUAFdKcOQEREWqI2bggaARARESmQOgAiIiIFUgdARESkQOoAiIiIFEgdABERkQKpAyAiIlIgdQBEREQKpA7A8OamDkBERJo2J3UAuVMHYHgzUwcgIiJNm5E6gNypAzC8q1IHICIiTbsydQC50zKJw5sG3Au0pw5EREQa0glsDjyYOpCcaQRgeNOB01MHISIiDTsNNf7D0ghAY0YDlwK7pw5ERESGdDWwD7A0dSC507B2YzqB3wMrAtugkRMRkdx0AqcCh6DGvyEaAWjeVOAwYE9gXWBC0mhERMo1D3gKm/B3Jhr2FxEREREREREREREREREREREREREREREREREREREREZGK+v9MSWGsOGUBPAAAAABJRU5ErkJggg==;" parent="1" vertex="1">
          <mxGeometry x="120" y="120" width="80" height="80" as="geometry" />
        </mxCell>
        <mxCell id="TjRo9aIQS-ce4NooAczT-3" value="" style="shape=image;verticalLabelPosition=bottom;labelBackgroundColor=default;verticalAlign=top;aspect=fixed;imageAspect=0;image=data:image/png,iVBORw0KGgoAAAANSUhEUgAAAgAAAAIACAYAAAD0eNT6AAAABHNCSVQICAgIfAhkiAAAAAlwSFlzAAAN1wAADdcBQiibeAAAABl0RVh0U29mdHdhcmUAd3d3Lmlua3NjYXBlLm9yZ5vuPBoAACAASURBVHic7N13uCRF9cbx71lYMkhGsiBBBUEkCRJVQMkYwYgREz8j5ggIKCCICVAJiuQsoqCSJeekgAsoOUiUDPv+/qi+cLncmemZ6pmee/v9PM887O50VZ+5y06frj5VFZIwMzOzZplSdwBmZmY2eE4AzMzMGsgJgJmZWQM5ATAzM2sgJwBmZmYN5ATAzMysgZwAmJmZNZATADMzswZyAmBmZtZATgDMzMwayAmAmZlZAzkBMDMzayAnAGZmZg3kBMDMzKyBnACYmZk1kBMAMzOzBnICYGZm1kBOAMzMzBrICYCZmVkDOQEwMzNrICcAZmZmDeQEwMzMrIGcAJiZmTXQjHUHMNFFxGLAVsBrgYWBRYr/LoR/vmbD6EHgruJ1J/Af4E/ABZKm1xmY2SCFpLpjmHAiYlngHcA2wOpA1BuRmVXgHuAk4ATgL5Keqzkes75yAtCFiFgK2Bl4L358YjaZ/RP4uqQT6w7ErF+cAJQQEQsA3wZ2AGaqORwzG5wLgK9KOrfuQMyq5gSgg4h4E3AMMG/dsZhZbX4M7OQaAZtMnAC0ERGfAvbDxXxmlgoFt5X0SN2BmFXBCcA4ImJGYF/gM3XHYmZD5XpgC0k31x2IWS4nAOOIiF8An6o7DjMbSv8GVpd0X92BmOVwJfsYEfFJfPE3s9aWBI6LiKl1B2KWwwnAKBGxPumZv5lZO+sCP687CLMcfgRQiIgFgeuA+euOxcwmjI9KOqjuIMx64RGAF3wHX/zNrDu7RcQcdQdh1gsnADy/tO8OdcdhZhPOQsCX6w7CrBd+BABExLGktf3NzLr1GLCMpLvrDsSsG40fAYiIlfHF38x6Nzvw1bqDMOuWV7iDd1XUz3TSTmIXApcAVwJPVNS3mVVnGWA10k6eW5O28M71TuALFfRjNjCNfwQQEdcAK2Z2Mw3YXtJ5FYRkZgMSES8jTf39YAXdrSbpsgr6MRuIRj8CiIhXkn/xPxJY2Rd/s4lH0sOSPgRsAzyT2d1WFYRkNjCNTgCALTPb30SaB/xYFcGYWT0knQjsktmNEwCbUJqeAKyU0XY6adj/8aqCMbNa7Q5cmtF+xYiYoapgzPqt6QlATvHPsZLOrywSM6uVpGeBr2R0MQV4eUXhmPVd0xOAhTPa+uJvNvlcDDyX0X7RqgIx67emTwPMSQByhgptAij2h9gUWIH0xb4oaeW3h4A7itc04E+SbqwrztEiYkbSRjXrAYvxQtxTeCHm24G/A2dJerqmUF8kIpYm/ayX4YWY5wPu5YW4/wGcKunOfsUh6bGI+Ae9Fwc7AbAJo7EJQPFFOV9GF1dUFYsNj4iYB/gEqaBrTcqNku0bETeQ1oE4UNK0PoY4rojYFHgv6SI6T4vDxl7UHomIP5NmspyoAc8JjojFSUtwbzVObCOWG/N7RcRlpJ/1AZLu60NoV7SJp5OcmwqzgWrsOgARMQsZC/VIigrDsZpFxEzAp4FvA/NmdPUM8EtgF0n3VxFbOxGxBrAn6Y4/x8XATpLOyY+qvWLu/TeA/wNmyejqEWAPYF9JlS26FRH70/veIF+QtG9VsZj1U9NrAMyIiHVIw8v7kHfxB5hKurBNi4i+bTAVEXNExGHAReRf/AHWAM6OiOOLUZC+iIj3kR6bfIW8iz/AXMBuwA0RsXFubGZN4wTAGi0iPgGcASxdcddzAftHxC8jYmqVHUfEUsAFwPuq7LewDXBxRLy6yk4jYkpE/Ag4jLxHb+NZHDg1Ir5Ucb9mk5oTAGukSH4OHEC6a++XTwKnR8TcVXQWEW8kDdfnrmDZzjLAhVXdVUfEbMAfgJ2q6K+FGYC9IuK3RX2PmXXgBMCa6vukZ/6DsAFwVO4iMRGxLHAKMH8VQXUwF3B8RLwup5OICOBQUnHiIHwA+PGAzmU2oTkBsMaJiHcA3xrwaTcG9uq1cVE49wegkpGEkmYHTiqmQ/bqO6Sd8gZpx4j4yIDPaTbhOAGwRomIV5HuSOuYxfH5iHh/j20PA5avMpiSlgCOLe7kuxIRWwDfrT6kUn4ZEavWdG6zCcEJgDXNXqQ727rsGRFdnb+Y4795n+IpY11gu24aFIWP+1BPogUwU3F+M2vBCYA1RkS8Cdis5jBeDnyx7MERMYU0171uuxZrJZT1SeCV/QqmpHWLUQgzG4cTAGuSnp/BV2yniChbyPcB4LX9DKakpYBPlTkwIuYgLag0DPbo5fGFWRM4AbBGKKrZV6k7jsKcwLtKHjtMxWxlY9kCWKCfgXThNcAb6g7CbBg5AbCmGLah4K07HVCMErxxALGUtVKxCFEnHT/bgA1bPGZDwQmANcWWdQcwxobF1L52tiAtcDNM2l5MI2Jm4G0DiqUsJwBm43ACYJNesQpf7pSw60kLB61Hei7/p8z+ppIWCGondyW+p0h1D5uTLso/AB7P7LNTTG8gPeLIcRbwYdLPegfgysz+louIJTP7MJt0vGSmNcES5E1HOw54r6Sni9+fCxwWEV8nbUbTq8Uz32/nf8AbJV096s/+HBGHABfS+3r8/YwZ4IfA10dtTXxuRBwEHELe3geLA//OjM1sUvEIgDXBohltHwF2GHXxH20P4PyMvjvtHZ+zt/w3x1z8AZD0L7qYhjiOfsZ8DSnuF+1RLulZ0gyEezL6zonLbFJyAmBNkJMAXCLpv+O9UVyoch4FdLoovTyj71N7fK+TeTusB5BzoT1d0nPjvSHpUeC8jL6dAJiN4QTAmiBn5b/7M99vZ9ZWbxQLAM2S0Xe7uB4Gns3ou2XcHd7rpJaftVlTOQGwJrgzo22n4sHVMvq+u9UbkqYD92b03S6ulem9/udJSQ+3eb/lZyqh08+yLz9rs6ZyAmBNcHtG22Ui4sPjvRERKwK9bu4DcFfm++38YLzth4tV8XKWFu5nzFtHxLiL9kTEu8ibyZETl9mk5ATAmuCOzPY/j4jPjb6gRsRbgT8DM2f028+L6RrAHyPi+ar8iFiINKPhzRn99jPmGYCTI+LtI38QEVMiYgfg4Ix+c+Mym5Q8DdCa4HbScHqv+9rPCuwL7BYR/wSWpPdpdKNdVuL9TTP63wT4d0RMA54DliU/6e8U8+WA6H3a5QLAcRHxEHAzsBwwR499jfgfcGNmH2aTzkASgKKgaS3SpiYLF6+Xj/r1Qm1ieZI0PegK4BRJf+h7wDapSJoeEaeQv67+bMDrKwgJ4CZJ13c45kTyN9UJYJnMPkY7sd2bku6IiEuB1TPPMzfV/az/JOmpivoamGL05pOkPSxWIW9WyGTxEGk05y5SXcfIr/8DnNFqxo6Nr28JQETMAmwEbEVahrXXzUFmIX2ZrA58IiIOBz4r6cFKArWmOJnh2lin7YUUQNLlEfEf0kJGw+AB4JwSx51IfgJQpY4/62FT1J3sC8xVdyxDZu7i9epx3nsuIs4l/X2fJOnWQQY2EVVaAxDJuyLiONKUnZOBj1LtzmDvBS6NCP/DsG78BXi07iBGObbi4wbhxGJRnk6OIz0GGAZPAH+sO4huRMSPgIPwxb9bM5CW194XuCUiroyI70WER05aqCwBiIiNSc//jgbeTt7c606WBvbpY/82yUh6HNiz7jgKf5Z0cclj9yJ//f4qPAPsXuZASTcAR/U3nNJ+0mHa4lCJiDcCX6o7jkliZeC7wL8iYueIyN2jYtLJTgAiYtWI+CtwGvC6/JBK+0hEbDjA89nEtzf1V4ML+Frpg6W7SHc0dftVsYxwWd8iJQ11eoC0t8BEchCenVW12Um1NP+KiM9ExNS6AxoWPf+PFhGLRcQRwCXkTSvKsUlN57UJqBgF+E7NYfxe0lVdtvkReavg5fofsHM3DSRNAw7oTzil7SbpoZpjKC0iXkGa9WD9sSDwM+D6iNiq7mCGQU8JQLFYx6XAtuTtspYrZ2Uwa6bfUN9z9RuB/+u2UTGE/T7SVL5BE/BhSb1sxPM18rfy7dXpDMfISTf8fTYYywAnRsQexQy1xur6w0fE+0n7dS9UeTTdW77uAGxiKTbw+RCDvzA9CGzR6+wVSacDX6g2pFK+K6mnhEnSY6QZQINehvdG4D2tNhYaYv4+G6yvAic1uTagdAJQrMi1O/A78lY/q9INdQdgE0/xKGAr8lcILOtJ4F2SshajkfRT0hDmoPxO0i45HUi6DdiG9BhhEO4HtpxIQ/+j+Pts8DYHLoiIpesOpA6lEoCImB04gS6Klwbk0roDsIlJ0n9Ic9XLVuP36m5gA0l/q6IzSTuS/h1Or6K/NnYjjZRkk3QhsDbw7yr6a+MaYPViFsJE5O+zeqwAXBwR69cdyKB1TACKzUN+TxrKGzan1R2ATVxFhf36pP+/++EK0gXpoio7lfRD0lTbftxVPwm8X9I3i8cllZB0DWl/gr9X1ecYJwFrT+TFX4rYvWRxPeYj7Z2xUt2BDFKZEYBdScOlw+YgSWfWHYRNbJKelPR+0gW1qjvHB4AvA2tJytmJsCVJJ5GW1j6M6kYDjgVWltSXhEjSvcCGwGeBXooKx3MrqUByG0mDeszQTx+h/6M7Nr7ZSZtRVblw3VBrmwBExLbANwYUSzdupp6CKJukJJ0ArAh8inRR6cWDpK12Xylp736vPy/pVkkfIK2Z/wegzCp9Y00nVcyvKSm7TqETSc9I+jmpEvu7wH09dnUH8EVgeUmHVzlaUSdJfyetV2H1WJK0GVUj1gqIVv9uImI10rrfsw40os4q2Qug2KvgiV7bS6pz+qP1WUSsAmxNGv16NTDTOIc9B9xGWmr2BODskkvl9kVEzAtsQSq6Ww+Yp8WhD5OG4k8ATi7uzGtRbLH8RlLMmwNLkZZ0HesZ0vD4yaS13i/p10U/IvYHduix+RckZU8/9F4Atfu1pI/XHUS/jZsAFGsnXwosOvCIXupZ4FpSPCdXtRugEwDrRnFxXZi0mMjDpBUF7x3mqWYRMSsv7Lo5hWLntGIWxFAq5mUvQIp5HlJV/13Afwd1lz8MCUARx+KkEanVgFWBeavo10rbUdIgZ90MXKsE4GBg+z6d8xrScOXVpH/Yd5IqpVvdOT3Tjy9ZJwBmNp5hSQDGKr6zmm5uYJHitSRpx9mNSFt1V+1xYJmiWHhSesl2wBGxIvDBis9zF2lTk+MncpWumVldJD1ZdwxD4O7idXnx+58XI11vJo2WbFrhuWYDvkfvyeDQG68IcI8Wf96LR0lrry8r6ce++JuZWZUkPSHpFEmbkRKByzu16cJHI+JVFfY3VF50oY+I9YDNKur7XNKFf5diSVAzM7O+kXQGqWbiy1QznXIG0qJYk9LYO/0fVdTvb4C39LiBiJmZWU+U7E2aVfJIBV1uExFrVdDP0Hm+BiAitgDWrKDPb0vatYJ+hlpEfL7uGMysL15bdwCWT9Kfigv3maTZOzl2pb5t7/tmdBHgthX0d0gTLv6FfeoOwMzMWpN0fUS8HTiD8dfyKGuDiFhoso1qTwEoVj3KffZ/IfDJ7IjMzMwqUqyumFvJP4Xh3A8ny0gNwIbAyzL6eZy03Wlflz41MzPrlqRDSFvZ59imglCGykgCsHVmP/v2a9MTMzOzCnyTtNtlr94UEXNWFcwwmFJs95uz29/9wA8risfMzKxykm4D9svoYmbgbRWFMxSmkOZMLpLRxz6SqphqYWZm1k97ADmPqnNulofOFNIWqDmOqSIQMzOzfip2kf1bRhe518uhMiN5d//XSbqpqmDMzGx8k2QzIA1BsfgJ9L5nQM71cujkJgAnVhWImZm9ICKWIE2tXp20HfA89UZUjYh4CriHYntq4DzgREnTBhTCycCBQC87us4XETNJerrimGqRmwBcU1UgZmaWRMQOwJ7ApKo6L8wMLFG8IM1C2ysirgGOAvaT9Gi/Ti7p3oi4B3h5D80DWBj4d7VR1WMKeQnAnVUFYmZmEBH7APszOS/+7byWtOTutIj4bLFAXb/kXLsmzWOAoUwAImK2iFg7InaMiM9FxDoRMUc/zmVmNiwiYl3gc3XHUbMFgJ8C10XE6/p0DicApEcAvQyDjKh0XeSImAn4NvBVYGz291xE7AV8dwiKSMzM+uHX9PZsejJaFjgvIj4k6biK+865duVcM4fKFF68IVC3nq0qkIhYAbgM+BYvvfhD2pf5q8CVEeHdusxsUomIpYDl6o5jyMwOHBMR36i435xrVz8fTQxUzsW/MhGxEPBnYLESh78KODYiVpaUs6xjrgNqPLeZ9c+6wGtqOO9qNZxzIgjgBxFxr6Rf1x3MZFJ7AlAM+59AuYv/iOWAXYCd+hJUCZK886HZJBQR+1NPArBsDeecSH4RETdKOqfuQCaLKZ0P6bufAWv10O6LEZGzg6GZ2TD5Z90BDLmpwHERMWmK8OpWawIQEasCH+ux+RSgXxWiZmaDdmndAUwA8wM71x3EZFH3CMBu5FW8OgEws0lB0n+A6+uOYwLYPiJeXXcQk0FtCUBEbABsnNtNBaGYmQ2LjwDP1R3EkJuBdPNomeocAdixgj6urKAPM7OhIOkiYPe645gAtoqIhesOYqKrJQEodrXaJLOb6cBVFYRjZjY0JH0beC/wQN2xDLEg7SFgGeoaAXgLaYGHHPsVezubmU0qko4g7T3/XeAU4O56IxpKTgAy1bUOwOaZ7W8Eql4ZysxsaEi6i0lY8R4RiwNrk57jL53R1YYRMZukx6uJrHnqGgHIWfBiOvBhSU9UFYyZmQ2GpNskHQWsBJyf0dVUultAzsaoKwHIKd74saSc/2nMzKxmkh4DtgeezujGhYAZJmICcGRlUZiZWW0k3UReMfek2ZmvDgNPACJiKjB3RhfXVBWLmZnV7tqMtgtUFkUD1TECMENOY0k5w0VmZjZccr7Ta9/QbiKreylgMzMzq4ETADMzswZyAmBmZtZATgDMzMwayAmAmZlZAzkBMDMzayAnAGZmZg3kBMDMzKyBnACYmZk1kBMAMzOzBnICYGZm1kBOAMzMzBrICYCZmVkDOQEwMzNrICcAZmZmDeQEwMzMrIGcAJiZmTWQEwAzM7MGcgJgZmbWQE4AzMzMGsgJgJmZWQM5ATAzM2sgJwBmZmYN5ATAzMysgZwAmJmZNZATADMzswZyAmBmZtZATgDMzMwayAmAmZlZAzkBMDMzayAnAGZmZg3kBMDMzKyBnACYmZk1kBMAMzOzBnICYGZm1kBOAMzMzBrICYCZmVkDOQEwMzNrICcAZmZmDeQEwMzMrIGcAJiZmTWQEwAzM7MGcgJgZmbWQE4AzMzMGsgJgJmZWQM5ATAzM2sgJwBmZmYN5ATAzMysgZwAmJmZNZATADMzswZyAmBmZtZATgDMzMwayAmAmZlZAzkBMDMzayAnAGZmZg3kBMDMzKyBnACYmZk1kBMAMzOzBnICYGZm1kBOAMzMzBrICYCZmVkDOQEwMzNrICcAZmZmDeQEwMzMrIGcAJiZmTWQEwAzM7MGcgJgZmbWQDPWHYANTkSsDGwPvBZ4BfAv4CRJv6wxrBeJiAC+AmwCLAZMAy4GDpB0Z5s2GwHvAZYDFgauBH4t6c+DiLuMiJgT2BlYB5gVuAn4G3CIpP+1aDMz8G5gU2AZYA7gQmAvSdcNIu4yImIZ4KvAWsBTpM92InCspGfrjM3MWlPGaxZJdPMCZsk5Z7fnG/Y4BvEClgTOafN5Pl53jKNi3bVFjE8D+4/9fw5Yj3SxGa/Nk8DqdX+mUbH+sUWcDwJfHuf4jwP3t2hzO7BQ3Z+piHPuNn8H/wG2qTvGLj/P/hnfDZ+vO/6J9qrj5+2/4/TyI4BJLiJWAS4B1m1z2LeKu+hezzFnRGwUEetFxKw5/QBfbPH2VGAH4OyImLc4fjvgr6Q74/HMDOzUazzFORaKiC0j4vURMUNGP6uR7uLHMzewZ0QcERFTiuP3BA4E5mvRZlHgY73GU5xj6YjYJiKWy+kHeD+t/w4WB46LiKy/BzOrnhOAye9rwAIdjlkCeGMvnUfEz0h3sKcDZwMPR8S3eukLeDtpaLydNYDti4Rld1Ji0M7mRWLRlYiYOSLOBu4GTgIuAx6KiC267avwvhLHbAusExEvp3UiNNp7ewkkIhaJiJtJj1eOB26IiDsi4pW99EfnzxbArhExd4/9m1kfOAGY/FYpedx23XYcER8APgOMvjOeCnw/Ijbotj/SnWQZ6wDzkh5tdDIrsHUPsfyY9HhhtDmA30bEYt10VIwcbFvy8LWAFSn3b/M1RV1Ht44GlhrzZ4sAx3c7yhERSwNvKHHoTKTkzcyGhBOAye+skse9JyI63U2P9ekWfz4F+EQ3HUXEQsCGJQ+/UtJ/gWtKHl82sRiJZVZSseR45qb7O+8NgZeXPPYK4CKgbOFcV7EUCUOr0Z6VgLW76a/L81/VZd9m1kdOACa/w0seNx+wcdlOiwt2uzu6t0ZEN7NM3sOLRxLaObr4b9nP9uYi3rLeAszW5v3Nu+gLyg3/A9wHnCnpUVLBYBnbdVm/sWWH97t9xFH2s50t6Z4u+zazPnICMPmdTZruV0Y3d3Ob0f7/n3norq6g7Ln/Lumfxa8Ppdyd8gykqXRldboIrj1SiNhJRMxCqm0o47eSnil+/euSbRYnPRIpq9NnK53cFAWmryp5eNnPY2YD4gRgklOa83JQycO3iojZSx7b6U4SSt5NFsVna5Y8729GfiHpLuDUku1K3akWd9Od4p4BeFvJ824BzFXy2N+M+vWfgHHXPRhH2c+2CLBah8NeXTzXr+y8wEPAcSWPNbMBcQLQDIcAz5U4bnZgq04HFc/INyrRX9nh5LJ3/4/ywvD/iLJ3lmuWvLCtTrnn9WXvlMteJM+X9I+R30h6Dji4ZNt3lqzf2JxUkV/muLaK6YplC0cPl/REyWPNbECcADRAl3fKZS7Gb6b9M/IRy5WcY172InmEpMfG/NmpwF0l25f5bGVGNqBEjUNEzEP5kYLxEpmDSAuPdDIfaeXETsp+tjKJ2wakmQNlePjfbAg5AWiOsl/CG0dEq8VnRpS9kECHu8mIeD2wfMm+fjP2D4o75UNKtq8yAZibzs/e30Wa/tbJeCMbSLoZOLNkPG0/W0TMRkrcylivxNoJZZO2KyRdUfJYMxsgJwDNUfZOeSrpwjWu4hl5N1Xwne4my15IrpF0cYv3yt4pvzoiXtfqzYh4BWmfhLI6/RzKfrYjxxnZGFE2cduyQ/3GRqTlr8uYiTYzQor9Cd5Rsi/f/ZsNKScADaG0IcuhJQ9vdze5GmmznbLWabUCXPEcuewCOS0vJJL+RZrtUEa7z9btFLiWCUBELE775ZdHa3eRPB54oEQfneo3uhm1gfbJzWbAy0r08QTlp2qa2YA5AWiWlwyht7BORCzR4r1uLyQz0vo5+AaUe478FHBYh2PK3mlu22befLefbfmIWLbFe9tRruDu2jYjG0gq89lHjJvcFIlWt2sXbDqyL8E4yo5sHCfpoS7Pa2YD4gSgQbq4Uw5a35l3e5GE1hefstX/J0jqdBd8HGm6WSfj3plHxMuA9UvGM1qrz1b2Ilkmccmt31gTWLBkHyMWZJyFnoqf02Yl+/Dwv9kQcwLQPGW/lF9ycY6IJUnLxXbrbWMr5ovnyO8s2b5jzJKeBH5fsr/xEo+30nljofG8JAGIiBUp93MqdXcv6Rqg5SjBKK3qN3pJ2mD85OYdpF0WO/mXpLKPZcysBk4AmqfsnfLKEfGaMX/W64VkvFUByz5HvgU4o+R5yj7ieNc48+Z7/WzrFnfFo5W9+z+x2NOgjLKfbbzkpsoEoOxnKxuvmdXECUDDFAuylC3MGnsx6XUr3PHalh3+P6hYzbCjYrrZ5SUOnZdR8+aL0Ymy8/XHmjqmr6D8Z+tmiPwIoNVMgdFeVL9RrLI4NpEra+WimHGkr0VIdRudPEv5qZlmVhMnAM3U9WOAiJiL9l/+nS7Sz99NdvEcuZs5/iN6ecSxDmmUopXSn63oq1UB5Wi3An8rcVwKIG0Q9JK1AsYxtn6jU9LWzWfbjnLfGadKurvEcWZWIycADVTcKZdZnGWpiFir+HWnZ+SnA/9s8/7oivm3U25O+mmSbi9x3GiHk6afdTJ634NOQ+S/oP2mQ5tGxMhOhmWHyEuPbIxSNrkZHUOnz/aTDu+PTgD6MbJhZjVxAtBc3d4pd7qQHE7nIryRu9EqK+RfRNLDwLElDp0N2Lr4dafPth9wWpv35wPeUNQVtFxEaZTplF/n/3mSzgf+0fFAWCkiVijWX2i3FsFDwNeB29oc86aImC0iXgW8vsS576T8stNmViMnAM1V9k753UXF/qZtjnkSOIHOtQVbRMTCwIYlznsvcEqJ48ZTumCuKHR8ZZtjLpN0I50/2+akOoIy2wT3MrIxopvEbVPSOgytHFfMnjiyzTGzkJYQLpu0HVosz2xmQ84JQEMVC7SU2aJ1QeB7tH9GfoqkR4u16y9sc9w6wCcp9//doZKeKXHcSxTTz24qcejGwEc6HHNE8d+TaF+EtwWDGSL/HfB0ieO2o/PIxshnKzNyU+azCVf/m00YTgCareyF6Msd3h99d9zuYjIj8LWS58y9kJRpPyPwuTbvi+LuuFir/8Q2x64AbFPinPcCfyhx3PgBSfcBJ5c4dCnar9d/N8VGQ5KuAq5rc+wHgDJbKZ8laVqJ48xsCDgBaLZzgH+VOK7dMPLDvPiZ79Gk6v1WyuyOd56kG0oc186htC/cG9Hus50j6Y5Rv+/0GKDMZ/ttryMbo5RN3Np9tqMkTR/1+3afrewmQr77N5tAnAA0WFGFnvulfXyxXv1In/cCf8nsM7uKvJiG9sfMbsZeFE8H7s/ss4qL5F+A/2T2MfazHU65HRVbeZByj5TMbEg4AbCyd8qtHDHOn+XsAPcIcExG+9FyLrbPMGY2QbGjYpm5+K2cJ6ndVMlSijv3gzK6mDZ2AyJJtwIXZPT5+6Kg0MwmCCcADSfpLnqftnUP4y/TewLweI990SYIBgAAIABJREFUHiGp17ZjnUqaltaL01psQFR2v4HxVDlEfjBpOmEvxkvaYHg+m5kNgBMAg96H3I8eb8qXpP9RrlCtylheoojtkB6bj3uRLObi39pDf4+QN3owNo7/kB5J9KJVAnA0vY0GXSbpyh5jMbOaOAEwSHfKd/XQrt1Qfy+PAa6SdGkP7do5iO6fbT9OmvbXSi+f7cgKRzZG9HLXfZWk68d7Q9L99JZU+O7fbAJyAmC93infIqndnP8/A+MNobdT+YWkmJZ2VpfNTi6m/bXSy1B5P5bHPQm4r8s2re7+R3T72brZXMrMhogTABvR7Z1y2wtJMdWtm2K+J4HDuji+G90mFm0vaMUd9FVd9He1pEu6jKGj4mf8226a0DkB6LTg0VjHFMsvm9kE4wTAAJD0L+DsLpp0upBAd3eTJ0h6sIvju3Ecad37Mh6k/br/I7r5bP0cIu9mZOH8onagpWLko93jj7E8/G82QTkBsNHKfplfI+naEsedR/n56n3bQa6Ynlb2gn2spDJL7R5BuRGTp+jfyAbFtMK/lzy87FB92Z/VjZLOKXmsmQ0ZJwA22rGUu1Muc/c/stBQmWNvpliWto/KJhhlP9vtpJUUOzm+xXTCKpX5bM9S/pFM2QWPfPdvNoE5AbDndXGnXOoiWSjT30FFstA3xTS1yzocdifdPQYp89kGcZE8hjTNsJ2/FvsIdFRywaNnSYtImdkE5QTAxvo+0G61uq8Uq8aVIukaYO82h1wE/LRsf5k+QesRjieAD49ZH7+Tw4C/tnn/UMZfKKlSxXP7HWi9MNCdwOe77PYHwI1t3v+ypHu67NPMhki7zUKsgSTdFxFvJu2StwrwauAO4FrgdEldL2Yj6csRcSOwPmnXvHlIu89dBewhqdPdayUkXR4RbyJtAbwKsCRp2+BrSfP0z++yvyciYgvgq8DrSJ9NRX8XAnv3e2RjVCxHRsRjwNakzzYvcH0RywHd7tIn6c6I2AD4EulzvZqUPF0DnCqpm1EgMxtCTgDsJSTdSbqoVdnngcCBVfbZYxxXADtW2N+TpFGT2kn6AxlbDY/T31103grazCYoPwIwMzNrICcAZmZmDeQEwMzMrIGcAJiZmTWQEwAzM7MGcgJgZmbWQE4AzMzMGsgJgJmZWQM5ATAzM2sgJwBmZmYN5ATAzOzFymyJ3Y+2ZgPlBMDM7MU6bRvdr7ZmA+UEwMzsxS7tsd0TpB0YzSYEJwBmZqNIugU4t4emh0l6rup4zPrFCYCZ2Ut9GHi8i+NvBb7Un1DM+sMJgJnZGJKmAZ8Eni5x+H+B90l6tL9RmVXLCYCZ2Tgk/Q5YDbiyzWF/BFaUdP5gojKrzox1B2BmNqwkXRMRawDrkZKBVUnFfpcCl0i6sM74zHI4ATAza0PSM8DfipfZpOFHAGZmZg3kBMDMzKyBnACYmZk1kGsAzAYoIqYArwHmIBWT3QPc5wVkzGzQnACYDUBEvAL4PrApMP+Yt6dHxH9JycC9xX/He90L3COpzNx0M7O2nACY9VlEfAz4CTBbi0OmAAsUrzL9PUSL5GDsS1I3q9mZWYM4ATDro4h4D3AgEBV2O3fxWr7E+f9H+ZGFhyuM0cyGnBMAsz6JiAWAg6j24t+tOYrXKzsdGBFPUXJkAXhAkvoUs5kNgBMAs/75Eq2H/YfRzMASxauTZyPiXkqMLOAiR7Oh5ATArH+2qzuAPpoRWKR4dTK6yLHTyMK9LnI0GwwnAGZ9EBFTgcXqjmNIjC5yXLHTwRHxIOVGFlzkaJbBCYBZf8yPF9rq1TzFq5six04jC/dIeqRfAZtNRE4AzPrjHuBB0oXM+qebIscnKTmygIscrQGcAJj1gaTpEXEusGXdsdjzZqH7IseOIwvA/S5ytInICYBZ/5yME4CJKrfIsdXIgoscbWg4ATDrnyOBHwNz1R2I9VUvRY5lZ0S4yNH6xgmAWZ9Ieiwifgd8pu5YbKiMFDm+qtOB4xQ5tkwcXORo3XICYNZfB+AEwHrXbZFjqRkRwIMucjQnAGZ9JOmaiDgfWLvuWGzSmwVYsnh18kxE3EeJkQVc5DhpOQEw67/9cQJgw2Uq3RU53g/cCZwPnAH8UdKTfYzPBsALlZj13zHAA3UHYdajKcCCwOuATwPHAldGxFq1RmXZnACY9Vlxp3RI3XGYVWh54LyIeGfdgVjvnACYDcYBdQdgVrEpwEERsVzdgVhvnACYDYCkG4Ez647DrGJzAj+qOwjrjRMAs8HZv+4AzPrgbRExb91BWPecAJgNzgmkaVVmk8lMwMZ1B2HdcwJgNiCSngEOqjsOsz6Ype4ArHteB8BssA4Evkpe8v17YBtgtkoiaoaHgeuB64r/PgIsVLwWHPXrhYB5gagnzAnLqwpOQE4AzAZI0q0RcRrwtoxubiQtDfsN4BPAzFXENsm9DFireAHcRirKPAM4U9J/Rg6MiBl5ISkYmxyMfc0PzDCYjzDULq07AOueEwCzwTuAvATg48APJP1fROwJfBv4MP733I3FgQ8WLyJiGkUyQEoI7iStfNdWREwB5mP85GBs8rAg6Xn5ZHOdpOvqDsK65y8Ms8E7BbgdWKzH9osBmwEnS7oN+ERE/BD4LvA+XNvTi1cWr48DRMQ/SAnBGcDZkv47XiNJ04H7ite1nU4SEfPQOkEYmyxMlEc8P6g7AOuNEwCzAZP0XET8GvheRjc7ACeP6nMa8MGI2B34PvBO/Bw7x6uL12cARcRVvDBCcE6vW+9KehB4EPhnp2MjYg7GTw7eAqzTy/n74EBJR9QdhPXGdwpm9fg1kLPD2lsj4hVj/1DSPyS9G3g98IeM/u0FQVoH/4ukn+kDEXFRROweERtFRF/u1CX9T9I0SedLOgH4F6mGYRgu/tOBHwM71h2I9c4JgFkNJN1B3gV6CsVwdYv+r5S0JfAG4C8Z57GXmgFYA/gacDrwYEScExHfj4j1I6KyosyImDEi3hcRV5D+Hjepqu8MFwMbSPqSpKfrDsZ65wTArD65+wN8NCKmtjtA0kWSNgY2AM7LPJ+NbyZgXeA7wFmkhOCvEfGNiHhDMaugKxExZ0R8EZgGHEYagaiTSAnrepLWlHRuzfFYBVwDYFaf04BbgKV6bL8QsDVpu+G2JJ0NrBsRmwC7AKv3eM5c04ErScnIK0kXzrlqiqVfZgXeXLwAHo2Ic3lh2uGVRfHgS0TEIsDnSDUeLxtArJ08BfwO2FtSx7oFm1g8AmBWE0kiLQyU45NdnvM0SWuQEoerM8/diymk+oRPArcCK5IeU3ydNMT9eA0x9ducwKbAnsBlwP0RcUJE7BgRKwJExIoRcQgpIfwK9V/8HyBV9y8p6eO++E9OTgDM6nUQ8ExG+w0jYtluG0k6iTSsvC1wQ8b5ezUTqcL+BtKMhV8XjyrmAdYjTWk8m3QHOtnMQ0rA9gOuiYj/AtcAH6L+dQJuIRX2LSHpW5K8d8Uk5gTArEaS7gWOz+giSMPFvZxbko4CVgC2J335D9qswJeBmyNiF2BWSedK2lnSBqSL5VtId6MXAM/WEGO/DcNOepcA7waWlfQzSY/VHZD1nxMAs/rlFgNun1N5Luk5SYcCy5OG5m/PjKcXcwLfAm4piufmKGJ7QtLfirvRtUkJwabAXqTh9HGfpVspI4V960taQ9IxknKmptoE4wTArGaSziRvGH4+4F0VxPGMpAOAZYEvUM/WxfOQ7vZvjogvRsSLdpkr5sb/SdJOklYjffbnh9PxpjRlPEVah+I1kraUdE7dAVk9nACYDYfcUYCuigHbkfSkpH1JVfpfJxWEDdoCwN7AtIj4VKvpjpIeknSSpM9JWok0M+LdwP7UU9swzFzYZy/iBMBsOBwKPJnR/o0jFeVVkfSYpD1I0xS/T9pCd9AWAX4B3BgR20dE2533JN1XDGV/StKrgEWB95OKLeuocRgGtwD/hwv7bAwnAGZDQNIDwNGZ3fRUDNiJpEckfY+UCPyQeqbqvQI4GLg+IraNiFL7HEi6U9LvJX1U0tKkz/AR0uI6d/Qt2uFwCfAeUmHfT13YZ2M5ATAbHrmPAT7Qr3XpISUpkr4GLA38hHqm6C0HHAFcFRFbddtY0q2SDpb0AUmLkQofP0VKvu6rNtRaiLTb5AZFYd/RLuyzVpwAmA0JSeeTCtl69TJgu4rCaUnSPZI+DyxDSlpy1jHo1WuBEyPi4mJ1w55IulHS/pLeQ6ofeC1pJb4TSbv2TRRPAb8BVpC0RbHyo1lbTgDMhsv+me0rKwbsRNLtkj4JvIpUw1DHnebqwJ+LzXjWy+moWBfhWkn7SdoGmB9YFdgJOBV4ND/cyj0I7Aa8QtLHJP2j7oBs4nACYDZcDgNyntWuFhGrVhVMGZJulrQ9aVnfo6lnKt66wNkRcXpErFFFh5KmS7pc0l6SNiMt2LMW8E3gr8ATVZynR7eQRioWl/RNSXfXGItNUE4AzIaIpEeAwzO76UsxYCeS/lkMpb8OOLmOGICNgIsi4qSIWLnKjiU9K+lCSbtJ2giYG1ifNEPiXGAQW+NeyguFffu5sM9yOAEwGz65xYDvjYjadtiTdLWkrYA1gdNrCmNL4IqIOCoiXtWPE0h6WtI5kr4naT3SIkYbA7sDF1HdssUC/kgq7FvdhX1WFScAZkNG0mWkO71ezU6a+14rSRdL2oR0l1zH/vFBWhTo2og4JCJ63Xa5FEmPS/qLpG9IegOwawXdHkQq7NvchX3DLyLeEBG/iYiLIuLSiLgsInaLiMXrjm08TgDMhtOEKQbspLhLXg/YhDQ3fdBmIO20d0NE7B8Ri/X7hBExO/DZzG7+Uqxf4MK+IRcRi0XEpaQNqz4CrEEqIH09aTXNWyLiiIiYr8YwX8IJgNlwOgJ4OKP9ayNi7aqCqYKk0yWtQVq7/+oaQphKqo+4KSL2iYgF+3iuT5JmEeSoYgTB+qxIKM8kXfBbmYG09faVubNVquQEwGwISXoc+F1mN7UUA3Yi6SRSoeB21LNe/yzA50kbDu0eEfNU2XmxgdGXM7s515v0DL+ImJE0I2SZkk0WA86IiO9ERO3X39oDMLOWcosB3x0Rw7DX/EsUc+6PBFYAPgzcWkMYswNfIw3Pfici5qyo348BL8/sY5cqArG+25K0mmQ3ZiDNHPlbRCxSfUjlOQEwG1KSrgX+ntHFLKRn30NL0nOSDiEt8ftp6lmf/2WkL+RbIuIrOcspR8RMwFcy47lY0l8y+7DB+FRG2w1IS1pvWlEsXXMCYDbccosBh/IxwFiSnpH0S9JQ6hepZ13++UibHU2LiB0jYuYe+vggkFvx7Wf/E8ebM9vPD5wSEd+rIJauOQEwG27HAP/NaL98RGxYVTD9JulJSfuQdu37JvWsx/9yYD/S3dkKZRsVWxV/PfPcV0n6Q2YfNjildqUs0cd3I+LgoqZgYJwAmA0xSU8Bh2R2MzRTAsuS9Jik3UiJwK7Usw7/8qTlhZcrefx7STsl5vhBZnubuLYnjQZUVYvSkRMAs+F3IHnr62/T5ylvfSPpYUnfJl1Y92Lw6+/PBxzeqWK7eP8bmef6B3BcZh82WFdW3N8mpKRz4Yr7HZcTALMhJ+lG0jzjXk0lLU4yYUm6X9JOwCuBnzOYdfdHrEpau6Cdd5J2Rcyxm6TpmX3YYP2yD32uAlwQEa/uQ98v4gTAbGLILQb8RERU8byyVpLukvRZ0qyB31DdevudvKfVG8XP9ZuZ/U8jLf5kE8vh5NXotLIk8PeIWK0PfT/PCYDZxHAicE9G+6VIw4uTgqR/S/oY8BrSl3C/75zbrfK2JbBSZv97eIOfiUfS/0j/rh7qQ/fzAEdFxBx96BtwAmA2IUh6hnTHm2PCFQN2IukmSe8jLejTT+0WbPlWZt+3AYdm9mE1KTbv2pj+JAFLA/v0oV/ACYDZRPIr8u50N4+IRasKZhhExPoRcR7woz6fatZig5+x598EyB2m/WGR4NkEJekS0sY/F/Wh+49FxEJ96NcJgNlEIelW4LSMLmYgLVM74UXE6hFxOnAW8MYBnXa8mRTfzuzzbvJHdmwISLoFWIe0mFTOrJ3xrFFxf0CzE4CnySggiogFKozFrKzcYsCPFQvWTEgR8dqIOBG4GNhowKd/0b/5iNiA/ORjL0lPZvZhQ0LSs5K+RqoLuLvCrlevsK/nNTYBKKbb5BRV9eUvxKyDPwK3Z7RfDNi8olgGJiKWjYjDSfOut6opjLFJf+7d//3kJ3Q2hIq9HFYmb8RutL4kiY1NAAp3ZbTt6/QMs/EUleK/yuxmwhQDRsQSEfFr4HrS9sF1fmc9/wggItYC3pTZ376SHsvsw4aUpHuBTUnLSueqesEhwAnAnRltJ82UKptwfk3e/PeNI2KpqoLph4hYKCL2A24EPgoMdI30FkaPAORW/j8E/DSzDxtykqZL+hzwZXqvC5gOXF5dVC9oegKQMwKwdkRMmDspmzwk3QmcktHFFODjFYVTqYiYNyL2AG4GdgR62ZGvXxYAiIjXk+7scvxU0iP5IdlEIGlv0gjWUz00/7mkKusJntf0BODczPZ7RkTu5h9mvch9dvyRiJhaSSQViIi5IuK7wC3AV4HZag5pPCMjALl3//8D9s3swyYYSUfR/aJBt5O/ymRLTU8ATiVvKHUO4NR+L9doNo7TSXfJvVoI2KaiWHoWEbNFxFdIn+V7wFz1RtTWghGxIp33Bejkl5IeqCIgm1gknU2aOXJVicOnAe+Q1LedMBudAEh6EDgns5vlSRs37DxMd1Q2uUkSaZfAHLU9woqImSJiR9KX3A9Ju+4NuwVId2M5eyo8AexdTTg2EUm6njSL7DuMv6mVSJsMrSzp4n7GMgyFNXU7kfxq3hlJU4I+FxGXAZeQqjYHvXWpDb+HgMsrev57MLAzMFOP7TeMiOWK3QYHIiJmBD5E+vJbYlDnrcjypNXecvxKUs70Y5sEipUfd4mIfUjTBVch7dp5BXCFpIcHEYcTADiGdAcyawV9zQVsWLzMWlFE3Ei6gO/V6yYwku6NiOOBbTNi2QH4Ukb7UiJiCinO7wHL9vt8LTwIHETvn3fOzPM/DeyZ2YdNIsVmQn8vXgPX6EcAAEV1Zd82WzAbR5DuJvcALoyI12T0dUBmLNtHxCyZfbQVEduQnnn+nnou/o8Cu5B2RPxGDecfcYiknEWczCrV+ASg8EPSqlxmg7YacFpE9FT8Juks4J8Z558XeFdG+5Yi4q0RcQlwPLBiP87RwRPAXsDSkr4j6WFJTwMDGV4d41lSwmc2NJwAAMXz2J3rjsMaazHyCsNyRwEqLQaMiPUi4lzgT9SzYubTwM+BV0raSdLY5P7eGmI6vNgsxmxoOAF4wf6kDUbM6vCxiFi+x7aHkrdW+NoR8dqM9gBExBrFDn1nk3ZFq8PRwHKSPiup1UJf9w0yINJKbrsN+JxmHTkBKBRVmduQtzywWY439NKomM56VOa5d+i1YUSsFBEnkfZCH/QOfWOtBizc4ZhBjwAcI+mGAZ/TrCMnAKMUS6xuTZ92XjLrIGeHydzHAB+IiNm7aRARy0XEEaQpr1tmnr8qSwPnRsS3ipkH4xlkAiDgBwM8n1lpTgDGkHQJafOR6XXHYo0zb68NJV0AXJ1x7rlIa5V3FBGviIiDSDv0bUvewjj9MCOp6v/MiFh8nPcH+QjgZEnXDPB8ZqU5ARiHpMNJjwP+V3cs1ii5O37l7g/QthgwIhaOiJ8DNwAfBmbIPF+/rQdcHRFjZzkMcgRg1wGey6wrTgBakHQysDbw77pjsca4NLP9YeQlrauOt69FRMwfEXuRlu39NL2vPFiHuYGjI+I3ox5xDGoE4M+Scv9OzVqKiDki4jMR8buIuDEibo2I4yLiGxExf6f2TgDaKIbuVgf+WncsNun9E7ggp4Ni05DDM+N4fhQgIl4WETuTNur5EtWsllmXjwBXFAnOoEYAfPdvfRMR65Ie+/0MeD9pka0lgbeT6k7+ERFtH+s5AehA0n2SNgI2o9wOTmbdeg7YXlIve4WPlVsMuG1ELBIRXydtzftt8pfAHRbLAueTviz77SxJtSzvapNfROwAnEVa3bKV+YHDI+L7rQ5wAlCSpFNJG4G8H7ip5nBs8ngO2EnSRVV0July0mZUvZqddMe/GzBPFTF16XbgH33sfyqwfR/7H+G7f+uLiFga+DHlr9/fjIg1xnvDCUAXJE2X9HtJy5F2cPou+YVb1lz/ANaWVPVeFLnFgDNXEkV37gU+DyxDSrR/VkMMVblA0t/qDsImrf2B2bo4fgbgtxHxkqJd7wbYI0lXk56/7BwRiwGvBRYd9VqYdLdhNtpDpGK/S0kXiiqG/cc6knSH8LI+9F21B0k75O0n6bFRf75jRPyZtHvfgrVE1jvf/VtfRMScwFt6aLo8sAlw6ug/dAJQgWKHL+/yZUNB0uMR8Vtgx7pjaeNRYF9g71Z7n0v6Y0SsBBwCvHWAseW4vHhcaNYPK9H7uhsfZEwC4EcAZpNTbjFgv7xkh752B0u6B9iU9HigH6MlVfOqf9ZPr8pou1VEvGhU0AmA2SQk6TrgvLrjGOVp4Be03qGvJSU/AdYArutXgBW4Djih7iBsUpuW0XYW4N2j/8AJgNnklVsMWIXngIOB5SV9ps0OfR0VdTerkbb6HUY/kKS6g7BJ7XLS/hK9+uDo3zgBMJu8jgX+W9O5RdqhcAVJH5F0ayWdSk9K+iywBYPf1redm0hbEZv1jaRHgGszulinmEYIOAEwm7SKGQYH13Dqk4HXSdq2X9vgSjqFVBB1Wj/678Hukp6rOwhrhCMz239g5BdOAMwmtwPJGzLsxl+BNSVtVQzX95Wku4G3AV+g3gLBf5P2YTAbhMPI+zf93pFfOAEwm8Qk3QSc0efT/B3YQNJGki7u87lepCgQ3BdYk7Q9cR1+KOmZms5tDSPpP8A5GV0sFxGLghMAsyboVzHgZcCmktaRdHafzlGKpKtIBYK/GPCp7yQtVmQ2SL/NbL8BOAEwa4KTgLsr7O864B2SVpP0pwr7zSLpCUmfAbYESk8zzLRnn1ZzNGvnWNKaGr3aAJwAmE16xfB0FWvrTyMVEK0k6fgK+usLSX8gLc19ep9PdR+pxsJsoIrZACdndLE+OAEwa4o9gWt6bHsb8AngVZIOkzS9urD6oygQfCvwRdIiRP3wY0mP96lvs05ylpxeNiIWcQJg1gCSngY+DDzbRbN7gM8By0r6laRu2tauKBDch7SCYNVbDD/I8C5IZM1wVmb7DZwAmDWEpMuAjYFOc/MfAL5OWq9/v4n+jLsoEFwV+GWF3f5E0qPdNoqIFSLi1xFxVkRcEhGXR8SuEZGzxrs1UDEb4JaMLjbwboBmDSLpzIhYGdgJeAfwamBmUjX72cXryE6b9Ew0kp4APl1sMfwbYP6M7h4F9uumQUQsTKoX2IyX7ua2CvDNiDgS+FAxWmNWxlnAUj22XcMjAGYNI+kpSbtKWgWYA1hE0qKS3ivpgMl28R9N0smkFQT/ktHNfpIeLHtwRMxNWrFwc9pv5bot8MeImCMjNmuWszLazuIEwKzBJD2bs0HPRFR83k2AL9F9geDNwG5lD46IGYGRWQllvAU4pWhn1slZOY2dAJhZ4xQFgj8mrSD4z5LNHgTe32Xl/1uBdboMb31gny7bWAMVdQC9Frg+VEcC4O0yzWwoSLqSVCC4B/BIm0OvA94g6YIuT/G+HkP7bERs32PbJvH1JNW09OKQgScARUVxz1XFEbFEheGYWcNJelzS14ElgK8C5wL/As4nLbn6LmBlSTf20P0WGaHtHxGrZ7SfKBbLaNv1TIxJ6LfAk122eRj4XV2PAO7MaLtuZVGYmRUkPSzpR5LWk7SspDdK+pCkY2va6ndm4PiIWLCGcw9EUeuwWkYXjapfGY+k+0hrfJQdDXkO+JSkxyZiArCrq2TNbIJ4LLP9YsCxETG1imCG0NeAhTLaV7nHxYQl6Ujgy6SLezvPkaaaHgH1FQHekdH2FcCfIqLXuY9mZoNycwV9rMskKwqMiBki4uvAdzK7avwIwIiiqPV1pCmnYz0J/A54o6Tfj/xhXVNN/g68O6P9OsB1EXEpcC39W+vbzJpDwK3ApcCVknLv3iFduI+qoJ/PRMRlkg6uoK+2IiKAZUhD8ysBs1Z8isVJyzPnPPsHuLnY88EKkq4F3hoR85KSgWVIO2OeJemBscfXlQCcDPwks49ZSZmxawLMrGrPRMTuwK7Fboq9Oo60i+IrK4jplxFxraRLKuhrXBGxBqmobPl+naNCJ9QdwLAqLvZnFK+WankEIOlW4Oo6zm1mVsJU0vD0RTmPG4viwR3o/Gy2jJGiwJxn5i1FxLdJMx8mwsUfnABkq3MhoKNrPLeZWRmrAL+PiJ6/KyX9jTS9sAqLAcdUXRQYEe8AdgZmqLLfProN6HZNBhujzgTgp6RnE2Zmw2wt4Is5HUjaGzi8mnBYly6WI+6kGFHYv6r+BuT7kqbXHcREV1sCIOkRYJe6zm9m1oUvV9DHx4ArK+gH4HMRUdVQ/YfJ2x1x0P4JHFJ3EJNB3XsB7E8102TMzPppoYhYNKeDYkvibYD/VhDPVGDPCvqBvIV46vDNmhZmmnRqTQCKfa/fDTxRZxxmZiVkXyiLAuj3UE1R4BYRMVcF/axaQR+D8itJx9cdxGRR9wgAki4DPoQ3dTCz4VbJXWdRFPiVKvoi7V+Qa6LcTZ8JfKbuICaT2hMAAEnHAN+qOw4zszYqm39frNpWRVHgkhX00bd1BSp0A/DOzDUZbIyhSAAAJO0GfALwX7CZDZvbJN1TcZ8fA67I7OP2CuIY9gTgDGDt8Vayq8mkGa2eAjyY0X7uqgIBkPQr4C14eqCZDZddq+5wVFFgr99391DNgmoHUU0i0Q+/ADbpw8U/59qVc80cKlPI20xh4aoCGSHpHGBl4GDA8zzNrG5/lXRgPzqW9G9qrjmLAAAT6ElEQVR6Lwo8VVL23aikh0ijEcPkBmBrSZ+R9Gwf+l8ko+2k2YBoCnlb8+b8EFuSdKekj5A2M/hTP85hZlbC2aQi5b6RdAawU5fN/t1Dm3YxnAb8H2nXuDrdDXwKWFHSSX08T87Na841c6jkJgBVFKC0JOkaSZsCSwGfJ/1jnCgVq2Y2cT0AfBbYUFLfv/Al7UNairfMqOeTwDskVbGewOgYfkq66TqXwT7nvg34GfBmYHFJ+/fprh9IWxEDOWs6TJoEIIDdga/12P4kSVtXGE9HEfEyUuLxclIWtwD17WpoZpPH89sBS5pWRwARsQlwGK1X5jsP2FFSVSsKtopjLtL6AFVvByzgEdKd/l3AXcVjkIGJiA3psEteG09Imq3KeKoUEfMB7wA2I/2sHyKNFv1yvK2TA9gR2K/H8z0BzC/p8R7bm5nZKMXa/G8D1gRWBx4DrgLOlOQd8DJFxE9Ijzt6cbOkKrZ2rlSxWdVepOv5eDfET5AKKneR9PDz7YCtgBMzzr2NpJz2ZmZmAxER/6b3BZTOkrRhlfHkiojZSGtKbFXi8HOAjYpVeJkCnEXe3PtPZbQ1MzMbiIjYgrzVE/9SVSwV2ptyF3+A9YBDIiIAQhIRcTqwUUYAm0g6PaO9mZlZ3xTFf1cDr8noZgVJ11cUUraIWAK4CZipy6brSzpnZCXA3CH8HxXPIMzMzIbR9uRd/G8apot/4Wt0f/EH2A5eWAr4JPKmfawMfDGjvZmZWV9ExGLAbpndDFWtW0TMDLyvx+bvgCIBkHQHcGlmPHsUU1jMzMyGQlEkdxKwYGZXQ5UAkGaK9Lod9Ezw4ukCJ5KmnPRqBuDIiFhT0o0Z/ZiZWYUiYiqwBvCm4r/3AbcAF0oaxsK2ShTFbocCr8/s6h7gwvyIKvWejLb/haIIECAiFgSmAXNkBnUXsJWkYd9hysxs0ouI5YFjgRVbHPJn4POSbhhcVP0XEbOSLv7vqqC7b0javYJ+KlGMatwLzN5jFxdIWvv5wj1J9wJ7VhDbwsA5EbFdBX2ZmVmPIuLtpO1+W138Ad4KXBMRk2ZKd0QsSlrSuIqL/x3AvhX0U6XN6P3iD3AavFAEOGJv0hKNuWYBDo+IAyPi5RX0Z2ZmXYiIxYHfAXOWOHwq8IuI+GXxuGBCiogpEfEhUk3bqhV1+91i6+ZhkjP8D3AUjHoEMCIidgD2z+x8tMdIicVekh6tsF8zM2shIo4C3t1D07OBd0q6v+KQ+ioiNiKNYq9cYbfXAStLGppN6IoZDdPobfofwDWSVoLxE4AZgWuB5XOCHMfjpFWUTgb+KOmeivs3MzMgIpYDcp7p30Kq5bqmopAqV1yr1gG2LF79WKN/C0mn9KHfnkXEfqQ1/3v1bUm7wjgJQHGCzYE/ZJygE5GqKu8iba14N9C37R/NzIbYs8D1pGHrqyU9mdthRGxJmvqW43/ABwax10tR1PY60ky05UizysYzN/D/7d19lB11fcfx9xcQBJryVB6E8iCiIA9aaKJStD7V0mLBFooCtaCISHtUtBbaUz0oAqVVONgWqta2tlpaoWBpNEgtoAUtAglRAykFFAhoEKHKoyQx+faPmU12k93svXfmztzdeb/OmZOTzc7MdzfJ3s+dmd/3u2u57UZxu3lYrsvMXxni8ftW3lK/l2pf975rV+pl5qQbxZjgdHNzc3NrbPsR8DtT/VzudQNOr6meNcAHqtYzTa2nAU+MwPd+/HY/sNMwv+4Bv1cXVPy6Fo8/3sba976f4V4FkCRNtC3wTxFxRdnpbVCTjYQdRADnRMRl5bv02kTENuUcmo9Tffl5nZ4CjipXxo2MiPg5irBUxeXjfzNlAMjMNRRtBu+oeEJJUn+OAT5cYf+v1lTHmDcCN5YrC+pyEdWG0A1DAidm5rfaLmQS76Ha0r+kfPp/zKTPAEz4hIi9gVuAHSqcWJLUnzXAL2fm1/vdsRzO9giwXc01/QA4OjP/u8pBIuIIYEE9JdXqg5lZJXgNRdnR8EGKZx8G9W+ZefT4D0w7wS8zv0uRRp+qcGJJUn82Ad49yI7lFdxhvJDtDHylfFC8itPrKKZmnwXOabuIKfwS1V78Ac5d/wM9jfDNzP8CDgOWVSxAktS7uYPumJkfYzgDbDYHLouIgWujwtc1BAl8EDgpp7sk3p7frLj/gsy8bf0P9hQAAMp7IvOASpd+JEk92zsiqlzGfytwc13FjLMV8MXywbS+RMRzge3rL2kgTwHHZuaHR/jFH4pOjVVs8O4f+ggAwNi8gNdQDFiQJA3XGir0SMnMHwOvpLi8XbedGazT4Iq6CxnQMuDlmXll24X0oEpXxmszc9JJhn0FAIDMXJGZbwHOYHT+IiVpNrqragv18mf2icCZFIGiTn0PfcvMseZvbfoKMC8zv9lyHb2qcvt9yuca+g4AYzLzAoqOTZ+h/n9UkqRikl8tMvOjFC1zH6/rmMBh5YqDfrU1Lv5O4Lcy8zWjts5/Gv9KsQKjXzdk5g1T/eHAAQAgM5dl5knAwcCXqhxLkjTBM8Cf1XnAzFwAHEoxTKYOK8oVB/06D2hywM5y4B3AgU20Nq5bFtMIP9LnbqsorvpMqVIAGJOZ387MIyieD/AhQUmq7gOZubTug5bHfAlwfQ2HG+hqQmbeTNHWdtgeBc4Cnp+Zf5MjNNVvAH9NMUyvV2eU3+epDalf8R4U04quo0ghbfd1dnNzc5sp22qKF8dNhtxXfjPg4oq1Xl3h/FsAnxrC9+9e4GPAq4BNh/k9bHqjeNP+V9N8/c8Ap/RyvGk7AVZVLmF5PfAG4EUUzQxGqe+zJI2KO4FTM/PGpk4YEe+geFEZZKnZYVm9K+CvA5cAzx1g959S3BtfBvwHcFWOZhvfWkXE64BTKVZ47EgRGh8APg98PDPv6ek4ww4Ak540Yg7rRjruCuxC9XWO0jCcX2HfsynSeBuOBQ4ZcN+rGM7acU1ubBzwoswc5EGvyiLilcAVQD/r+r+cmYfXWMOubHwccFJMS/z+uO3hHOwZhFkjIrYGVmbmqr73bSMASDNFRFT5D7JdFuuwGxcR/wCcNODuv5eZn6ixHM0AZYOe+cCBPXz61cDxmVnnigI1rJaHACVJM1tm3kuxQuBjbLzHywXAkb74z3x1zYyWJM1wmfkk8N6IuAh4G3AAsCdwO/A1inXld7dYompkAJAkTZCZyygG5AxdROwG7EfRWnhRZv5vE+eVAUCS1IKIOIbidsJe6338hxRP9F+SU/SwVz18BkCS1JiImBMR11KsOthrkk/ZEXgzcFNE3BIRb46IzZussU4RsUNEnBIR10TEHRFxQ0RcGRHHRkS0WZsBQJLUpE8Ar+3xc+dRTDK8PyI+GBE7D6+sekXEARHxWYrBR58CDgf2B14BHA1cDiwp1/S3wgAgSWpERJwMnDDArrsAHwKWRcT8iPjdiNim1uJqEhEviYirgCUUVzI2dqv9AGB+RBzaSHHrMQBIkpry3or7bw4cSTGF9gejEgYiYpOIeF15a+Nmis63vV7efzbw72UfhkYZACRJQxcR21O8463LFkwMA5dGxAtqPP5Glc8yHBMR/0jRjvjL9H5rY307Au+rrbgeGQAkSU04lN7fFfdrC4pbC0sj4u8iYsthnCQitomI34+Ia4BHKB5kPJH+WihP5eiIaPQ12WWAkqQmbKy7YF02BU4GtgKOr+ugEbE78AcUzZHm1HXc9TwHeClw05COvwEDgCSpCU02+DkuIm7PzPOqHigi9gVuAHaqXta0tmjgHGt5C0CS1IQHKab5NeXMqv0DygfzrqOZF3+ARxs6D2AAkCQ1IIvRs2c3eMqfZfCH8sZ8FNithlp6sYZixHFjDACSpKZcQjFYqCm/NuiOEbEjcFSNtUznc5npFQBJ0uyTmT+l6IL3zYZOubrCvm8CnlVXIdNYA5zb0LnWMgBIkhpTjhN+GcXVgBzy6aq8o96utio2LoEzM/N/GjrfWgYASVKjMnNFZr6TYgzwXwKPD+lU91fYd01tVUxtBXB8Zl7YwLk2YACQJLUiM+/KzNMpHrR7J1Dnu+CHKBr1DOrpugqZxGrgMmBeZl42xPNslAFAktSqzHwyMy/JzP2B1wHzqf4O/M8z85kK+19JtWcIJrOCYjLgfpl5XGYuqfn4fTEASJJGRmZem5lvAJ4L/BGwaIDD/D3wFxXrWAZ8scoxxnkSuADYOzNPzcx7ajpuJQYASdLIycxlmfmRzJwL7AP8CdOvHlgJXAi8vew7UNX7gIcr7P8QcBawR2aekZmNrvOfjq2AJUkjLTO/A5wPnF9O/Hsj8GqKYPBs4E7gNuCi8p17beeNiCOA6ykaC/XiDopbGPOBWzKziYcJB2IAkCTNGJl5F8Wa+UbWzWfmonIewDnAWykGDo23imJWwBeA+Zl5bxN11cEAIEnSRmTmQ8DbI+Is4GDgQIr1+/cA12fmY23WNygDgCRJPcjM5cBy4Oq2a6mDDwFKktRBBgBJkjrIACBJUgcZACRJ6iADgCRJHWQAkCSpgwwAkiR1kAFAkqQOMgBIktRBdgKUShExB/hFYGz62E4VD3lpRKyqXNhgDqmw72kR8XLgAWAxsDAzv1tPWZJGRdQzMVGaWSJiK4qe3nPHbfsC0WZdI+z/gIXArWO/Zub32i1JUhUGAM16EbEF8CJgHute7Pdnw6le6s9yJoaChZn5w3ZLktQrA4BmpYjYGTgNOAo4CHhWuxV1xv2Mu0oALJqpk9Kk2c4AoFklIrYGLgZOADZvuRwVI1PvZl0guBVYnJlPt1qVJAOAZo+I2BJYALy67Vq0UauBpUy8ffCtzFzZalVSxxgANGtExHzgyLbr0EBWAkuYePvgjsxc3WpV0ixmANCsEBGHAIvarkO1+gnlMkTW3T64K/2hJdXCAKBZISL+Fnhb23Vo6B6nCHprbx9k5r3tliTNTAYADU25/O4XKJbdvZB1jad+AHw6M++r8VzfA3at63iaUR5lwx4F32+3JGn0GQBUi4jYDDiQdWvt55W/n2r53RrgS8C76ngHFxEPATtXPY5mjeWsu20w1qPgkXZLkkaLAUB9i4hNgP1Y90I/l+Kd/rMHONwDwGsz8+6KNRkANJ372LBHweOtViS1yACgaUXE85j4zv4Q4GdqPMVy4MVVushFxNeAw+orSR2QwF1MvH1gjwJ1hgFAE0TE7kx8Zz8X2K6BU38gM88bdOeIOAG4tMZ61E2rgTuYGAq+bY8CzUYGABERrwBOAQ6nvcvoDwJ7DbruOyI2B5bhbQDVbyXFyoPPAP/sbQPNFgaAjoqITYF3A++gmII3CuZl5sJBd46IwygeLJxTsY7vse4Bsi6OwR0/FvkgbKk83lPAZcCfZuZ32i5GqsIA0EHlKNzPMXpd8w7NzG9UOUBEvAy4Btimx10eYWKjmVsz86EqNcwmk0xSnEexpLPrkxQfBd6QmV9vuxBpUAaAjomInYAvAC9pu5ZJVA4AABGxA3AyxdWN5437oycoLuWOf7G/r+r5uqYcuHQwE58VeT4QbdbVgmeAkzLz8rYLkQZhAOiQ8rL/Qoole6NmDbBnZj5Y1wEjIlh3JSCBx20jOxwRsQ3rHhodCwV7tlpUMxL41cy8tu1CpH4ZADokIk4FPtl2HVNYkJm/0XYRqk9E7MjEQDAP2KXVooZjCXCwg4s00xgAOiIi5gD3ADu1XcsUXp+ZV7ddhIYrInZjYiCYC2zfalH1OC0zRzVcS5MyAHRERLwfOLftOqZwYWb+YdtFqB0RsTcbNpqqupKjaQ8Dz8nMNW0XIvXKANAREbEAOKLtOiZxcWa+q+0iNDrKVtP7smGr6S3brKsHL6ja0lpqkgGgIyJiGbB723WUVgFXAJe4jEq9KIdNHUARCMZCwUFMPWyqDcdk5ufbLkLqlQGgAyJiW+BHLZaw/lr7m5zMpqrKHgUvZsMeBZu0VNLZmfmhls4t9W2z6T9Fs8A+DZ7rMYq19mt7qbvWXsOQmSuAW8oNWNuj4BAm3j7Yh2Z6FDT5/0yqzADQDcP6e34aWMzEEat3u9ZebcnMp4Abyw1YewVs/R4Fewzh9P481YziP1j1aiXwLSZOSVvq2meNusz8MXBtuQFrO2Ku36PAQVLqFAOApnMf8NvAEkeiarbIzIeBq8sNgIj4eeA9wPvaqktqkgFA03ksMxe1XYQ0bJn5YETc3nYdUlPaelpWkiS1yAAgSVIHeQtA09k2Io5ruwipIS9tuwCpKQYATWdP4F/aLkKSVC9vAUiS1EEGAEmSOsgA0A1PtF2A1AH+P9OMYgDohjuBn7RdhDTL3dZ2AVI/DAAdULbrXdx2HdIst7DtAqR+GAC6wx9O0vCsAr7ddhFSPwwA3fGNtguQZrHF5XhiacYIJ7d2Q0RsCtxEMfVMUn0SeE1mfrXtQqR+eAWgI8rnAN4C+C5FqtfFvvhrJjIAdEhmLgXOarsOaRa5B/jjtouQBmEA6J4LgU+3XYQ0C9wHvCkzn267EGkQBoCOyczVmXkycCSwvO16pBnqk8BBmenaf81YPgTYYRGxPXARcAywdcvlSKMugaXAezPzP9suRqrKAKCxFQIvBOZSrBLYG4hWi5JGw+PAIoo+Ggsz87GW65FqYwCQJKmDfAZAkqQOMgBIktRBBgBJkjrIACBJUgcZACRJ6iADgCRJHWQAkCSpgwwAkiR1kAFAkqQOMgBIktRBBgBJkjrIACBJUgcZACRJ6iADgCRJHWQAkCSpgwwAkiR1kAFAkqQOMgBIktRBBgBJkjrIACBJUgcZACRJ6iADgCRJHWQAkCSpg/4fKWR+yk2rNWgAAAAASUVORK5CYII=;" parent="1" vertex="1">
          <mxGeometry x="320" y="240" width="120" height="120" as="geometry" />
        </mxCell>
        <mxCell id="TjRo9aIQS-ce4NooAczT-4" value="" style="endArrow=classic;html=1;rounded=0;" parent="1" edge="1">
          <mxGeometry width="50" height="50" relative="1" as="geometry">
            <mxPoint x="200" y="210" as="sourcePoint" />
            <mxPoint x="300" y="280" as="targetPoint" />
            <Array as="points" />
          </mxGeometry>
        </mxCell>
        <mxCell id="TjRo9aIQS-ce4NooAczT-5" value="&lt;b&gt;&lt;font data-font-src=&quot;https://fonts.googleapis.com/css?family=MONTESSARAT&quot; face=&quot;Courier New&quot; style=&quot;font-size: 18px&quot;&gt;USER&lt;/font&gt;&lt;/b&gt;" style="text;html=1;align=center;verticalAlign=middle;resizable=0;points=[];autosize=1;strokeColor=none;fillColor=none;" parent="1" vertex="1">
          <mxGeometry x="130" y="80" width="60" height="20" as="geometry" />
        </mxCell>
        <mxCell id="TjRo9aIQS-ce4NooAczT-6" value="&lt;b&gt;&lt;font data-font-src=&quot;https://fonts.googleapis.com/css?family=MONTESSARAT&quot; face=&quot;Courier New&quot; style=&quot;font-size: 18px&quot;&gt;WEBSITE&lt;/font&gt;&lt;/b&gt;" style="text;html=1;align=center;verticalAlign=middle;resizable=0;points=[];autosize=1;strokeColor=none;fillColor=none;" parent="1" vertex="1">
          <mxGeometry x="335" y="380" width="90" height="20" as="geometry" />
        </mxCell>
        <mxCell id="TjRo9aIQS-ce4NooAczT-8" value="" style="shape=image;verticalLabelPosition=bottom;labelBackgroundColor=default;verticalAlign=top;aspect=fixed;imageAspect=0;image=data:image/png,iVBORw0KGgoAAAANSUhEUgAAAgAAAAIACAYAAAD0eNT6AAAABHNCSVQICAgIfAhkiAAAAAlwSFlzAAAOxAAADsQBlSsOGwAAABl0RVh0U29mdHdhcmUAd3d3Lmlua3NjYXBlLm9yZ5vuPBoAACAASURBVHic7J13mF1V1YffmUkl1ARI6KH3IqAIiENXUVRUQFFQQKRZQEREUUD9BAVE7KhgQxQUUCnSlGpBeg81oaaRkARCQpKZ+/2x5sowTLllrX3K/b3Ps55EhH1/e599ztp1rTaEEKJ4dADj+tiKPX+u1OufLQ0s1/PfjAJG9/x92Z4yOnr+DjAP6OqxeT3/bAGwsOfvc4GXgVk9NhN4odf/7m1djnUVIoS2rAUIIcQArACsM4CtCQzLTtqQvAg8OYA9hQYIIgdoACCEyJJhwAbA5sCWPX9uhDn4ERnqimQR8DTwMHA/cG/Pn48BSzLUJVoMDQCEEKkYB7wJ2AJz9FsAmwIjsxSVIxYCDwH3YQOC+4C7sS0FIdzRAEAIEcWqwI7A23r+3Bp9cxrhSeCfwK09fz4EVDJVJEqBXkYhhAfDsCX8qrPvBFbOVFF5mQf8l9cGBbfy2kFFIWpGAwAhRKOsA+zeY+8ElslWTsuyABsMXA9cjq0QCDEkGgAIIWplNDa7rzr9bbKVIwbgSWwwcD1wNfBStnJEXtEAQAgxGKsAHwTejS3rjx78Xxc5YwFwE3AlcAkwNVs5Qggh8sxY4CBsOXkxduBMVnzrws4LfA6YgBBCCIEF3ak6/UVk76xk6QYDOqwphBAtxijgY8BVyOm3si3C+sDHsD4hhBCipGwEnI7Fss/a+cjyZXOAc4GtEEIIUQpGAfsC15G9k5EVw+4APoUlVBJCCFEwtgZ+gmWyy9qhyIppc7E+tDVCCCFyTTuwN5rty/ztDuywaAdCCCFyw0js41yNFS+TRdkT2A2CpRBCCJEZKwOnoEN9svQ2EztQuipCCCGSsSHwMyzaW9aOQNbatgC7PbA+QgghwlgL+9gqSp8sb9YFXAysh8g9ygUgRHFYEzgJ+AQwPFspuaCCxbafCczq9ecs4IVef58FdGMpcxf0/LfzMGfV1fN3gGWxw20dPX8Hy30wCjtYOa7HVuz193HASr3+XAV9V8EGp78Evgk8k7EWMQDqqELkn1WBE4HDsIN+rcQMYAowuefPvn9/NRNVAzMSmNhja/fz50rZyMqMV7FtqtNQIqLcoQGAEPllJeBLwJGUPwvfAuBB4F7g/h67F5u9l4lxwJbA5sAWPbYp5X++r2CxBL6NrdSIHKABgBD5YyR2xeorvLYUXSYWALcD/wTuBu4DHseW41uRDmzPfAss2M6OwLaUc1AwD9sWOAfLQSCEEKKHvTFnmPVhLk+bhmUZPAXYHSWcqYVhwDbYQPA3wFNk/xw97TEsNLUQQrQ8mwPXk/2H2cNmAxcBB6NrYZ6sDxyCte1ssn/OHnYdtgUihBAtx1hsObToV/oexALC7I5uKKSgA1shOAG4Fds+yboPNGpd2CrHyq4tJIQQOaUd+AzFncm9BPwBCz083rltRP2Mx57FRcDLZN8/GrFZwNHYuyGEEKVkU+DfZP/BrdcWYHv5B6EUsXlmFHaW5DfYQC3rflOv/QttCwghSsZwbMl2Idl/ZGu1hbzm9JfxbxIRzGheGwwUaWVgEbal1GpxL4QQJWQHbJ886w9rrXYL8HHKeQ2xVVkOiyJ5K9n3r1rtAWD7gLYQQohwlsJmMkvI/mM6lL2I5RjYIqQlRJ7YEOuXM8i+3w1l3Vi/1AqUEKIw7EH+7293A/8ADkDLra3IKOzZ34D1haz742D2FPZOCSFEbhkJfJd8f1DnAWcDGwS1gSgeG2B9Yh7Z98/BBqxnocGqECKHbAzcRfYfyoFsKhaRb2xQ/UXxWRaLQPg02ffXgewBtFUlhMgJbcCngPlk/3Hsz+7t0acwvKJWhmPhev9L9v23P1uADVSU00YIkRnjgSvJ/oPYn12D9k1Fc7QBe2Jhe7Puz/3ZFSiKoBAiA/YCppP9R7CvXY9dPRTCkx2xQ6NZ9+++Ng14V2C9hRDif7RhQX3yFoP9X8BugfUWAuBt5G8g0I1dbVQoYSFEGGOBv5H9B6+33YZFfBMiJbtjfS/r/t/brkKHXGtChyeEqI+tgEuBtbMW0sODwIlYuN5WZSwwETuLMQ5YsefP6t9XxE62j+a1Q5DLYTPFDl6LdjgHcyCvAK9iqzvzev6/eT02A9vymdlj03r9fSY2C2012rDB52nAJhlrqfIk8AHs8KsYAA0AhKidg4CfYo4ka2YDJ2N6lmSsJZp2YF3MuUzEBl9r9/x9IvkJV7wYmAI8DjzWyx7HgtiU/TkNA47C+mUeZuCvAIcDF2QtRAhRXEYAPyT7pc0K5mR+QD4+sBGMBXbGUiX/HFteLlISm4FsEfAI8CfgS9g5jeV9mix3jMPel8Vk3+4V4PvYlUYhhKiLlclP8pRryM8SqwcdWDCXo7BZ2mSyb+OU1g08CvwOOBbYCRjTVIvmi83Iz9XBW4CVYqsrhCgTGwJPkP3H6wnKccBvBDa7/xpwNTCX7Ns2b7YIc1YnY1fuhjXS0DnjfdiefNZt+zgKfS2EqIEdsENdWX6wurAsaEsH1zWSCdjZiYt57ZCdrHZ7GZtFnwBsQ3HPbY0mH1kxZwOdwXUVQhSYjwILyfZDdQ+wbXRFAxiG7W+fhd1QyNqBls2eA34M7IptoRSNN2Mn87Nsw4XAR6IrKoQoHp8j2+A+C7BkPSOC6+lJOxYY5hws2VDWTrJVbBbwG2x7qEiH3IZhKxoLyK7turH3TAghGA6cR7Yf9Bspzh5lO3Zo7QfI6efBZmK3Jt5Bcc4NbAjcTLbt9guKNXgSQjgzBriW7D5CRcpqtiZwKvlOFdvq9hzwTfITrGow2rAbEFluuV1NuW5fCCFqZDmyveb3IBZdMM90YCFfLyY/d7tlQ1sXdoDwIPIRvGowNsXOvWTVVrdg3wIhRIswDriDbD443dieeTU0bR5ZG/gW8DzZOzNZczYd+Db53mIajW0pdZNNG92OfROEECVnAnA/2XxopgLvjK9iw2yHzfazvrIl87duLFnOzuSXvbAcC1m0z/3Yt0EIUVLWxCKwZfGBuRyLLpg32rGALbeQvZOSpbH/YAlz8pg+dzxwJdm0yyPAGvFVFEKkZj0sYUvqj8oS4Mvk76DfKOAI7KOXtUOSZWOTgE8CI8kXbcBXyeZa7hQsAZUQoiRsjJ2QTv0xeQHYM0H96mEEcCTwDNk7IFk+7DngeGAp8sU7sZgHWbTHxgnqJ4QIZj2ycf53Yilr88Iw4BBaL/GOrHZ7Arv1kSfWBu4mfVs8h1YChCg0q5NNMpLfkp/ZVDuwL1rql9VmS7CBYp4YhQXuSd0WT5OvQbwQokYmkP7A36vY8npe2J3sbjzIimvd5DML5dHYO5ayLR5BtwOEKBTjSO/4XgR2SVG5GlgP+AvZOxJZcW06sBL5Y1fsXUvZFvdRsjgBeTuRLIQXywF/x1KopmIK8G7goYS/2R/LAidh4YWLlFSoGeZj5xqmADOwg5czscNjvW1Rz78/F5vhdgHzev7Z8tg3cTS23NyO9aMOzAmuhF3hHN/rf08AViOfTtKLb2Kn8fPGpthVwbUS/uYdWLbLeUP9i0VAAwBRRsYA1wA7JvzN27Hl0ukJf7Mvbdi+7f9hTqpsLMJCJ9/f8+eUHpuMOfssWQ5YH1t1Wb+XbQCMzVCXBy8Aq2DnAvLGBCy2RsrU2bdiNxPmJ/xNIUQNDCd9Yp8/k/1hvzxkVvO0udgg7jTgw9hsryhZ7vqyFvAh4HTgemAO2bdvvba1e6v4MYb0W11XoyyCQuSO1Cl9v4ctEWfFcCzAUJa51T1sCnABdsBrS7Jt02jasJWBA4CfAo+TffsPZYeGtIQfHcD3SdsmP09SMyFETZxEupe/G/hCmmoNyLZkm0GtGZsLXAIchsKugt1zPwy4CNvOyPr59LVj4qruyhdJm0zoy2mqJYQYjANI9+J3ke01v1HAmRQvWc+92DJ4J1o+HYx2bMn9q1ibZf3cKsBnQ2vsy1Gk+xZ0Ax9JUy0hRH/sBCwkzQu/BDg4TbX6ZROKNet/EDgF2CigLVqFidiNjlvJLlXuO6Ir6cwBwGLStM2r5OfqrxAtxYakixP+KhZNLwvasGXYIuz1TwJOxQYrwpf1gC9hd9JTPc9FwIopKufMvpj2FG30AnauQwiRiBVJF+VvIfD+NNV6AysDV9SgMUtbAFyMRR3U9eI0bAOcC7xE7LO9LFWFAtgLeIU078CT5DPVtxClYwS2JJrixX4ZizyWBe/FAttk7eAHsnuwk/vLRzWAGJJlgcOxIDXez7eLtPE0ItgNe4dTvA+3oPMtQoTzQ9K80AuwD0hqOrADc1nt+Q5mS7DT6tuF1V40ytbYVVivWPk/Tis/jN1It312TqI6CdGSfJQ0L/IiskmGMo70wYxqsZewJWftdeaf8djhy2bi5V+H3TgpC3uS7rDwJ9JUSYjWYivS7OktwaK3pWZb4KkG9Ebac8AJaJm/iCwPnAhMo75n/huyj24Zwb6kuT47H9giUZ2EaAnGYgdtol/eLuCgRHXqzaHk65T/dOBYLDmOKDajsHMCQ2XHvBN4X0YaU/Fx7B2Pfn8eB1ZIVCchSk078DfiX9pu0gf56QB+5KDdy17ArpqNiay0yIxtgeOxswIXAz/DBnopE+pkTapgQVdg3y4hRBN8gzTOL3V436WxlKZZO/0KluL0ZOxUuRBl54ukea9OTlUhIcrIXqQZrX8vVYV6WBW4y0l7M9YFnI+lfBWilUiRQKiL4kVSFCIXrARMJf4lvYK0Geg2Ix+H/W4Dtg+uqxB5pR0LdBT9nk3HbmYIIWqkjTTL4/8l7YnnPbFseFk6/qeA/VHUPiHGALcT/879Fb1vQtTMZ4h/KScDE1JVCNiPdPHJ+7Nu7C7/MtEVFaJATACmEP/+ZZlFVIjCsAnx9/3nApunqhAWwChVhrL+7FEsFa8Q4o1sAswm9h1cQNpvjhCFYyTxKW9Tp/A8muzC+r6KnUQeEV5LIepjBBac53fAQ9igfG7P3y/AgnGljK2/G/ErdHdh3zghRD98l3inmHIp7niyc/73YAcOhcgbH8CC5QzVhx8jbSbOo2vQ1Kydkaw2QhSIPYh3lr9KVRng1KA6DGXd2EBKMw2RN9qB71B/n/4O6YLq/KYBffVYF9kkGRMit4whPtTvPaQ78Z+V85+GxU4QIo+cQeN9+9uJNI4iJr1yb3sKCwQmhCA+KMcLwMREdTk+uC4D2Z+BFRPUT4hG+ADN9/FU2wHrALMc9A5mqYOPCZFLtiM2S1cX8K5EdTkqsB4D2RIsY5/uGYu8Mhzbz2+2rz9JugOtexD/XdohUV2EyCUjgAeIdZBfTlSXg0iTaay3zcQ+VELkmf3w6/P7JtT9VUfd/dn96IaOaGFOIfYFu4I0M+P9SJNrvLfdBqyRoG5CNMuF+PX7CxLqbgeuctTen301WW2EyBGbYvfUo16sacDKCeqxJ+kj/P0cnfIXxeFR/Pr+I4m1j8fi+Ue9ywuBjZPVRogc0A7cStxL1Q28J0E9NgVeDKxHf/U6JUG9hPDkJfzegZcSawd4J7FXlP9NumuOQmTOp4l1lN9PUIdVgaeD69HbFpB2/1MIL4o+AAD4YR0aG7Ej0lVFiOwYi13Li3qRHgRGB9dhKWwPPpXzfwHYKbhOQkTxCH7vwqTE2quMAu6rUWMjNhsYl6w2QmTEj4h7iRYAWwTrH0aaVMVVewRYN7hOQkRS1EOAfdkS27OPetfPSVcVIdKzGbFZ8Y5JUIfIAUxfuxc7hCREkdkfv3div8Ta+/J5/OrS1xZjmQmFKCXXEPfy3ET8lb8DA/X3tTtQZD9RDkZQW/KfoexJsr/90g7cTNx7f326qgiRjvcT99KkuEqzFfBKYB162y3AssH1ESIlH6T592Kf5Kr7ZwNsuzHq/U9xg0mIZIzA9y5wXzsxWP9Y4pMVVe0GlChElJOzaPy9+E4GegcjMkrg42S/0iGEG18k7mW5B4s1HkUHcF2g/t52LXbaWIgy0gGcSf3vxZk9/22eGE7srYDj0lVFiDhWAuYS85IsAbYN1n96kPa+djPp0hULkSUfAJ5g6Hfi8Z5/N69EJjKbg84AiRLQyIi/nplBJO8lNgJY1f6L9vxFazECux1wIXbVdX6PPdLzz/anGIlyzibuu/DthPUQwp1ViDs49wSxM+ZVgBlB2nvbvdgZAyFE8RgDTCbm2zAfmJCuKkL48gPiHOfegbrbgKsDtVftEXTPX4iisw9x34jvJayHEG6sSVzUrOi7sscG6e5tLwDrB9dDCJGGqBgnC4DVE9ZDCBd+RswLsRjYPFD3psTf918A7BBYByFEWjYhLsrpjxPWQ4immQi8SszLEJnpbyS2Jx/p/LuBAwLrIITIhh8T881YBKydsB5CNMWviHkRZhF7YO6MIN297fhA/UKI7FgRy+oX8d04L2E9hGiYDYi7G/uZQN3bBuqu2i8C9QshsucYYr4di4H1EtZDiIb4OTEvwEPERfwbBtwVpLtqt6HwnkKUnWHAA8R8Q36SsB5C1M3KxB2gi7z29+UgzVV7ATsXIYQoP1HXAhega8Mix3ydmI5/B3GpfqMzey0B9gzSLoTIH21YdM+I78kp6aohRO0sBcwkptO/I0hzG/D3IM1V+0KQdiFEfnk3Md+TGcDohPUQoiaOJKbD3xKo+dAgzVX7M3ErF0KIfPMvYr4rh6eshBBD0Q48TExn3yVI8zLA1CDNFWAa2q8TopXZnZhvy6PYN1eIXBB16CUy5G/knf9uYK9A7UKIYnADMd+Y96eshBCDcSsxnXynIL3rEpenoAKcFaRbCFEsdiTmGxO5NSpEzWxNTAe/NlDzn4M0V4B70H1/IcRrRB003jplJYToj58Q07n3CNIbtS9XwfIfbBakWwjROCtit4k+BxwHHII50GEJfvudxHxvFBhIZMoYYC7+HfteYk7PdwD3B+it2ikBmoUQjbM9cBmWUKe/d3Ym8E1gpUANbcR8d+Zg32AhMuFgYhzpQUF6Pxqkt4KF/xwRpFsIUR+jsOx8XdT2/k4nNtroJ2rUUa8dHKhZiEH5N/4d+lliHGkHMClAbwX7yOwYoFkIUT9LAddQ/3vcDRwWpGk48EwDmoayfwbpFWJQNiPGmZ4QpPeQIL0V4JwgzUKI+vkdjb/LS7BzQhF8qQldg9mmQXqFGJBz8O/I84DlA7SOACYH6K0ATwFLB2gWcXQAKwBr9dgKPf9MFJ8P0vw7/QS2iuDNCsBLDvr62vcCtAoxIKOB2RSnIx8RoLVq+wdpFo3Rhjn1PYHPAD8CrgMew7IyDpb4aUHPv/NYz3/zo54y9uwpU2Gd88/d+LzXxwfp+56Tvt42CzvzIEQSPoZ/J+7GMvN5M4qYvbcKFoxDTiF7NsUc9aXYxzBqsDer5zc+DWySpGaiHt6M37N+jph4Hhtg3zrvvnlAgFYh+uUq/DvwDUFaDw/QWsEO/m0TpFkMzjAs29oFWM6FKIc/lE0FfouFfU5xn1wMznH4Pt9Dg3Te6KyzAlwRpFWI1zGWge/UNmMRI9h24k7+nx+gVwzOVsDZZOv0BxsMfLdHo8iGX+L7TCcRk3Qn4jryq9gZAyFC+ST+nfcFYvaw3hegtYIdVlwlQK94I8OwLad7yN7J12r39GjWqkBa/oD/s9wnQOcoYraqDgnQKsTruBb/jnt2kNabA7RWgJOD9IrXGAl8CjuRnbVDb9Qex+6VK0BUGs7H/xn+O0hrxC2qq4O0CgHAysBi/DtuxIGqtwTorGCrFcsG6BXGMOxA37Nk78C97BngaLQiEM3xxDy/zgCtEXFUFmM5D4QIIeI63a1BWi8O0FrBgnmIGHbE8kBk7bCj7B4sNr2IYVtintuVQXr/FaD1U0FaheAG/DvsJwJ0TsQienlrnY6Sb0SwInAeMdej8mbdwC/QTC2KiKQ73cB6AVoPDdD69wCdQrAK/k51AbBcgNb/c9ZZtWMDtLY6Hyb27n5e7QVgP4f2E68n6trv6QFal8dO73vqXAKMD9AqWpyj8X+p/hygcxjwfIDW57AIiMKH0cC5ZO+Is7YfoyhunozCrmR6P6dpWEIfb/4aoPXIAJ2ixfkb/h31wwE69wnQWQG+GKC1VdkAv5CtZbAHUGRBT04k5jl9IEBrRFRVBQUSrowGXsG3k75CTBKdK511VrAEHhFJilqRfbE4Clk73bzZXCyRjWie5YnpYxHX7JZl8PwUjdh8tKokHHkX/i/TxQE61yDm8F9UnIJW49NYCOWsnW1erRv4fMOtK3pzBv7Ppws7YOzNpQFa9wzQKVqUiKAVHwrQeWqAziXAOgFaW40TyN7BFsVOR0mmmmU1/A/YVYCvB2jdP0DndwN0ihblEXw750v459tuB5521lkBLnLW2Wp0AD8ne6daNDu3p+1E40REBnwW/4BOY7Ble0+dDztrFC3Kuvi/RBFO9W0BOivAWwO0tgrtwIVk70yLahcQk4ymVdiGmOeyR4DWPwboXHugH1OnErXyroAyIyJrRdwouA/4T0C5rcJZwEeyFlFgPgr8IGsRBeZO4K6AciO2L68KKPOdAWWKFsP7VH03/pn02om5+3+0s85W4iSyn0GXxU6ss+3FaxyJ//OYif82wAT8I2H+1VmjaDFG4r83dUeAzp2dNVZ66q2rf41xGPkO69sFzAam9Nhs8n07oRulem2UZYGX8X8muwVovctZ48soE6Vogu3xf3G+GaDzJwE6fxWgsxXYlZirmI3YdOy8yYnYHfvNGDya42hg855/90Tsqur0HNSjgmV66xxEuxiY8/B/Hj8J0PmtAJ3bBegULcIX8O+QOzprHEbMR9pbZyswnpitmHrsP1jOhs3wuUrXhg0KjgVuy7huz2EpuUV9vBX/ZzEN/1saOwXoPM5Zo2ghLsO3M87Gf+9sV2eNFWCSs8ZWoB24jmwc4wxs9rRReC3tN76F7QNnUder0SHuRrgP/2exi7PGYcCLzhovcdYoWoQ2/GfWEdf/znLWWAFOCdBZdr5Gemc4DQswlEWK5jHA54Bn6tDrZV9OUL+yEZEf4EcBOv/krHF6gEbRAmyA/wsTcZDpwQCdSsxSHzuQdt//ZSw508gUlRuCkcCX8D8sO5gtRvEp6mU9/J/DswE6Pxmgc/0AnaLkHEz+O+KaARrvd9ZYdoYRs7w6kF2KPfe8sRaW3jpVO9yN/3Za2YnIQLmxs8YNAzR+wlmjaAF+gW8nnBag8XBnjRXs/rqoneNI4/Bewa4X5p2DiLl21p99LlGdysJX8H8Gn3HWGLH1+nNnjaIFmIRvJ4w4jBIx40pxkKwsrALMId7RPYSd6i8KGwH3Et8u87CkN6I2IrY1/xKg0/u79lCARlFixuEfyMX7OsoI/HN+3+ussexcTLyT+xvZHPJrlqWBa4hvn9+nqlBJ8B6YzcV/K+Z4Z43d2DddiJrYDf8P1fbOGncO0Hi6s8Yysx3xzu0CYHiqCgUwgjTJkN6cqkIl4Kv4t/8OzhojArBFRC4UJeVYfDvfAvxDUka8yJ3OGsvMX4l1aj+jHPfd24lPh3xZstoUn63xb/+vOWsciX0zPTUe66xRlJhf4tv5bgrQ6L28OpdizzZTsgWxsf7/TLlOuHcQk+61at1YtEIxNO34B3GK+L7d7Kzx/ACNoqTcgW/nO81ZXzv+h88UMat2/kCcM/sH+bjf780o4Ebi2u3CZDUpPt5nVxbhf07lNGeNEUnYRAnpwH/5aV9njVs466tQjCtmeWAD4oL+PAOsmK4qyVkJCx4T0XZLUMCXWvkU/u3/NmeN+znre4VeuQvKsLcmYtgAm6144h1cJyJRzzUBZZaRw/FPggLmwD4CvBBQdl6YCRyA1dWbDsyxiaG5PqDMbZ3Lu8+5vNFogChqYH8CR55OXOCscYqzvrIyDJhKzAz2KwnrkTURB1grWCbGiMFZGXkC37a/wFlfB/bt9NS4X7VwrQCIgfA+TPQg0OVcpve1m386l1dW9gAmBJT7APCdgHLzyunEBGdZBdg9oNwy4r0K4L0C0IV/H/nft10DADEQWziX572UtQKwtnOZGgDUxkEBZVaAo7EEN63CYqzOlYCyDwwos4zc7Fze+sCyzmV6fzu9v+2ihDyK77LTMc76Op31VYAtnTWWkeXwX5KMWDotEr/Hvz3nA8ukrERBiUi6s7OzxmOc9T3irE+UjHZgIb6dbhdnjZ911jcX7ZvWgvep5Ap2GG7DlJXIGRthS73e7fqBlJUoKG3Ai/i2+/HOGr0jsi6kZ/VfWwCiP1bF/w629w0A76Qw/8H/jEIZ8R7IgcVeaOVZySQsvbE3Cvs6NBUsPbAneb8JMBI7J6IBgOgX7731mfhf6/Lex7rLubyysmtAmd4BoorItwLKjBislRHv4Djek5OI7+faoAGA6B/vAcBk5/La8X/JlAFwaFbF4kN4cjtwj3OZReRu4E7nMjdGaYJrwXsAsC7+24lTnMubCBoAiP6Z6FzeFOfy1sM/5Kb3MlsZiVhS/k1AmUXltwFl7hxQZtnwHgCMBFZ3LnOKc3laARADMtG5vCnO5W3kXN6r2K0HMTjeYU4XYfkEhHEh/tcgd3Iur4xMxg4CeuK9Uvakc3kTQQMA0T953wLw1vcgMWFZy8bGzuX9i3KH/K2XmcC/ncv0HiyXkQrwmHOZ6zmXN8W5vImgAYDon4nO5XkPACY6l6fl/9rwvqp3g3N5ZcC7TVr5emU9eA8AvOPtT3EuT1sAol86yP/+1UTn8iY5l1dGVgBWdi7zH87llQHvNpkALO9cZhnxHgB4bwF4T6LWADo0ABB9GYsle/GiAjzlWB7kf4uijHjPJBcB/3Uuswz8B/9zAFoFGJoirABUHMsbBozVAED0ZZxzedOwyFOeTHQuTwOAofF2Ik9ggwDxehZhbeOJBgBD4z0AWBvfq4ALsW+pJ+M0ABB9WdG5vOnO5Y3F4tF7ogHA0Ix3Lq+VI/8NhfeNFO+tmzLiPQAYjv9kag3V7wAAIABJREFUaoZzeRoAiDfg3WlnO5e3lnN5L6OT6LWwtHN5unY5MN6DI+/sdGVkDnYLw5OVnMub5VzeihoAiL54rwB4v1TeeeinOJdXVrwzy3kvZ5YJ77bxHryVlWedy/NeefGeqGgFQLyBvK8AjHUub4pzeWXF24m85FxemZjnXJ7SAteG92TFewCgFQARjvcKgPeo1XtZTTPR2vB2IhoADMzLzuVpAFAb3ueV8j4A0AqAeAPeKwDendZ7BcB7haKseOdemO9cXpnwHhxpC6A28r4C4D2Z0gqAeAOttgLg/dKXFe9vRbdzeWXCu230na8N71P2eT8EqBUA8Qa8r9jl/QyAVgCEEOA/AMj7FsDyGgCIvoxwLm+Oc3l5X6EQQhQT7wGA92TF+1s6UgMA0ZeRzuW96lyed1xz71G1EKKYeH8L8v4tHaEBgOiL9wqAd7hX75fKOw+4EKKYeIcsH+VcnvcAQCsA4g3kfdSad31CiGKS92+V92RKKwDiDeTdweZ9hUIIUUy8VwDy/i3VCoB4A3l3sN76tAIghAD/b4G2AEThyP2o1bk8rQAIIaD1vlXaAhBvoNVWADQAEEKADgEKkXsHm3d9QohikvcVAA0ARDgK+SqEaEUqzuW1OZfnjgYAoi9dzuV1OJeX9xUFIUQxyfuM3X31UwMA0ZdWGwB4v/RCiGKiAYBoeTQAEEK0Irk/te9cngYA4g14d9rFzuVpACCEiCDvA4DhzuUt1gBA9OV5x7Lm4b8MlvdRtRCimOR9C8B9gKIBgOjL445lPepYVpW8v1RCiGKiFQDR8lzhWNbVjmVV8Q7WsYxzeUKIYuKdanyBc3k6AyDCuQx4yaGcJcCvHcrpy2zn8lZyLk8IUUxWdC7P+1u1rHN5r2oAIPoyG/iWQznn47udUEUDACFEBN7fglnO5a3gXN4cDQBEf5wN3NrEfz8J+IKTlr54v1Teo34hRDHx/ha84FzeWOfyXtQAQPTHq8D7gfsa+G8nA+/FZxuhP7wHAFoBqA3vMKn69gyMd9t4P7uy4j0AyPsKgAYAYkBmATsAF9Tx31wNvBV4LESR4b0FoBWA2vC+fbG0c3llwrttvA/OlpVWGwBoC0AMynzgQMyp/xl4pZ9/ZxFwFfAe4F3AjGBNWgHIBu8TzRoADIz3zRTvZ1dWVnYuz/tb5b4FMMy5QFFObgP2wfJbb4W9KMOAZ4FHgLkJtXi/VKs7l1dWdP0yHd6nvbUCUBsTncvzPgPgvgWgAYCoh4XAfzLW8KxzeWs7l1dWvAd5E5zLKxPebTPHubwy0o7/AMD7W6VDgKLlecq5vGXwX/orI1Ody9vQubwy4d023s+ujKyGbyTACjDFsTwwjZ5oACAKxxz8Z6PrOJdXRjQASMdGzuV55vcoK+s6lzeD/s9MNcNazuVN0wBAFBHvVQANAIbG24msgxIx9cdI/LeltAIwNN5t7v2NGoP/GYBnNQAQRUQDgPR4X+0cAWznXGYZeCv+SV8iknKVDe9vwGTn8tZwLu8VYJYGAKKITHEuz3v5r4w8h//Wy67O5ZWBXZzLm4O2AGphA+fyvCcp3gOA50DRuEQx8X65NnMur4xUgIedy/R2dmXAe1D0kHN5ZWVL5/KmOJfnPQB4BjQAEMXkEefyNsPiGojBude5vB1QIKberAxs71ym9zMrI2OA9Z3L9N528R4APAsaAIhi8oBzeaPwP3ldRv7lXN5w4CPOZRaZj+A/EPV+ZmVkc/x94f3O5U10Lk8DAFFYnsI/2dBWzuWVkWYyRA7EgQFlFpWDAsqMeGZlw/vdn45/SPSNncvTFoAoLBX89zY1ABiaJ/E/ULYt8CbnMovINsDWzmU+h/9edBnZwrk87xVK8I+b8RRoACCKi/dLJidUG1cHlPnlgDKLRkQbRDyrMuI9+Pde/l8FWN65TO9zVEIk5RhsJcDLZgFtSWtQTPbBt90rQBf+S5xFYlOsDbzb9X0pK1FQRmLZEj3b/VBnjbs661sAdDhrFCIpe+D/wdR1wKFZGksK5d32v09ZiZxxMf7t+Qp2ul0Mzk74t/1bnDUe7azvvmrB2gIQReUurDN78nbn8srIy8DfAsrdn9aMC7AbsG9AuVcB8wPKLRve7/xi/LcnvW8o/W/5XwMAUVRm4R+eVgOA2vh1QJltwI9orfwAI4AfBpX9m6Byy8ZOzuXdi38SIO/tsUnO5QmRCb/Cd2lMIVNrYwQwE/+l0wpwcsJ6ZM2pxLThDPzzCZSRYcA8fNv+HGeNbcALzho/5qxRiEw4Av+Pp3dM8LLyXWKc1xKgM2E9smIXrK4RbXhWwnoUmW3xb/sPO2tcJ0Djts4ahciErfB/OT6ZtAbFZW3iHNhzlDtE8HhstSmi7RbjHzWurHwB//Zf01nj/s76uoFlnDUKkQkdWERAzxfkD0lrUGz+SIwTqwA3YSGay8Zo4Bbi2u2idFUpPDfg2/bPBGg801mj7v+LUvEPfF+QOWj/tFbeSpwjqwCXUa77ysOAvxDbZt5X0MrK8sAi8j/4uslZ44UBGoXIjK/h/xFVnvrauYJYh/YLynFbqR04j9i2ujxZbYqP99J6BfiMs8aIFc7PO2sUIlO2x/9FPjtpDYrNFsREsettl1Ds7YARWKCjyDbqRuGs6+G3+D8D7wPEmwdo1FVnEUYHMAFYKvFvvojvS/J4Qv1Fpx24g1jnVgGuxaIQFo1lgOuJb587KMdKSQo68L/GOjlA56HOGrvQAUDhzGbYQZVHeP2p8BeBS4GP4p/jvC+X4PuiVGjt2PS1sh6WbjbauVXtQSxuflHYDMtamap9bsKujYnB2QH/tv9pgE7vVYqHAzSKFmU54Hxquwr2MBbyNIrDa9BQr50QqLfotGH7nfNJ59yqNh84OL6KTXMoFhEudfu8hL0PSmw1MGfj3+77BOh81lnjbwM0ihZkHeqf2SzG/5BMbz3eL/S9QVqLznjgOtI7tr72F/J5331t7DBe1u1zBTAuuK5FpAP/GAyLsQmRJxs4a6xgGVSFaIoVgEdpvBN6p8qs8lgTmgayzYO0FpWdiQtg04jNB75MPg4IjgZOIptZ/0D2NHZIVrzG7vi38y0BOiNWNRUBUDRNs/vtC4D1A3R5B8yoAKcH6Cwi7Zhzi4r816w9DxxHNocEl8Yiyk2tQ29KW4S1jbYEjPPxb+MTA3R63xqZS7liaogMeBs+nfGPAdoiDvY8jU5WL40F5MnakdViL2CDtk1CWuL1bNrzW96JWqLsd+RjpSRLRmGBvrzb1ntC04b/gPJKZ42iBfkDPp2xG1jdWVs7/odmKtiyd6uyFnAP2TuvRux2bOa7JT6DuHYs98QXSHPtMcL+g13TbVU+iH+b3hOgc5MAnV8M0ClaiBH4jp4PD9D4Q0d9Vft5gM4isD0wjeydlofNBP4EfAXYFxsUDLZdsHTPv7Nvz3/zJ+LSH6e2p3vq1or8Ff/2PClA53EBOrcL0ClaiPXx7ZA/DNC4i7PGCpYvfNkArXlmL7K54pfauoHZwFM9Nrvnn2WtK9rm0HoR4dYi5gzLhgFaveP/v4Tym4gm2QnfTnlpgMYOYLqzzgrw6QCteeUA/JOkyPJnC4EP0Dp8E/82jLgqPA67Vuip8+qBfqzVDziJ2lnkXN6rzuWBhbr8c0C5R9Eap6g/gwUL0Wyh/IzEstcdmLWQBAwn5vrxnwLK3Av/yKk3OZcnWpA18B2VfjdIZ8RtgAqxkQzzwOfIflYqS29dwEGUm/3wb7du/JP/gN2Q8ta6TYBO0WK0YQeIvDpl5PLjw446q3ZJoN6sOYzW2PuW9W9LgI9RXm7Av81uDtA5Ejtz5KnzeVpj9VIk4Pv4dMpXiA3acqKTzt62GFsFKRtHIucvs0HAfpSPzYjp3xH5KN4RoLNVbzGJACZih4ea7ZSnBetcjZgTv2cE607Nh7El4KydjywftgjYk3LhnVGvgs3SIyYw5wZofX+ATtHCfIPmOuTTwPIJdP6tSZ392UuUJ8HKLvgM5hqxP2D7zi9m9Pt5tjnY7PKijH5/HvAmysHa+J+orwC/CNA6ApjlrHMh2YTHFiWmAwsr2UiHnA9snUjn/g1qHMpOTaQ/ks3Ixvk+x+vPfqwF3JaBjrza3cB6vdpnL2BKBjpm9NFRVH5MTPvsEKD1vQE6/xagUwhGAr+mvs74PPDWxBojItnNptiBgVYhJmTyYNaNBX7qbzYyCtunTO3k8mbnYRkF+7I08LMM9DxEsfv5eGIyM04K0uud/KdCXPp1IWjD7hA/xeCdcAn2AcsiBvmpQ2hr1E5IWQlHRgD/JK0jmQnsXYO2fchXquFU9jwWo76W9kmdeOivFDdWzGnEtMnnArQuQ0zkzXUCtArxOkYC7wF+igWcmIQlS7kMe1nWyk4aq2ABh7xfrGn0P1vLO6ln2n8HVq1D3/LYYLEVbiV099S1nvMwq+EfJnYo+3od+vLCOGKy/s3BnLU3BwZovStApxCF4wJiPozHp6yEA0eQ1nF8h8bzj+8M3J9Yb0q7H+hssG2G43cdtxbrpngnyc8kpi3OCtJ7VYDWoq5SCuHKdsR8DGYDYxPWoxm2BBaQxmEswCeoTDs2M3oike4U9kRP23gsq3+cdM/0RbJdyauHNYhplyXYNWhvJuB/U6E7SKsQheQ/xHwYz0xZiQZZCjvQlcJRPA+8xVn/CCwXQ+qDi572DBZwyTvHwk7YQDRFHW7FP0Z9BOcRU/8/Bun9SoDWfwdpFaKQfJiYj8IC8j8zSrXv/wSwbmA9hmOR6m5OVB8Pu7lHc2RypU0Z+iCul30jsB4ebEJMALAKMVf/Ooi55nlMgFYhCksHdjgx4sPwm4T1qJf3k8Yx3E99h/2aZUssapp34BQPm9Wjbcuw2r+R1YjJf9HXlgA7JqpTI1xGTL2jZtTvDtDaRdp3UYhC8HFiPg5dwFYJ61ErY4GpxDuF/5LdWYhhwO5YwJcsrxA+36Nhd7JbJp9Amq2eSVjshrzxduLq/O4gzZcHaL0xSKsQhWYYcQfKbiV/GbfqDdTUiN0DrJCqQkPQDmyLXT29iNgzA8/2/Mbnen4zL3flxwMPEP/cT09VoRoZRtytkduJebfXJGa74ogArUKUgk8S91E8JGE9hmIv4p3AQ8DKqSrUIGtiIVaPBX6AXbeahB2cG+zju6Tn35nU89/8oKeM9/aUmWcmEH9zYjH5yjH/eeLq+p4gzc3mVOnPXiFNnhUhCskI4g5MzSQfiYJGA08S6wCepBz7jCOwFYyJPbZCzz8rOusD04ntA7eTj5WPVbEERhF1vIOY2f9IYrasfh2gVYhScSRxH8U85N7+GrEf/jnYaWuRb7bFsldG9oVPJqvNwFxIXP1qCWHdCIcE6X1bkF4hSsMI4DFiXsAuYPt0VXkDaxATU7xqiylfvvgysw+xYZVnkO2S8y4D6PKwO4mZ/bcRc1jzoQCtQpSSfYn7cNxLdsvIf6hRY6N2VLqqCCdOJrZPfC9dVV7HUsCjNWpsxN4VpHvvIL2fD9IrROloIy46YAX4Zrqq/I9tiJ3taX+xmLQBlxLXL14F1k5Wm9c4p0G9tdg1gbojAlktBFYM1CxE6diJuA/IYuCt6aoCwNVO2vuzR4jJgibSsDwwmbj+8atkNTF2xLbbIuqyBNg8SPdbgjT/PkivEKXmL8R9FCdhy5QpiAyCMh/YLFE9RBw74J90prfT3DRRPZYm9prjzwK1XxKkeZdAzUKUlo2J+yhWsLStKYiMj390ojqIeE4irp/8KVEdfhxYh3lYHIUINiZm1eKeIL1CtARnEfdB6QZ2C9b/tkD9N5KPu97Ch2HY3faIvtKFOblI9iT2nMtXArVfFKT5oEDNQpSeZYgNG/scFqI1iqhtjPnAeoG6RTZsCSwips+cF6h7VWKDG03BgmhFsCUxs//nKUfgKiEyZT/iPiwV4HosI6E3UcuKFeC4AL0iH/wfMX3mVWIiRHZgq1GR72hUyF+IG6RHrlgI0VJcQ+wH5tQAzb8I0voQsTnsRbaMJiYPfQX4doDebwZprVrk+YXtgjTPJx+hx4UoBesBC4j7yHQB73TUuzxxUf88dYp8ErXq9QK+6YJ3JSZrXtXmAqs56u3LtUG6fxSoWYjkDMOus5wEnIsdmjkH+BQW4jYFpxL3oalgCYNWd9L62SCNlzvpE/mmjbjbIx9z0rga8UmNPu2ktT+irud2ARsG6hYiGR3YSziZwTv81cQF6KgyArhvEB0edhs+h40i8r4vATZy0CaKQVRgmlsctI0G/hukr/e7GHXLpQ34V5DuVFcuhQhlDexjUWvHXwycGKzpTcSdkq7aH2gu0UjU1b8LmtAkisnlxPSlZgIDtWHR7SLfwUXAVk1oHIoDgnR3A1sE6hYiCavSeN76s4K1ndygrnqsmUOBPw3Qo9l/axKVQ+L0JjRFp7SuAF9tQt9QLAU8HaRbs39ReDwCknw0UN9w4K4m9Q1l3dgsoRFtMwP0XNiAFlEO/op/f5pMY6tcHyI22E8F+Df2DYrilCDdmv2LUnAszb8Mc/E7UNcfm2NZtiI/RAuA7evU9a4gLVvWqUOUh05i+tQOderYhribLVV7mdgAV2sE1kGzf1F4hgFT8XkhLg3WeoKTzsFsBvWd6P11gIab6/h9UU7uxr9f1ZMLY10ssl30+3Z4HZoa4XdBurvQ7F+UgHfi+2LsHai1ndg0u1V7ClizBj3DgFkBv79vvQ0jSsfH8e9Xz1DbNsCqxGb4q9oVNepplB2I2774Y6BuIZLhfdd+CjAmUO/KpJmZTOr5rcGIOP3/LLH7oaIYjAJm49+/htpaGgvcH/C7fW06cZn+wM7m3BukfQnxV6CFSMIf8H9BzgjWvAux0ciqdhew3CA6vhXwm99quFVE2YhItTvYtd0xxN2V7+tAd2+4VWrjxED9kUmWhEjKH/F/QRYTvz92SoDu/uxm7BpRf9wT8HuaWYgqEYGBBgoKNIL4/BtVO6mpVhma9YkLI/4yMQmWhMiEXxLzovyb2Nz1HcANQdr72t9547bGePz3F+/1aBhRKh7Gt48t4Y2rWiOx/fgU79JVxH4X2oB/BOqPSCImRGZ8hriX5Yhg7eOJC/DR124Blu312x8M+I0veTWMKA0Rmffe1av80aQ5WFvBzgdFZ8w7NFD/VGDpYP1CJGUz4l6YF4k96AN2V/mVwDr0tv9gWf8Azg4oX5H/RF+2wb+fVc+ZjMFWt1K8OwuxLY1IxhNzcLJqhwXrFyITIj8CVxJ71QfgI8RHK6vandgs5nbncp9wbxVRBtqwa6mefe0WYBnisg/2Z9H3/cEC80TpfwDbdhSidOxC7Mt/VII6nBZch952P3bQ0bPMH/o3iSgJ3rcBFmJndFK9L2f7N8kb+ERwHXpvmwhROqIiZlWwUJwbB+tvJ91Bpgh7t3+TiJKwL9n3z0btcuJnzmtjocij6vDnYP1CZM4EbM8+6iW6E7tqFMlywH2BdYiyJdiSrBD9sRLptrg87R7i+3UH9aUwr9depraooEIUniOJ/SCclqAOq+G/Zxptuv4nhqJoA9vnsUQ80XwluB5fSFAHIXJBO3AbcS9TF/D2BPXYhJgY/VF2bkwziBLxM7Lvp7XafGDbmGZ4HdsCiwLrcR8WUliIluFN+B9w621TGDy8rhc7ku56YLP2iZgmECXicLLvp7XYItKcZxmDf5Ck3taNfUOEaDki7rj3tgsS1eP9pMkZ0KwpragYim3Jvp8OZV3YldwURB5argA/T1QPIXLHMlhWusgXLDpKYJVPke8DVEuwzG9C9GU0sCGwB3aVNuu+Oph1k+6dPjq4LjOwrIhCtCz7EPuSvYrl607Bp8nvIODxwHqLYjAOy473GeAnWCz7aWTfN+uxVGGst8O+HZF12S9RXYTINRcQ+6I9D6ySqC7HBtelUbs8stIid4wCOjGH+UdgMtn3wWbt264tNDArEp/74w+J6iJE7lkeeIbYF+6fxMcHqHJ8cF0asRRR0kR2DMcibZ4K3ERcmtqsbAFwMvBWYgP+tAPXBtdlKvHJioQoFLsTv3z+42S1gS8H1qMROz62uiIDVsMSx1wCzCP7PpbKZgMXYxn5vFf2vpFA/3udNQtRCn5A/Mt3SLLaxAcPqccODK6rSMMa2DbTP8nveZOU1oWteBxN84OB/Ylv0181qVGI0rIUMInYF3AB8elCe3M09pHK+kO5R3RFRRjLY/fz5fQHty7gxp62qjcGyHbEx/N4ugFdQrQUbyE2QFAFO2+Q6lAgwEeJjSRWi70vvJbCkzZs0HYhxQk0lSebj822d6qhrdci/jZEN7BnDVqEaHm+TvwH4m5g2VQVAt5Dth/yJdgWi2Yg+WY54HPAI2TvRMtik4DP0//7vgxp8h+c0c9vCyH6YTXi7+BWgOtJdzMA7FpWZDrRWux50kVRE7WzLnZI9SWyd5hltbnAWdiMH+w2wZUJfvffKNa/EDWxMvAA6T4Kv8OWW1OxJfF3jGuxG4GtY6sqauBN2J3wIoSSLost7mnzXyX4rdnARIQQQ5La+VftzBSV68UqwO1O2puxLuB80p6HEMabgavIvg/I4qwbyxMihBiCrJx/1Y6Jr+LrWAq7v531R6qCLTt/HZ0PSMHmwGXoNH8r2DkIIYYka+dfwWbD+0dXtA/twOkO2r3sBSxg0OjISrcoqwO/JR9XQmXxdgcwEiHEoOTB+VdtIRZONTUHk6/Qrc9hKyJLRVa6RRiDheedT/bPVZbGXsQOdQohBiFPzr9qL1Hb3WFvtiF/CVtmYCGNtTXQGPsTn+5ali9bArwTIcSgjCd/zr9qLwFvj6v6gIwlzbWkem0O8B1gzbiql4p1gavJ/rnJ0ptybggxBHl2/lXLahDQDnyVfO4VLwYuAnYIq32xGQaciCL3tapdgBBiUIrg/Kv2Mha8Jwv2xJbgs26DgexO4AjSRlPMM5sA/yX75yLLxm5Hh2eFGJQiOf+qZTkImED+74q/DJyHrQqkDKiUFzqAL5KvQ5yytDYNu+VRGFrxRRXZMh74O7Bp1kIaYD4Wy//GDH67DTgSC1aU9xnGk1jymguBhzPWkoLVsEiSnVkLcaALu/0xBTuMOgWYjl0NrdrL2HkQsORW83v+PobXQmovDywNrNjLxmPR8Nbu+XM1bOBUBhYBu2KZGoUQ/VDEmX9fe5lsrghW2Qi7W5x1O9Rqd2I3CDaOaIwcsDcwk+zbuRGbDvwN+DaWqXIL0saqH97zmx/t0fC3Hk1Zt0sjNgd4t2/zCFEeyuD8q7YQ2M+3eepiOPAt4tMle9sk4DRsm2CYe6ukZRjwXYoVye9h4OfAJ4AN3FvEjw0wjT/HNGfdbrVaNxZJszCrGtoCEP0xClgfW6JbBjvg1YGNcuf12MNYoItaKPKy/0B0A8cB38tQw9bYR7KIyXzmYH3iGuA6bKm5KIwHLiab2yH18DLWxlf32JRM1TTOROxO/buwZfalM1UzNNdiqxovZC1EiFrYADvJ/XvsI1HrrOZ57ON9ErAtdnWtL2Wa+fdnZw1Q71QMA75A8SPMPY2FyD0cO0mf18nJdsAzZN9eA9k87Bra3pQzBO1I4L1YHeeRfXsP1p/fEtQGQjTNKtgM9m78Ov104AfYBxzM+T/oWP5Q1oUdlLs14W9WsJSiWX9s18Zm01l/+LysukLwbWy7ZV2yHWgBHIBt/2TdNn1tMfAX4APk/4CoJ6OxOv+VfKZRXgh8OKz2QjTA+tiycfSH7EbgoeDf6G1dwMd76rgcdvgs5ct+A3byOWs+hp3izvrjF2Hzsef6W+BL2Md/a2AFl5YbmDbga+Rvv38ytvq2alzVC8NqWFtMJvvn0tu6sb6aS/K6zCb8GYcdHPsk2c+kvOkGDgF+3eufrQjcxGurESm4H9gLi/ueJUtjH53jsPMcrcBcbPvqOSxw0lRsRWpGz/83D4vq+BKvP7vyEjZ7BBs4tmPtNxybYY4CPgscFF2BOrgZ23q6Auv74jXasau6x5GvMxrnAp/mtb4mRDIOxg6kZD0ajrDeM/++rAo8nljPM+Rn728idlgt62cka96WYOGX34yolbdgbZaX7YEryf8BRlEilsUO9mXd8aNsMOdfZSLpD20txFZa8sJOpN8SkflYF/YOb/SGpypqZWPsnE4e8mrcjiX7EiKUDYDHyL7DR34YP15jW2yIhelMrfFcsj8cWKUN2Je05zJkjVs3cBmweX8PUzTEFlibZv1s78a2KIUIYRuKG1GrFqvH+VfZHJiVgdY7gbXq1BpJOzYQeITsn6Ns4D6Tp/3rsrEd8G+yfcYPYTexhHClk3zfj23WGnH+Vd4CzM5A8zTy90Efhm1TTCH7ZyozmwocSvkO6eaRdqz/Z7EyWLUHsURfQrjQiUX/yvpDFmVdNH8ae0uyeekXAZ9rUnsEI7BDomUO1pR36wZ+it1CEGlZHtuqy+qK5yS0EiAc6ETOv1Y2xCJ1ZVGPPxB/b70R2rArjDeQ/bNuJXuE/K0OtSKdZLctdi/5iCEiCkoncv71shbZHZJ8Gotpnle2xQYqebk+VUbrAr5D68RpKAKjgDPI5rbATbRWFEfhxNuwYCZZf9AiP5Qfd2ut1zMeG31nUa9u4Bzyc0ugP1YBTiB/0dWKblOx5DYin+xKNvkeLqf4WTJFQjrRzL9ZxmF3c7Oq473AZsF1bJYOLLpaXmOuF8n+iO6BF4GxwJ9I3z/OQxF6RQ10IufvxbJYeNWs6roAOIZivPirAycDj5J9HymSLcJCCoticQyWbCllXzk1Sc1EYemk3M6/gs02U/IpR+2N2nWYgy0K2wJnku/0uHmwqVg0RlFM3o49w1T9pRv4YJKaicLRSfmdf9X+z6nNhuJA8rO0PRebKXaE1tiXduwj+WPKHYCqEfsPytZXBlbFnmWqfvMyFrlQiP9R9gN//dkZLi03MB8m/RJfLXY3FrGsaLRjkSj1MHLvAAAgAElEQVRPAG4lfyl0U9qlwFLNNafIESNJm1tlCrBSioqJ/NNJ68z8+1rUSkCeZv792RLspsCyQfVPwWrY9spfaK3B65kool8ZacdSMafqR/9ANwNank6ycf4vYYFhLgB+iaWzzCqAjvcgIO/Ov7c9Szn2BIdh4ZiPw854ZJGbIdq6sbzvotx8lnSrW9GroCLHdJLe+d+KRYUb6I76VsDPSL907jUIKJLz721XYOmNy0I7lqTp09gg80GK+VyqtgT4hGcDiVxzMGn6azfwjkR1Ejmik7TOfz5wQB36NiF9etlmBwFFdf5VWwB8m/KGDl0KeCtwFPBz4A6szlm3+1C2CNg/oD1Evtkfe/bR/WsqsHKiOokc0Ela5z8d2LoBncti19dSfmwbHQQU3fn3tlnA58l3JEEv2oA1sQhth2NLopdhCYxeIftnsQh4f1jtRd55H2kGAVdSjFghokk6Se/8N21C72jg2oR6K9Q/CCiT8+9tU4CP0doHzpYBNsKuIn4Yy7p4GvAE8e2/BM38hfWBFN+XPGYUFY50UiznXyXPg4CyOv/edhewR43t0QpsRPzWQTfa8xevcTDxBwMXkv/Q4aJBOimm868yGrgmof4KQw8CWsH597ZrKWb8AE/agX8S39Y67S/68lni+92/aO0Vv1KSOsjPdGJGkiOx0+opnd5A12T2J59BflLYrcDetOae4bFk1+eE+C7x/e/oZLUR4XRS7Jl/X/KwEpB65v9q4vrWardjMQRaZcawLnabJbJN/0TrtKeon3bgEmL74DxgjVQVEnF0Ui7nXyXLQcDHSOv8H8KS+Hwz8e/WY5OwPcoRAz6xchB9DuU/WN8WYjBGA7cR2xdTJ0wTznRSTudfJYtBQOqc9Q8B43vVeUfSnD5v1J7GThIXObzwQOxDbNtNRYl9RO2sBkwjtk/um6w2wpWy7PkPRRZnAlLZJGCVfuq8DHBuDvQNZguAi7EBSxkYBTxJXHstxgbsQtTDDsRuDz6DEk4Vjk7KPfPvSxYrAdHWd+bfH+8Dns+B1qHsduBQYMwQ9ckzXyW2jXT/Ot90YOc/dsHOvByIJaH6MPBebMI11PsaRfSh1BPTVUU0Syet5fyrlGkQUIvzr7IC8OscaK7F5gA/xOLzF4k1iT3498d0VRE1Mh74CPBTLCJkrbPsudgV0W9h8fVTneeIPBQ4F4UJLgSdtKbzr1KGQUA9zr83e2HLdVnrr9X+CRxBMfKR/5K4dngGGJuuKmIQxgAHYd8Qr3M+c7H+syuxV2bHYVk9o/rpjwO1Cwc6aW3nX6XIg4BGnX+V5YAfAV05qEuttgQ7Wf9J8ukINyLu0GcX5hhEtiyLbcFMJbav348NMIYF1WM34t79xVhyNpFDOpHz700RBwHNOv/evBm4Mwd1qtcWAVcBHyc/2QgvJq6+CvaTLcOB47E77yn7+SPAO4PqdEag7j8HaRZN0Imcf38UaRDg6fyrdGBhQ+fmoH6N2ELsyuUh2HWnLHgTcbHXH8FuFohs2BF4kGz7+CX0f8unGUZjfStCbzewpbNe0QSdyPkPRhEGARHOvzerAr8hPolItD0AnEXag1VR10u70ZW/rGjDlvtTpNetxWYA73Ku487Eve8XOWsVDdIq9/ybZSRwOdm/6P3ZQPf8I9gWi9+fdZ09bAFwHXACsA0xh6u2IO4j+tMAvWJolgGuJvv+29e6gJOc6/qzQK1FmgSWkk4086+HPK4ERM/8+6MNu7/8XJPa82bPA5diA4KdsQ99s/w2SOs07LCmSMs44N9k31cHs/PxOyC4PPbdjtD5ayeNogE6kfNvhDwNArJw/r0ZgwW2Ker5gKFsCXAf8AvgMGw231FH+6xJ3BLxoXXoED6sDjxK9v2yFvs9fomgDgvSuBhYx0mjqINO5PybIQ+DgKydf29WBM7GDtxl/eGLtpewPOfnYysF78eu+A3vp12i0q3ehbL8pWZ14DGy73/1mNcWUQdwd5DG7ztpFDXSiZy/B1kOAvLk/HuzFrasl9dMg5G2GDs1/RfgO9isKepszdtrfSDChdWBx8m+jzViX3Zqg84gfXOApZ00iiHoRM7fkywGAXl1/r3ZENv7bsWBQLTpDnVaijjz721dwO5ObfGXII2HO+kTg9CJnH8EKQcBD5N/59+bDbCrgxoI+FgXdg5BpKHozr9q04AJDu2xJTE3Wu5x0CYGoRM5/0hSDQJuTFQfbzbADtK1whmBSNPd6XQUedm/P/u9U7tERbTcwUmf6IPu+achVZyAIrftysApwGyy/yAWzZYAG9fd4qIRyjLz72s7O7TNJsTkCbjAQZvoQyea+ackxUpAGU7NLovFTi9S1sGsTbP/NJRt5t/b7sXn9sgfA7QtQHEtXNHMPxuiVwJmUJ4rYO3A3lg0vqKHGI627RpsY1E7ZZ3597b3O7TTm4O0fcJBm0DOP2uiBwHbpKtKMjYCzgHmk/1HMm92UxPtKmqjFZx/BbjNqb1uCdD2NydtLU0nWvbPA6Ow/PQRbe4d7ztPrAAcTVzgkSLa+5pqUTEUZV7278/e4tBm7wvQtRhYyUFby9KJnH+eWJaYVKHXpqxEhmwD/AQLFpL1RzMrm0J5tnzySFbOfwk2G78Uiyp5OenCDH/Pod3asb7pre0IB20tSSdy/nlkY2xk69n2zyWtQfaMBvYH/kp+0q+msq86tJ/onyyc/2Tgk8DYATStD5xG7Lf8eerLaTEQXwvQdqODrpajEzn/PHMu/s9ghaQ1yA/jgCOxlMRlPzi4GFjNp9lEH1I7/27MsY+oUd8qwA2BejwOla6Of5CvLuy6sKiRTuT8884W5PMFLjprAJ/FZg1ljDb4V7eWimUpLErcB4BPAZ/HEiWd0PO/PwpsjyWNygOpnf9i4GMN6ByO5daI0HR8A3r644oAbY20VUvSiZx/UXgK32fxrrTyc8/KmLP5G3anONU7EWkfdG0hP8YDB2F71/WenJ8JXAZ8jmy+JVk4/w81oXc4dgvEW9flTWjqzb4B2hQUqAZ01a9YXIXv89g/rfxCMRpLgHI6MIl074inzeupR14YCRyA9WPPMy33AF8gTY6Lojn/KmvgP6h9ykEX2OqPtx+aiQ6+DkonmvkXjfPwfSaHpZVfaDYFjsGW1Ityo+B3IS1RP8sAx2EHTyPr+wrwI2DtoHoU1flXOdtZXxd+A8zfO2urANs6aSsdncj5F5Hf4ftcDkkrvzR0YJHMvohtF+R1QJD13f82LDLbdNLWexFwBr454ovu/AG2CtC5iZO2fQK0lTnWScN0IudfVP6B77PZL6380tKObW0dBvwS2zLI+nbBy9iSe1ZsgN2yyLINngXe61CXMjh/sAGZ9yrMTk7aRuEfwVPRL/vQiZx/URmJ7el6Ph8dAoxjeWAX7DT7b4EH8I/lMJhlefr/Q+RrVeRcGh8MpQ7vuwT4SINaa+FmZ72e3xDv2wCvYAcgBXL+RWcv/J+RDmSmZTSwNXal7f+AS4CHiQlMdGSiOvWmA/hhg3qj7Tbqvxtelpl/by5x1ux5y+RoZ20VypnzpG502r/4eC+ndmHLbiJ7jsf/HVwnaQ0sOM1FTtqj7AlgvRrrU7aZfxXvbcR3O2pb21lbBTjKUV8h6STtzH8amvl7cwD+z2ly0hqIwfA+3PlIWvmMAK520h5tz2NZIwejjDP/Kt716nTW5z3o+rWzvkLRiZx/0dmKmGd4YcpKiEF5GN9n+4uE2tuJucIVaVMZeBBQZue/boD+LZ01nu+sb5KzvsLQiZx/0dkY+1hFPK9PJayHGJilse0Yz2d7cEL933XWnsqmYu9Xb8rs/AG+HFCHZZw1Huqsr5sWzHnSiZx/0Yl0/hVq3wsVsbwN/2e7QSLt7yH7647NWO+DymXd86+yHDDLuQ5TA3Ru5KyxArw9QGdu6UTOv+hEO/8701VFDMFn8X22M7D73tGsCcx21p6FTQX2oNwzf4DfOGnvbdcH6GzDwvh66myZ1U6d9i8+GxIfMvXzyWojhuIn+D7bqxLp9s5L0SqWhfP/gpP2vnZykN5rnHWeGaQzV3SimX/RiZ75V4CFWJ5wkQ+uxff5fieB5r2dNbeKpV72B4tOGbVN0xmk+QxnnVcE6cwNmvkXnxQz/woWFU3khyfxfb4fDdY7nLTL5WWxLGb+RxHn/F8kLtT0Qc5aHwvSmQvk/ItPKue/BFg/UZ3E0AzHnonnM948WPOBznpbwco2869gmUmjeJOz1iVkmxcjjE607F90Uiz7V+0nieokamN9/D90IwL1tgH3Omsuu5Vt5l+1PQL1j8L/amzfK5+FpxM5/6KT0vnPBMamqZaokXfi+4yfCtbb6ay37FZW5/8wFgAqkmedNe82LFhwSjqBK4ExiX5vOrAb8GCi32sFNsbick9I9HvHY9e2RH5Y1bm8Kc7l9eWA4PLBVjH+iZ2NmIEFSloLSzu7XILf96K67P+nhL95FJaMKfoa6JnYICOSycBqjuWNdywrU7TnX3xS7flX7aI01RJ1ciK+z/lXgVpHEHvvfzrwGQaO2jYcu31wZ6AGLyvrzL8CPE2a/fTfOusuxdXnTrTsX3RSLvtXgEfxD9cpfDgL32d9aqDWTmetve1iau+jbcAxmJNN9Q7VY2V2/hVg/0R1+rqz7m8n0h2GZv7FJ/XMf2bPb4p84j3LOSJQ61edtVbtuzS2ZP0OYH6Qpkat7M7/hkR1AquXp/ZfJdTujpx/8Unt/OcD2yepmWgU7xS6+wZq9Q5YVAH+QnOHyXYlP4OAsjv/l0iXYwJspcFT/9UJtbvSiZb9i07qZf/5wC5Jaiaa4Q58n/uugVq9++9LwMoOunYi7eSoPyvjPf++dlCaav2P3Ry1V4D/ppXvg2b+xSeLmX+kIxB+PILvs98iSOfS+Dubbzjqy3IloOwz/wqxQX8GYqsm9PZn96WV3zydaOZfdDTzF4MxGd/nv2aQzi2ddVawtK+eZDEIaAXnfzV2AyM1azWodyB7NK385tDMv/ho5i+Gwntw6LGk3h+dzjonB+lMOQhoBef/X2z1Jwsm1KixVns6rfzGkfMvPnL+oha879UvH6TzPc46/x6kE9KcCWiFPf+7gXFJatY/Kwygq1GbkVZ+Y8j5Fx85f1Er3rPVpYJ0fshZZ3R0vMiVgFaY+d/JwAGZUrEUvnWal1Z+/cj5Fx85f1EP3pkAO4J0eq8A/CNIZ28iVgI0809HB771WpRWfn3I+RcfOX9RL97R7KLynXQ665wcpLMvnisBmvmnZRi+dcvtAEDOv/jI+YtGKMoWwBbOOiv43wIYCI9BgJx/ery3AF5OK7825PyLj5y/aJQX8e0bUYcAI+IAfDNIa380MwiQ888G70OAs9LKHxo5/+Ij5y+aYRq+/SPqGiDA885a5wErBerty47U395zgHcn1Ahy/lW8rwE+n1b+4HSiID9FR0F+RLM8hW8fiQoEBPnMBVAvawBX1qjtJtJtU1SR83+NtfCt65Sk6gehEzn/oiPnLzx4FN9+smWg1pOctVYtizStOwLnYk6ht5bngF8Ce2agSc7/9XiHAp6UVn7/aNm/+GjZX3hxG759JbKfvN1Za287NVD3UIzAlptHZqhBzv+N7I5vnf+VVv4bkfMvPnL+wpOr8O0v+wVqHYEdpIrq61kOArJEzr9/PoxvvS9PK//1yPkXHzl/4c1v8O0zRwbrPddZb1/LYjsgS1o1yE8tHI1v3X+ZVv5rdKI9/6KjPX8Rwdn49pvoWXSns94s6pAXNPMfnK/jW/+z0so3NPMvPpr5iyi8D9b9OoHmu5w192dlXwnQzH9ofotvG5yYVr5m/mVAM38RySfx7T83JdD8MWfNA1lZBwFy/rVxK77tcEhK8Zr5Fx/N/EU0e+Dbh55KoHk48Jiz7oGsbNsBWvavHe9vb7KJVSea+RcdzfxFCtbDtx8twU7rR7O3s+7BrCwrAZr5184ooAvf9lg7hXDN/IuPZv4iFSPw/9BFBgPqTa0R9Tys6IMAOf/62Brf9lhMXKbM/yHnX3zk/EVqnsG3Tx2YSPfqwAvO2gezog4C5Pzr5xP4tsnkaMGdaNm/6GjZX2TBzfj2q+8k1P4e0jq3og0C5Pwb40x82+UfkWI18y8+mvmLrPgJvn3r6rTyOctRey1WlIOBOvDXON6Jp74fJbQTzfyLjmb+IkuOwrd/zQDaEupvw+IPpHp/KuR/JUAz/8ZpA2bi2z6fihCqmX/x0cxfZM3b8O9nGyatgR1mvM5Je62W15UAzfybY2P82+it3iLl/IuPnL/IA8vi7zCSBj3pYSng+gb1NmqnJ6lZ7Wjm3zyH4dtG3cAyngLl/IuPnL/IE5Px7W/npZX/P1p5ECDn78Ov8G2nxz3FdaI9/6KjPX+RN/6Eb597NK3819GKgwA5fz8ex7etLvYSppl/8dHMX+SRz+Pf99ZNWoPX00qDADl/P9bBv70+6yFMzr/4yPmLvPIW/PvfUUlr8EZaYRAg5+/LZ/Bvs22aFSXnX3zk/EWeGY71Gc8+eHnSGvRPmQcBcv7+XIVvm71MkyGAO9Gef9HRnr8oAjfi//EblbICA1DGQYCcvz+j8R8EX9+MoE7k/IuOnL8oCt/Avz++P2kNBqZMgwA5/xg+gH/bndyoGC37Fx8t+4siEREQ6PdJazA4ZRgEyPnHcTH+7bddI0Lk/IuPnL8oGh3ALPz75ZiUlRiCIg8C5PzjWAr/1fZZ2DtVF28LEDKYadnfHy37i6JyEf79c9+kNRiaIg4C5Pxj2R//NrywXhGbAbMDhAxkmvn7o5m/KDIH499H83AboC9LAX8n3XtaAU6jsSRJn0ex/aPxPv1fAQ6sR8BapHUcmvn7o5m/KDqrAF349tMlwBopK1EjWQwCLqX2mfUywPmJ9bWi818T66Oe7dgFrFyrgGHAv5wFDGaa+fujmb8oC7fg31+/lrQGtZPFIOBF4CvYpK8/VgGOxdIqp9TVis4f4BT82/KGegR8J0DAQCbn78+GwPOke4Zy/iKST+PfZ5+mgQNRichiEFC1B7EtkvOBvwD3kHa5v2qt6vzbgSn4t+cRtQrYiXQPXMv+/mjZX5SNCfgviVbIT0yA/hgNXEd6x5sHa7UDf73ZB//2XEKNy/8d2IgvxUPWzN8fzfxFWfkH/v331qQ1+P/27j3GrqqK4/i3vW2lU9piW0pbQEvVKLXysGIAI7amVYQQikSomADi8DIaaGpS/9AoJiTUQAl/mZoWeQktBEERgjxEjK0Eo0B51EBrKVpLeaZDw5hh5l7/WHPpML1z59x7z9r7PH6fZP05uXvvOeesvffZe5/WlbETUObkD7CJ9Nv0oaQ//l2HH28UGvmnTyN/KbLL8LmOTwxZiTaUqRNQ9uR/Ej7tenGSHx+PvRfz/idr5J8+jfyl6KaS/rnoNeCukJVoUxk6AWVP/mA7MtJu13eBQ5L8+EUOPz48lPzTp+QvZXEL6V/PA8BnQlaiTUXuBCj524x42ttda9hizkS2OPz40NC0f/o07S9l4vFtgBr5mAWAYnYClPzN3fi078lJfvw4px+vh0b+6dPIX8roedK/tqvYMzAPitQJUPI3x+Oz824rCU96XO3w4/V4FZjfcpNIMxr5S1mtwOca/13ISnSoCJ0AJf/97sOnja9MWoAXnQqg5J8+JX8ps6lADz7X+qJw1ehYnjsBSv77Lcanjfdi98qoZjsV4HWU/NOm5C8Ca/C53p8mu6cDNpLHToCS/34V4Bl82vnapIVY7vDjfShxpE3v/EXMEdgzxuO6vyRgPdLQhR30EjuxJ4m/Uc7jfUdyOT7t3Id9UCiRaxwKkNUPbeSVRv4iH3Q7Ptf+a+QvSU0A7iB+gm8WjwJTvBogh6Zhs+QebX1rKwVJe/vBHuDgVgogTSn5ixxoIX7fLFkXsB5pGQtcT/xE3yhuwjopst96fNq6ChzbSkHSfgdxfUvNIM0o+YuM7Lf4PUTz+vprGfAW8ZN+DegFrvCtbi59Gb/O692tFibt98pLWi2ANKTkL9Lccfg9SF/CFtnl0VHAH4ib/Dehg98amYhdWx5tPkAb5+2kvaVmTqsFkAMo+Yskcxd+98WagPXwcDY+35ZvFruBC0h4AE0Jee1gqWHrQFqW9ne2x7dTCHmfkr9IcvNJ/xlWjyqwNFxVXIwHzsdOhfN8juzEpvu7wlQrl5biN2PVj+0Ua1lvygVJdPiANKTkL9K6m/G7R3YBM8JVxU0F+BpwG7CPdNqmF5uBWYYGfqOZge827vXtFiztrQh679MeJX+R9hxOekmtUdxDsaa0u4BTsS3gm7FT45K0wz5sL/91wBloW19SY4B78bs+e4BZ7RZue8qF+V67BSkxJX+RzvwI33tmZbiqRHEY9rXF04FzsQORlmOJ/hSskyXt+QG+1+aqTgr3aMqFeayTwpSQkr9I5yYCO/C7b94jX98KkGxYjF07XtflNuBDnRRwrUOhFnVSoBLR8b4i6fkGvvfPHuwYYpEkjsSuGc9rclmnhbzSoVBPodWgo9HIXyR9D+J7Hz2Jnm0yuknYegnPa/H3aRT0BKfCbaBYC2fSpOQv4mMuvgsCa9iCrrGB6iP5U8HvlMp69NDCB3+aGYff97XXoRtlOE37i/jymNUcHjryXEZyA/7XX6qL7T23KKxFMwF1GvmL+KsAT+B/f60IVSHJjZX4X3ebSXlg/U3nAqsToOQvEtIC0j/kbHhUge+EqpBkXjd+J/3Voxc7/TJVXcA7zgUv8+sATfuLhLcC/3ttADgvVIUks87G70jqofF9rwr8IkDhyzgToJG/SBxjCPNVvPeAswLVSbLnLKAP/+vsARzz5zzC9GDKNBOgkb9IXDOBV/G/9/qxr+BJuSwnTPJ/jQ6O+01qQ4CK1CjHTIBG/iLZcCb+72brnYDuQHWS+LqxV0De11UVOC1Ehebhv3CmDJ0AJX+RbPk5Ye7FKtodUAYrCdOprAFXB6oTAD9zqkSjKOLrAE37i2RPhTDrAeqxFjtjRYqlQph9/vV4ZPA3g+kCXki5EqPdKEWZCdDIXyS7DgVeIdz9eS86NrhIJuF/wt/QeBmYHqJiwx1DuFcBRekEHE2YxUZK/iLt+zzwP8Ldp0+iDwgVwZH4n+0/NHqBhUFqNoJLGxRKnYDGlPxF8uNbhHt/W8O+CLcoRMXExWJsFX6o66UKnBukZqNYTdhOQB7XBOidv0j+/Jiwz7Z+YBX5HeSU1SWE2eY3NH4YpGYJjAFuImzl8zQToJG/SH7dSNhnWw24B5gRonLSkRmEfd9fj1+GqFwrxgEbCd8IWe8EKPmL5Nt44GHCP+R3AUsD1E/a8xXCzurW40EyunNEnYAPUvIXKYbJhPly4PCoAtcBE/2rKAlNBNYQdn1IPTYDB/tXsX0V4DbCNsp6srcmQO/8RYplKvB3wj/0a8B2YIl/FWUUpwD/JM418Awwzb+KnSv7TECMkf+iEBUTKbmZwFbiJIAqtgD6w+61lOGmYWtBYoz6a9iZO4e61zJFZe0EKPmLFNvhwDbiJIIattXsUgKf/FZSFeAy4HXi/b+3AXO8K+qhbK8DNO0vUg6zgGeJlxRq2KjwVO+Klthi4Gni/o+3kvMDosoyE6CRv0i5zCR+gqgB9wHHO9e1TD6LtWns/+s/yNm0/0iKPhOgkb9IOR2CrcyOnSyqqCPQqfnAncR7zz80niQnC/6SKupMgEb+IuU2GXiI+Emjhn13/m7gJNcaF8vJwG+wtov9/6th+/wzvdWvXUXrBCj5iwjYYUHriZ88hsYm4Cy0WLCRCtY2m4j/fxqerzJ5yE9aivI6QNP+IjLcFWRnJFmPXcA1wFGO9c6LOdi3Fv5F/P/L0KgCP/WrdrbkfSZAI38RGcl5hP2UcNLoB+7HviA3ya322TMJWA48QPY6ZzXsk76Z+KpfSHntBCj5i8hoTgB2Ej+5NHuubAS+TjGPGZ6I1W0jVtfY7T1SvAws9GmC7Mvb6wBN+4tIUtPJzuLAZvEu9rGjVeQ7Gc3DPst7J9BD/HYdLR7DtpKWWoyZgA1AV4vlPAU7gStUGTXyF8m/CrCabGwtSxrbsM+7d2MznrFPV21kDFa2bqysMU9mbDWqwNVoceb7YnQCnga+lKBsk4GrgL6AZVPyFymWMwg7gEgz3sBmMq4FLsQOyjko1dZp7qDB37xwsAwPDZYpdru0E68Cp6XaOgGE6AGOA34NnBPgt4Z6HNsD+jg2vd8DHIYdCnEatjgj5DTNu8DpwJ8C/qaI+JuFjVa/GrkcaagBu4Edg/EysAdLzG9iZ+f3YIOZPmzUu3fwb6dir2EnYAv0pmAn3k0HZmDP37nYroWjgNlkcxaiVQ8AF2HtJA3EWBOQpdA7f5FiG4O9p87ywjRFutGLra/I2ifrMynG64AshKb9RcpjAfAE8Z87Ct/YjM0mSwvKNhOgkb9I+YzFZgPysGJd0fozfRVa6Ne2snQClPxFym0OcA/xn0WKdOJ+4CNIx4r+OkDT/iJSdzbZO6JWkTy2AcsO+K9KR4o6E6CRv4gMNwH7nsBe4j+jFMliH3aOf8itkaVStJkAjfxFpJnZwK+w8/tjP68UjaMfWIdt7xRnRZkJ0MhfRJL6FHAL6ghkKQaw44Y/2eT/Jg7y3glQ8heRdnwaSzp5OlK4iPEwcPwo/ytxlNfXAZr2F5FOHYcNgkIeTV726ANuBY5N8P+RAPI2E6CRv4ikaRa28Owt4j/fiho9wA1oS18mjQNuJv5FMlq8DXzRqQ1EpNymAlcCzxP/WVeUeA7biTGlhf+DRDAG6wXHvmBGiv9iU3YiIt4WAmuxbWmxn315i15sjcUSivHhoVK5BPsHxr6IhsZfgSM9Ky0i0sBU4GLgEbR7oFn0Y4v6utFoP/fmA88S/6KqYu+NJvhWV0RkVNOB84H7gPeI/3yMHQPAX7Apfu3fL5iJwFXEmw14Cp/z8UAAAAEOSURBVPiCey1FRFp3GHABcAfwJvGTcah4A7gd6wjN7LgVJfM+hl3koaa/XgEuR19+EpF8qAAnYQOmP1KsdQP7gEeBnwAnoudyaX0cWxTj9bnNLcC30XS/iOTbOOAEbEfBXcB28nHoUHWwrHdi0/qfG6yLpCjvqyK7gDOBc4DF2CKZdr2AvU+7HesAiIgU0WRgAXDMYBwNzAOOIPyouh/4D7ADewZvwdZ8PQe8E7gspZP3DsBQFewox5Oxc7Y/AXwUWwV6MLaOYC82a/A28CLwEvAM8GdgT/gii4hkxnhsh9PcwZiNLTYcHhVgEjZDOpb9A6+92Mi9DzskbQBbkzA03gB2AzuxpP9vrBMgEfwfcovnjp7F86gAAAAASUVORK5CYII=;" parent="1" vertex="1">
          <mxGeometry x="500" y="510" width="80" height="80" as="geometry" />
        </mxCell>
        <mxCell id="TjRo9aIQS-ce4NooAczT-9" value="" style="shape=image;verticalLabelPosition=bottom;labelBackgroundColor=default;verticalAlign=top;aspect=fixed;imageAspect=0;image=data:image/png,iVBORw0KGgoAAAANSUhEUgAAAgAAAAIACAYAAAD0eNT6AAAABHNCSVQICAgIfAhkiAAAAAlwSFlzAAAOxAAADsQBlSsOGwAAABl0RVh0U29mdHdhcmUAd3d3Lmlua3NjYXBlLm9yZ5vuPBoAACAASURBVHic7d13uCVFnf/x950ZZkgDzBAFUUAECUNQkgkRMKFiBHVBUAzoiooBYdVd2V13ZcEIC2YQFQVMCMoGkQFRJCxKUjKCSBJJM8MMk39/1L0/xvGGc7qqu7pPvV/PU8/jPNjd3zr3nNOfU91dNYSatjnwTGBrYCtgA2CN4Va3+cDCBo4zmkeA5RmOuxiYl+G46t1qwKot3t+qw/ssYX/TgSkVtnscWDDGf1tO+PwDLAIeA+YOt3uAe4EbgKuBmyscWxUN5S6gAJOBFwOvB/YGNstajSS1193AfwPfBy4AluQtZ7AZAOrzJOD9wCHD/1uS1LsHgK8CpxCCgRIzAKS3MfAx4DDSDkNKUokWEYLAJ4H7MtcyUCbnLmCATAHeRxi6eh7VrqNJkv7aZGA34F2Eew2uJM/9RAPHEYA0tgDOBHbNXYgkDbjLgYOA23IX0nWTchcwAF4L/AZP/pLUhN2Bq4BX5y6k67wEEOcI4FTSPtIjSRrfqsAbCJcEfpW5ls4yAFT3r8BxeBlFknIYAvYl3G81O3MtnWQAqOZo4F9yFyFJYk/CfAGX5C6kawwA/XsLcBL+8pekttibcFPgtbkL6RJPYv15JnApMC13IZKkv/I4YTTgytyFdIUBoHdrEe483TJ3IZKkUd0C7ExYb0AT8BJA7z4LvCR3EZKkMa0LrAOcn7uQLnAEoDfPIkw+YWCSpHZbBuyBlwImZADoza+A5yTe5y2Eu1Z/SVgKc3Hi/a8o11K80niGCL/WVJZJwIaERdKeBexP+gXTfgk8P/E+VaB9CCfPFG0Z8CNgryY7IEktNgl4LmEZ4FTftcsJ391SlJ+T5s14O+FRFUnS6PYBbiXNd+4FDdeuAbM1ad6I5wNrNly7JHXRusCFpBlx3arh2jVA/o34N+E5OG+AJPVjFeBc4r9/P9V04RocdxD35ruasGiFJKk/04HriPsOvrnxqjUQtiLujTcPeEbjVUvS4Hg6YYa/mO9iLwOMYUruAlos9oa9zwM3pigkgQ0I9zOszRNLF88FHiQk5Ecz1VWXDQgf+nWwv4PYX5XjFuAU4AMR+3ghjgSoT9+keuKcC6zXfMn/3xbAB4HzgIeZuN67gDOAtwEzM9Qba3Oe6O9DTNzfP1Fef78DvJ1wg5XUJesCc6j+ffz15ktW111B9TfcqRnqnQS8AfgF4e7XqrUvBH4APK/Z8vs2CTiQNP39Id3p78Wk6a+TpKhLvkv19/xVGepVxz1K9TfcAQ3X+hrC5Yaq9Y7VZhNWQGybuvp7Ee3s76upr7/Paq4bUmVvpPr7/KEM9arD1iHui7WpYeWNgZ9G1jpRWwJ8gSeuLee0MfAT7G/q/p5IO/orjWV94t7nazdfsrpqU6q/0eY0VONLgD9H1Nlvu4ZwI2EuLwbuH6WuQe3vi2i2v9fiUytqt/lUf38/JUO96qhtqP5Gu6WB+g4lLB7U1MlhpD1Enmvlufr7MHmulR9CWf2VenEb1d/b22SoVx21M9XfaHXfcPIB4m4Ci23zaXaRjSMpq7/vJ39/9629l1L/rqL6+3rnDPWqo9oaAA4m78lhpM2hmZvHDgKWZuhf6f19DHh2zX2V+mUAUCPaGAB2JTzClfvkMNLuot65Duxv3nYvsFGN/ZX6ZQBIbFLuAtSTdYCzgam5C1nBk4HTgaEa9r027ezvN6mvv2fRrv5uBJxGPf2VpNZq2wjAyRH11N0OqqG//9mCfo3VDq6hvye1oF9jtTfX0F+pCkcA1Ig2BYBnEp7Vzn0iGKvdS1i1K5WdW97f+4C1EvZ3p8L6K1VlAEjMSwDt9wlgcu4ixrER8J6E+2t7fzekvP4ekbsISWpKW0YAtqMdd/1P1O4HVi2ov38mzcx52xbWXymGIwCJuRxwu72NdDdhLQL+D7ibcLPZU4EdE+1/A2B/wo17MQ6jG/1dn9DfsyL3k7q/VxFW/qujv68CzkywL0lqtTaMAEwmXH+N/fV2H2HIerTruJsAxxE3xeZIOzdBf+9N2N/R5v7eGPhUov6el6C/9yTq7xEN9Pcnkf2VYjkCoEa0IQDsGlHDSLuI3tZ/nwXcHnmsx4BpEf3dJVF/e3lWf/sE/Z0f2d9nJejvxX30N2Ya1ZH+prjMI1VlAFAj2hAAPhJRw3LgCvq7brsZ8YsL7VmtqwAcFXnsK2m+vy+o1lUAPhx57H77+1TiFxfaq1pXpSQMAIn5FEB7xUw9u4iwfvaCPra5A3h3xDEhruYc/X1XxDGhW/29k7z9ldQyBoD2ilmK9jTCEHe/fgj8NuK4MTXHbPsNwhB3v34E/CbiuLn6ezrd66+kljEAtNdTI7atejf+cuB7EceNqdn+9i7maYuYbWNqltQyBoB2GiJudr3/i9g25h6GmBnjcvU3Zlv7K6mzDADtNI3qs8MtIixfW9WfI7Zds+J206g+J8Vi4NGK2wI8ELFt1f5OBVapuO0S4JGK20Ke/kpqIQNAOy0kzBBXxVTivqh7eWxwLPMrbrcIWFpx21WI+zWdo7+Lqd7fKcT9Ep8ZsW3V/kpqIQNAOy0H5kVsPyti2+0jtp1bcbsS+1t1W+hefyW1kAGgvf4Use1rI7Z9XcS2d0Vsa39718X+SmoZA0B73Ryx7bsIq/T1ay/g+RHHvSli25j+Hk61/r6AuMmLcvX3nVTr757ETeYT019JLWMAaK+Y5/HXBL5OfzcSrju8TYyrI7aN7e+plNXf0+ivvzPJ219J6oQ2TAX8/IgaRtq36W3+9o0JU8vGHGshsEZEf5+XoL9n9NHfKzL397kJ+vudHvv7JODyyGMtwqcAlJdTAasRbQgAU4GHI+oYadcCL2P0ZWGnEYbPU6w6+POW9Pc6YL8x+js1YX8vjOzvKsBDDfT3naRZZXF2ZH+lWAaAxKo+e636LSLMUveOyP3MAs4H7iZ8id9F+NW4GbAP6SZ3OSNy+0WEWereGbmf7YGfEvp7EaG/02hffxcT+nt45H5G+nsPT/x929hfSeqENowAAOwRUUeT7VHSnGh2b0FfemlzEvV3txb0pdf+rp2gv1IMRwAS8ybAdruMsOZ7251M3OyDIy4n/Gpvu1T9vYJuDK2fQtxsi5LUGW0ZAQB4YUQtTbRHgfUT9nevFvRpov5ukLC/L2hBnybq74YJ+ytV5QhAYo4AtN9s4KzcRYzjH4mbX35lFwFnJtxfav9E3HoJK7sY+G7C/aX2CeD+3EVIUlPaNAIA4bG1ByJqqqtdRj03kj6ppf29vMb+/rkF/Vu5XVFTf6UqHAFIzBGAbrgHOITqCwTV4RHgTYTV6VK7l3b2943YX0kaaG0bARjx0Yi6UrZFwItr7OeIf8jUv9H6+5Ka+wpwTKb+jdbfl9bcV6lfjgCoEW0NAABfiKgtRVsKHFxzH1f0+Zr60db+fq6mfvTT3zfX3kupfwYANaLNAWAIODaivpi2EHhDzf0bzdEV603R3zc20L+VldZfqRcGADWizQFgxNuA+RF19tvuJm6lwFil9fcwmu9vzMqIUt0MAGpEFwIAwA7ANRG19tp+TNpn/atqqr/nkvZZ/6pmEVbgq7u/59GO/krjMQCoEV0JABAe0/oAaRaWWbndCryqua70ZKS/D1JOf4+kvv6+urmuSFEMAGpElwLAiOmEu8j/2EONE7XfEm4Ea/Mz4NMJ18pT9fcQutHfO4nv79W0v7/SygwAakQXA8CIScDewEnA7+it5sXApcAnCcPOXTKJMF1yv/39NeX1998Il1GkLjIAJOYvgMGzjLBW/ch69TOBrYbbDGBNwqNec4G/ADcDNxFuOOuiZYTpkmcP/3sGsDVl9ncdwkjBIPVXkhrV5REASRpEjgAk5lTAkiQVyAAgSVKBDACSJBXIACBJUoEMAJIkFcjHANObQng0S5KUjuerxHxB09uBMC2vJEmt5SUASZIKZACQJKlABgBJkgpkAJAkqUAGAEmSCmQAkCSpQAYASZIKZACQJKlABgBJkgpkAJAkqUAGAEmSCmQAkCSpQAYASZIK5GqA6S0F5uQuQpIGzFrA5NxFDBIDQHrXAM/KXYQkDZirgGfmLmKQeAlAkqQCGQAkSSqQAUCSpAIZACRJKpABQJKkAhkAJEkqkAFAkqQCGQAkSSqQAUCSpAIZACRJKpABQJKkAhkAJEkqkAFAkqQCGQAkSSqQAUCSpAIZACRJKpABQJKkAhkAJEkqkAFAkqQCGQAkSSqQAWB0SzJtK0lSIwwAo7s/Ytv7klUhSVJNDACj+zNwe8VtL0tZiCRJdTAAjO2MCtssBs5KXYgkSWrO2sA9wPI+2uezVCpJg+8q+vs+XrHtnKFeddwewDx6e4NdDEzLU6YkDTwDgBq3E3ADY7+xlgJfBVbNVaAkFcAAkNiU3AV0wNXALOANwOuAbYF1CJcHfgF8Y/j/o3aaBqyeuwh10nxgYe4iJEm9ezbwbcLjnFV/MdhsywmP9X6bcDlQeTkCIGlM04Cvkf+kYRu8tgz4CjAV5WIASMxLABoUk4DvA6/IXYgG0hDwDmBD4DWEQCB1mvMAaFB8CE/+qt/+wAdyFyGlYADQIFgD+GjuIlSMj+GNpRoABgANghcTnsyQmjADeFHuIqRYBgANAm/wUdN8z6nzDAAaBP76V9Nm5i5AimUA0CD4S+4CVJw/5y5AimUA0CBwCWY17de5C5BiGQA0CC4C7s5dhIpxF2EacKnTDAAaBIvwMUA15x+AxbmLkGIZADQovgmckrsIDbyTgDNyFyGlYADQIDkCOBpYkLsQDZwFwEeA9+cuRErFtQD6N0SYeW5e7kL0N5YDxwPfAd5GmKxlM5y1TdXMB+4AfgZ8HfhT1mokZTETOBa4jnDtbzkwB/gp8HpCKJAk1cfVANW4VwAPMf6b6yJgg0z1SVIJDABq1GuApfT2BruJMEe4JCk9A4AaszEwl/7eZGdmqVSSBp8BIDGfAhjbMcCafW5zILBjDbVIkpSUAWB0k4ADKmw3RAgBkiS1mgFgdBsCG1XcdqeUhUiSVAcDwOjWj9jWpwEkSa1nABhdzOviaypJaj1PVpIkFcgAIElSgQwAkiQVyAAgSVKBDACSJBXIACBJUoEMAJIkFcgAIElSgQwAkiQVyAAgSVKBDACSJBXIACBJUoEMAJIkFcgAIElSgQwAkiQVyAAgSVKBDACSJBXIACBJUoEMAJIkFcgAIElSgQwAkiQVyAAgSVKBDACSJBXIACBJUoEMAJIkFcgAIElSgQwAkiQVyAAgSVKBDACSJBXIACBJUoEMAJIkFcgAIElSgQwAkiQVyAAgSVKBDACSJBXIACBJUoEMAJIkFcgAIElSgQwAkiQVaEruAjSQ1gJmAU8H1gZWzVuO1EmPA48AtwLXAnPzlqNBYwBQKhsABwFvAHYBJuctRxooS4ArgbOBM4AH8pajQeAlAMVaFzgRuAP4LLA7nvyl1KYAzwY+R/isfQ6YmbMgdZ8BQDEOAG4E3guslrkWqRSrA0cSPnuvy1yLOswAoComAZ8hDEeul7kWqVTrA98HjgeGMteiDjIAqF+TgFOBD+YuRBIARxE+k4YA9cUAoH6dAByauwhJf+UtwHG5i1C3GADUj9fjL3+prY4CXpO7CHWHAUC9mgmckrsISWMaAr4EzMhdiLrBAKBefYJw05Gk9toA+HjuItQNBgD1Yn3g7bmLkNSTw/HpHPXAAKBeHEx49lhS+60B/F3uItR+BgD14oDcBUjqy4G5C1D7GQA0kenArrmLkNSX3YA1cxehdjMAaCKzcNEoqWtWAbbLXYTazS92TWTLyO0vJKxiJqk/uwEvjNj+6cDliWrRADIAaCJrR2w7G9gnVSFSgWYDe1Xcdp2EdWgAeQlAE1k1Ytv/S1aFVKaY0TNX6NS4DACaSMwCI8uSVSGVKeYz5OJAGpcBQJKkAhkAJEkqkAFAkqQCGQAkSSqQAUCSpAIZACRJKpABQJKkAhkAJEkqkAFAkqQCGQAkSSqQAUCSpAIZACRJKpABQJKkAhkAJEkqkAFAkqQCGQAkSSqQAUCSpAIZADSR5RHbTk5WhVSmmM9QzGdXBTAAaCILIrZ9HoYAqarJwJ4R289PVYgG05TcBaj1Ho7Ydg/gN8AVwLI05UhFmATsDsyK2MdDiWrRgDIAaCK3RG6/w3CT1KybcxegdvMSgCZyPbAwdxGS+vI48PvcRajdDACayHzg17mLkNSXXxF3/44KYABQL87KXYCkvpyZuwC1nwFAvfgu8GjuIiT15BHg7NxFqP0MAOrFo8BJuYuQ1JMvAHNyF6H2MwCoV58C7sxdhKRx/RE4IXcR6gYDgHo1H3grsDR3IZJGtQx4G/BY7kLUDQYA9WM28PHcRUga1THABbmLUHcYANSv44BP5y5C0l85AYf+1ScDgKo4CvgIXg6QclsCfIjweZT6YgBQVScA+wC35y5EKtStwN7AZ3MXom4yACjGxcD2wEeBBzLXIpXiAcL1/lnAJZlrUYcZABRrAeERwacCBwE/xkmDpNQeAc4B/o7wWfsPwnz/UmWuBqhUFgDfGW6Tgc2BrYC1hpuk/swZbjcDf8B7bpSYAUB1WEq4Pnlr7kIkSaPzEoAkSQUyAEiSVCADgCRJBTIASJJUIAOAJEkFMgBIklQgA4AkSQUyAEiSVCADgCRJBTIASJJUIAOAJEkFMgBIklQgA4AkSQUyAEiSVCADgCRJBTIASJJUIAOAJEkFMgBIklQgA4AkSQUyAEiSVCADgCRJBTIASJJUIAOAJEkFMgBIklQgA4AkSQUyAEiSVCADgCRJBTIASJJUIAOAJEkFMgBIklSgKbkL0MAZArYHdga2BNYBpmWtSOqmhcAjwK3Ab4DfAcuzVqSBYgBQKjsBbwcOADbIXIs0iO4Hvgd8Dbgmcy0aAF4CUKxnAD8h/EJ5D578pbpsCBwB/BY4F9gqbznqOgOAqhoCjiH8Enn58L8l1W8IeCVwLXAUfvZUkQFAVawK/BD4FDA1cy1SqaYBxxMuC6yauRZ1kAFA/VqVMOT/6tyFSALgdcB5eLOt+mQAUD+GgG8C++QuRNJf2Rc4LXcR6hYDgPpxBOEuf0nt8ybg3bmLUHcYANSrTYF/z12EpHF9Gnhq7iLUDQYA9erfgDVzFyFpXKsDx+YuQt1gAFAvnkoYXpTUfgcRRuykcRkA1ItDcdZIqStWAQ7JXYTazwCgXrw2dwGS+uJnVhMyAGgi6wKzchchqS87ATNyF6F2MwBoIrPwfSJ1zSTCqpzSmLyuq4lsHrHtcuCrwFWJapFKsgthhc2qc/1vAVySrhwNGgOAJrJWxLY/Bg5PVYhUmK8QVtd8VcXt105YiwaQQ7uaSMz84jcnq0Iq000R27pAkMZlAFCdlucuQOo4P0OqjQFAkqQCGQAkSSqQAUCSpAIZACRJKpABQJKkAhkAJEkqkAFAkqQCGQAkSSqQAUCSpAIZACRJKpABQJKkAhkAJEkqkAFAkqQCGQAkSSqQAUCSpAIZACRJKpABQJKkAhkANJFlEduukqwKqUwxn6GYz64KYADQROZHbPsyYHqqQqTCTCd8hqp6LFUhGkxTcheg1nswYtttgNuA6/DXiNSPScAOwHoR+/hLolo0oAwAmshNkduvD+ydohBJfYn97GrAeQlAE/kdMC93EZL6Mhe4IXcRajcDgCayGLg4dxGS+jKb8NmVxmQAUC++m7sASX35Tu4C1H4GAPXiB8C9uYuQ1JN7gB/nLkLtZwBQLx4Hjs9dhKSefIrwmZXGZQBQr04Grs9dhKRxXQN8KXcR6gYDgHq1GPg7YEHuQiSN6nHgLcCSzHWoIwwA6sd1wNuB5bkLkfRXlgFvBa7OXYi6wwCgfn0HeA/O7Ce1xTLCZ/LM3IWoWwwAquKLwIGEyUYk5TMHeD1e91cFBgBV9QPgWThJkJTLRYTP4I8y16GOMgAoxi3ACwmjAddkrkUqxdWEX/17A7dmrkUd5mJAirUc+N5w240QBvYBtiNuLXNJwWLCI7g/B84GrsxbjgaFAUApXTHcIJz8NwPWAmbkKkjqsIeBR4E7cV5/1cAAoLosJlwikCS1kPcASJJUIAOAJEkFMgBIklQgA4AkSQUyAEiSVCADgCRJBTIASJJUIAOAJEkFMgBIklQgA4AkSQUyAEiSVCADgCRJBTIASJJUIAOAJEkFMgBIklQgA4AkSQUyAEiSVCADgCRJBTIASJJUIAOAJEkFMgBIklQgA4AkSQUyAEiSVCADgCRJBTIASJJUIAOAJEkFMgBIklQgA4AkSQUyAEiSVCADgCRJBTIASJJUIAOAJEkFMgBIklQgA4AkSQUyAEiSVKApuQuQ1JOpwBbAJsAawLS85fyNhcBjwN3AbcDivOVImogBQGqnmcBLgRcCzweeRnc+r0sIIeAS4ELgf4CHslYkST3aCVhesV2VoV4NhiHg5cAPCb+oq74H29YeB34A7DfcR6mKq6j+Htw5Q73qKAOAmjQEvAG4lvwn67rbNcABGATUPwNAYt4EKOW1FfC/wJnArMy1NGEH4GzgImD7vKVIZTMASHkMAR8Ergf2zVxLDnsSftEdiaMBUhYGAKl5awLnAJ8BVslcS05Tgc8R7nlYI3MtUnEMAFKzZhLuit8/dyEt8mpgNrB+7kKkkhgApObMBH4BPCd3IS20K+GRwZm5C5FKYQCQmrEacC6wXe5CWmx74Hy8HCA1wgAgNeMrwHNzF9EBuwNfy12EVAIDgFS/dwAH5y6iQ94IHJa7CGnQGQCkem0KfDZ3ER10EvDU3EVIg8wAINXrRMJjf+rP6sAJuYuQBpkBQKrPnoRH3FTNAfjEhFSbrqwuJnXRR2vY523AXcADNew7xgbAkwmrFqb0ccIiQpLUCBcDUqwdSLeAzv3AR4AtGu1BNU8DjibUnKr/rhkgcDEgNcQAoFifJf7Etwz4NN28h2A6aV6D5XgvgAIDgBphAFCMycC9xJ30FgIHNV14DQ4m9CXmtbgb71eSASA57wGQ0tsZ2ChyH+8FzkhQS27fJnzPnBaxj42BHYHfJqlobGsALyD8/TYhzN44F/gDcAVwGbC05hokZeYIgGIcRdwv3q83X3LtTifuNflQjbVtTwgqj01Qw73AcbhoUS6OAKgRBgDF+CHV3z/zgCc1X3LtNmHiE+x47fs11DQdOIXwq77fv9HHCSMEao4BQI0wACjG76j+/jklQ71N+TLVX5frEteyBXBjRD3LCZcGDkhcl8ZmAEjMG2uktCYDW0Zsf06qQlroRxHbbkm676vNgF8CWyfYz9nARYQfDZIGgCMAqmodqr93ljHYw8qrE/eLe60ENawGXB9Zx2htCWGEw/sD6uMIQGKOAEhpxTyz/xCwIFUhLTQfeDhi++kJavhnYLsE+1nZZOCdwM3AB4FVajiGlJQBQEpr9YhtH0xWRXvFTGG8RuSxNwXeF7mPiawDfIZwH4j3B6jVDABSWssitp2crIr2iuljzGsLcAQwLXIfvXo64f6A84FnNHRMqS8GACmtxyK2HcTH/1YWM0HS3Mhj5/hF/jLgWsK0yOtkOL40JgOAlFbMSWp1YL1UhbTQBsQN48+L2PYpwOYR28dYBfgAYSXH91PGSI86wAAgpTUPmBOx/UtTFdJCL4vY9hHiRldmRWybykzg84S72ffKW4pkAJDqcFPEtgcmq6J9YobgY15TaNfIyo7AbOA8urHEswaUAUBK74aIbV8B7JqqkBbZA9gvYvvfRx6/jfMrvILwtMAniX/CQeqbAUBK7xcR2w4BJwJTE9XSBtMIfRqK2EfMa0rkseu0KvAxwvwB78TvZDXIN5uU3oWR2+/BYK0J8EXiRzVmpyikxTYmzCR4OfCczLWoEAYAKb0/EB79ivE24Du0c+i6V9OAU4G3Ru7nt8Cd8eV0wi6EdQrOJjy5INXGACDV45sJ9vEm4BLg+Qn21bQ9gUuJP/kDfCvBPmKcTphC+PGGjjdEuGHyBuBYwmUCSQ1xMSDF2ogwr3+qxWYuAN5FuGu8jfcHTAWeBrwb+Dnp+j2fMH9ArHdH1HDy8D6eTAh2yxL2r5f2R+CQBK9B17kYUGJTchcgDaj7gNMIJ54U9hluI2IW1anDjJr2+3XgzzXtu19/IpyITyU8z79jQ8fdlDAK8VbgSOCaho4rFckRAKWwGWHYuMlfi4PUFhBOfimkGAFY0SRCGLi/5tdg5baUMAqRYlSkaxwBSMx7AKT63AEcn7uIDjsOuCt3EWNYRjgRbw38B7CwoeNOAt5MmBjpaNp5OUgdYQCQ6vUpwhzw6s8thBNr2z0CHAPsAPykweOuQwhI1wEvb/C4GiAGAKleCwh38y/KXUiHLCYMrzd1130KNwOvBF5EmN2vKVsRgsfPgO0aPK4GgAFAqt+VwFG5i+iQDwCX5S6iogsI15uPJIwONGVfwnwJXwDWbvC46jADgNSMEwlrwmt8JzP6TXddsphwIn4a4e++tKHjrgK8D5cdVo8MAFJzjiI8zqXRnQ68N3cRCT1EOBHvAlzc4HHXJTymeCVhQiZpVAYAqTnLCM9yn5C7kBY6ETiM8MjWoLka2AvYnzBNdFN2JgSP84DNGzyuOsIAIDVrOfAR4D009+hYmz1OeEb//YSANMjOA55BuD9gboPHHVl2+DhgeoPHVcsZAKQ8TiGs+nZT7kIyuoHwGnwpdyENWkS4P+AZwFdoLvSsRpg34AbCExZtXR5ZDTIASPn8BphF+EU4L3MtTVpAWFxnZ8Kd6yW6BzicsPTzpQ0edxPCvRaXA89u8LhqIQOAlNeKd4z/M/Bo3nJq9RjhWv+WhFXuvAQSbtR7HnAgYdGfpuwK/Iowm+FGDR5Xaj3XAlAuMwir/v2K5ledq6MtI6xvfzj1LRjUi9RrAdRhDUIwSrmKZC9tHt1Ydti1ANQIA4DaYH3CuvAnEmZ6uxNYQv6T+lhtyXCNPxuu+QBgveSvSjVdUQWOPwAADK9JREFUCAAjNiX8Mm/673cn7V522ACQmMsBS+31APC94bai1Wjfr7XHCb9cFe8uwon4NMLz/Ds0dNynEO4PeAvhvpRrGzquMjEASN2zAE+2JZhN+OV6MGHuiKaWAH4h4ebMM4APEYKoBpA3AUpSe40sO/wMwuqITS0q5bLDBTAASFL7PcwTyw6f3+BxZxAmELoW2K/B46oBBgBJ6o6bgJcTlh3+fYPH3Rr4KeEGz20bPK5qZACQpO65gPC00pE0O3fEvoS1DVx2eAAYACSpm1x2WFEMAJLUbQ8STsS7Apc0eNyRZYevAJ7f4HGViAFAkgbDb4E9CcsO39HgcZ8J/IKw2uFmDR5XkQwAkjRYziPcqHcMzS4yteKyw2s2eFxVZACQpMGzgDBvwDOAbxGmw23C6oR5A27EZYdbzwAgSYPrbsKJeA/g1w0ed2TZ4cuGj60WMgBI0uC7AngucChwX4PH3Q24FJcdbiUDgCSVYTnhRLw1YW2BpqYVHiJMK/x7QgBRSxgAJKksc4CPANvxtytN1mkG8A3g64S5BJSZAUCSynQrcCDwYpqdVvgw4Gt4g2B2BgBJKtvPgB0Js/s91NAxDwE+3NCxNAYDgCRpCXASsBVwyvC/6/avhMcUlYkBQJI04kHgPcAs4L9qPtY04Niaj6FxGAAkSSu7EdgPeA1h0Z+6HABsXOP+NQ4DgCRpLOcQnhY4Bphbw/4nAa+rYb/qgQFAkjSehYRphbcGvkL6ZYefl3h/6pEBQJLUi3uBw4Fnk3Za4e0S7kt9MABIkvpxJfAcwrLDdybY33oJ9qEKDACSpCoeGG6xPA9l4gsvSerHJoQ1BS4Fdkmwv6YmH9JKpuQuQJLUCVOBdxMm8JmecL9NTkOsFRgAJEkTeR1hBcHNa9j35TXsUz0wAEiSxrIN8DngJTUe4wc17lvj8B4ASdLKZgJfAK6j3pP/fxNWJVQGjgBIkkasQlgL4BPAOjUfaxmuBZCVAUCSBPBSwnB/Uyv0fRav/2flJQBJKtvTgbMJq/81dfKfDXysoWNpDAYASSrTmsCngesJq/I15XzCLIKLGjymRuElgNEti9h2crIqJKkeuwFnAFs2eMzFwL8DnwSWVNg+5rs15jt9YBkARjc/YtsNk1UhSekdCnyVcMNfU2YDRwLXRuxjZsS28yK2HVheAhhdzLrXG2CwktROrwa+RnMn/7sIgWNv4k7+k4B1I7afE7HtwDIAjO5RYHnFbSfR7LCaJPViB+BMmvmBMo9wk99WhHUDYm0DrF5x22WE73StxAAwuseBP0Vs/4pUhUhSApOALwLTaj7OcuB7wHaE6/2PJ9rvnhHb3oU3HI7KADC2GyO2fXWyKiQp3iHAc2o+xuXAs4EDgT8m3vebI7a9IVkVA8YAMLbrI7Z9DuEuW0lqg8Nr3Pc9w/t/DvVM7LMjIVhU9btUhQwaA8DYLorYdoiwcpYk5bYVsHsN+10EnEi4Pv8V6nvU7vjI7WcnqUJFWZvwrOryiBYzbCUpnXdT/XN8coZ6U3ofcd9jo7XzgC0aqP1NkXUuAqY3UGcnOQIwtkeBX0Tu4yt4KUBSXtsm3NcNhDUDXgncnnC/o9me8B0a42LiHuseaAaA8cU+vrIqcA7hGpYk5ZBifv+/EEZRZgH/k2B/E9lm+DhrRu4nxSOIKtR0wvOsscNlc4HXNly7pCeUfAngl1Tv+2Lgy8B6Ddb7CkLgiP3enQOs0WDdneMIwPjmEj8EBSHFfh/4NrBZgv1JUq8WRGx7H/BBwgm5bhsTvm/PJW7WvxFfBh5LsB8VbGPCZBapbp55nPAmfwkwtcF+SCUreQTgTOK+s/6l5vrWI6xKOD+yzhXbfGCjmuvuPOesn9g9hBm0jky0v2nAO4bbHMJ8A/cCdxOX1KVB8CDhM3EhsDBzLYPiMuANEdt/GDgVuCNJNX/txcB3iVvoZzQnE0YvpGhrEYJAqnRqs9nGbw8CHyLd8toljwDsQvzf46wa6tqLEPJSv3fuxkf/euI9AL2ZA3wgdxFSQWYShoXPBVbLXEvXXQX8PnIfBwIvSFDLiNUJd+jXcRn0SHz0rycGgN6dBZyeuwipMPsR1q5XdcuBzyXYz+dJNyJzELBpon2t6HTCYkTqgQGgP+8hPklL6s9BwL65i+i4bxG/QM9OwGEJaoF6Vky9CXhvDfsdWAaA/jxGmAHr3tyFSIV5f+4CEluLsMDNfsD+hOVu67xrfSFwdIL9fJIwTXqsFJMTrehBQqhw6F+12xF4hPw3StlspbQFxD211IabAJ8CHAtcS1g4Z7Rj3QX8J/VMIT4EXDLGcftpn0lQy+0J6hhp84DnJ6hJ6tmzgPvJ/8Vos5XSNqG6nAFgQ+BL9H/H+8+A7SKPvbJnAkv7rGPltpCwwmCMX0TWMNLmEZ4mUAVeAqjuKuB51L8ghqSgruVm6zIVOAq4GTic/u943xf4DeFxyFR+A5wWuY+pwGcj9/HLyO0BHgBeRNzS7VKUGcCPyP/ryGYb5DaXuB8sTY8A7A/cEnHMldsXCUP4KWxIWO00tqaXRtSwFXEjEdfSzHLE0oSGgCMI8wXk/qK02QaxxT7a1VQA2Bb434hjjdc+VaHfYzkqQT03AKtE1HByhWMuA07BuSHUQpsQ5gvI/WVpsw1SWwbsQZy6A8AM4Djqmdluxfaaqi/ASqYSHpuLrSdmivTVgIv7ONbvSDsZkVSLXYBzGPtOX5vN1nv7AvHqCgBTgL8nzfK1vbR7SPMYHoRHmmPreRhYP6KG1QhPPSwe5xjXAAeTbhIiqRHbAscDfyL/l6jN1sV2GmkWLasjALyQcHJq+jU5IfbFWMF/Jajniwnq2AL4COFSzwXAD4GPE562kjptMvBc4J8Id6x6r4DNNn67BXgT6aQMAJsS5rHP9dosBLZO8qrANsCiyHqWEOZGUce4HHAzlgK/Gm4ja2tvTPgQrwesA6xJPQtjSF2xlDC3xvXAbzPXMpo1CDfPHQ2smrGOqYSFkl6ZYF83EH7Bvy9iH5MJw/h7EgKBJEmtETMC8EXgAMJc+rlHRlZsL0v02swgPFMfW8/rEtUjSVIyMQEgdoi8rvZ74h7DW9HfJ6jndvKOjKhPzgQoSeNLdZJNbRvCiTuFLxMm14mxOWlnLZQkKVrMCECb20OE+4hS2DtBPY8RFj1SBzgCIEndNYMnbiyOdSFhWvMYqxOWDJYkqRXeQv5f6yu3q4brGm8SnF7aEmCHRK/TFsDjkfWkmLlRkqQkXkX+E/5Iuw94G0+MwJ6YYJ8XJnqdIKw5EFvPZaRbvEiSpMq2JP+JfyFhZtC1VqptJmmmEn5t7Is0bDphyuHYenwsUJKU3RDhl3euk/+5wNPHqS/FY3i3ke4xvEMT1HNpolokSYpSZfnZ2PY74MU91DaF8Bhe7PH+oe9XZXSTgMsT1LNbonokSapsG8J0w02c+B8iTBncz/TeKR7Dm0uYZjyFPYhf0fQfE9UiSVKU06j3xL+YMNKwbsX6fpightMrHns034qs5fyEtUiSVNkM6lue++fArMj6Uj2Gt3tkHSM2AeZF1HJHojokSYq2M2mX5L4NeE3C+lI8hvdr0jyGtx1wU0Qd9yWoQZKkZHYnLD0cc5KdCxwDTEtcW6rH8N4cUcNM4CTiJyl6MKIGSZJqsSnwP/R/UlsKfAN4Uo21HVqhrpXbn4A1+zzuFOAIwok7xejIdX0eX5KkRgwB+xOGzCc6mS0CzgZ2bKCuScAVPdQ0UetnXv59gesTHHPFdlb/XZckqVlPB94HnEoYGfgl8BPCUPihVL+zv6pnE/8Y3gJgswmOsyVwTuRxxmofjui/JEnFin0MbznwvTH2vQZwLCEk1HHyXwo8Of4lkCSpPLGP4Y20vVbY5yTgrcC9CfY7XvtpyhdCkqTS/CPxJ+PrCTf47UqYo7/OE/9ywhLFO9XxYkiSVIrVgD8Qf1K+gvh7Cnptn6vllZAkqTAH0MyJO0X7FbB6PS+DJEnluYj8J/eJ2lXA2jX1X5KkIu1IuLae+yQ/Vvsm/U88JEmSevBl8p/oV273Am+ss9OSJJVufeBh8p/0lxNmRvwCDvlLktSID5L/5P8zYNu6OypJkp6wCnAjeU78NwL71d9FSZI0mhfR7In/IeBoYGoTnZMkSWOrawGfFdti4D9pfiEkSZI0ho2AB6jv5H8BsH1jvZEkST3bHXiMtCf+PwKHNNkJSZLUv32BR4g/8c8hXOef1mz5kiSpqm2BK6l24l8KnAY8qfGqJUlStCnAu+h95cBlhBsJn5mjWOU3lLsASVJSk4G9gP2BXYCnATOBhcBfgOuAS4DvAXdkqVCt8P8Aso+gnoExGQEAAAAASUVORK5CYII=;" parent="1" vertex="1">
          <mxGeometry x="190" y="510" width="80" height="80" as="geometry" />
        </mxCell>
        <mxCell id="TjRo9aIQS-ce4NooAczT-10" value="" style="endArrow=classic;html=1;rounded=0;fontFamily=Courier New;fontSize=18;entryX=1;entryY=0;entryDx=0;entryDy=0;" parent="1" target="TjRo9aIQS-ce4NooAczT-9" edge="1">
          <mxGeometry width="50" height="50" relative="1" as="geometry">
            <mxPoint x="330" y="420" as="sourcePoint" />
            <mxPoint x="280" y="480" as="targetPoint" />
          </mxGeometry>
        </mxCell>
        <mxCell id="TjRo9aIQS-ce4NooAczT-11" value="" style="endArrow=classic;html=1;rounded=0;fontFamily=Courier New;fontSize=18;" parent="1" edge="1">
          <mxGeometry width="50" height="50" relative="1" as="geometry">
            <mxPoint x="420" y="419" as="sourcePoint" />
            <mxPoint x="490" y="510" as="targetPoint" />
          </mxGeometry>
        </mxCell>
        <mxCell id="TjRo9aIQS-ce4NooAczT-12" value="&lt;font face=&quot;Courier New&quot;&gt;&lt;span style=&quot;font-size: 18px&quot;&gt;&lt;b&gt;BECOME A BLOOD&lt;br&gt;DONOR&lt;br&gt;&lt;/b&gt;&lt;/span&gt;&lt;/font&gt;" style="text;html=1;align=center;verticalAlign=middle;resizable=0;points=[];autosize=1;strokeColor=none;fillColor=none;" parent="1" vertex="1">
          <mxGeometry x="145" y="610" width="170" height="40" as="geometry" />
        </mxCell>
        <mxCell id="TjRo9aIQS-ce4NooAczT-13" value="&lt;font face=&quot;Courier New&quot;&gt;&lt;span style=&quot;font-size: 18px&quot;&gt;&lt;b&gt;FIND A BLOOD&lt;br&gt;DONOR&lt;br&gt;&lt;/b&gt;&lt;/span&gt;&lt;/font&gt;" style="text;html=1;align=center;verticalAlign=middle;resizable=0;points=[];autosize=1;strokeColor=none;fillColor=none;" parent="1" vertex="1">
          <mxGeometry x="465" y="610" width="150" height="40" as="geometry" />
        </mxCell>
        <mxCell id="xoJ8Gb0aEFxm84YsZ9i9-1" value="" style="shape=image;verticalLabelPosition=bottom;labelBackgroundColor=default;verticalAlign=top;aspect=fixed;imageAspect=0;image=data:image/png,iVBORw0KGgoAAAANSUhEUgAAAgAAAAIACAYAAAD0eNT6AAAABHNCSVQICAgIfAhkiAAAAAlwSFlzAAAOxAAADsQBlSsOGwAAABl0RVh0U29mdHdhcmUAd3d3Lmlua3NjYXBlLm9yZ5vuPBoAACAASURBVHic7d15tGZVfeD9b83jLagqChAspjAIBRJBI1OiBgwYcegk0hgV306MccbhVdO9srrtId3mzZLEpYmabk1HTeTFRBNRowIxURC0FZkKERGBEtGCGi81Qd26/cfvPNZTl1vFvfcM+5yzv5+19nqGus85ez91zt6/Z5999gZJkiRJkiRJkiRJkiRJkiRJkiRJkiRJkiRJkiRJkiRJkiRJkiRJkiRJkiRJkiRJkjTRrNQZKKwCngecBZwMHFu8txSYnzBfkvL2GPAo8DBwL/A94CbgX4r3pM5KGQAsBy4FLgOenTgvkjQd48CNwCeAK4HNabMjTV+KRvdw4O3A64lf+JLUZaPAXwBXAOsT50WasjkN7msu8GbgM8CvYte+pH5YAJwHvAEYA74J7EmaI2kKmuoBOI7oJntWQ/uTpFS+SVzevC9xPqQDmt3APl4I3IyNv6Q8PJuo8y5KnRHpQOq+BPBK4FPA4pr3I0ltsojoBXgQ+G7ivEiTqjMAeDXw1zXvQ5LaajbwYuL2wdsS50V6grrGAFwMfJYY+CdJOXsceAnwT6kzIg2rIwA4mrj+taKGbUtSF20GzgB+lDoj0kDVgwDnAp/Gxl+Shh1MjIfykqhao+qD8a3Av6t4m5LUB08FHgG+lTojElR7CeBw4G5gpMJtSlKfbAFOwHUE1AJVXgJ4Bzb+knQgBxE9pVJyVfUALAfuxwBAkp7MVuAoojdASqaqHoBLsfGXpKlYBlySOhNSVW4klsesIt0GXA6sAZY0WQhJmmAJURddDtxOdfXc15sshFSXVcTKV2VPiJ3EEsFNrE8gSdM1B3gjsIvy9d0Y3i6tHriEahr/5zWdcUmagV+lmiDgN5vOuDSsil/bZ1WwjbcCX61gO5JUt38m7noqq4q6U0rqi5S/5m+3v6QumQPcQbm67+rGcy0NqaLhPaHk5z9KjCGQpK4YI+quMsrWnVJyj1AuCj6l+SxLUmmnUq7uW998lqVqlR0Ms7T5LEtSaSOUH/wsJVPFTIDjLciDJKVg/afOcvCdJEkZMgCQJClDBgCSJGXIAECSpAwZAEiSlCEDAEmSMmQAIElShuamzkANTgNeA5wPHEOs553SNuA+4FrgfxHzh9cpt/KXvQ9baZW9D9778KWEyi6JWZUFwF8Qc3SXzVNdaTfwQWB+heXOvfypy2Qql8rKff9SUm04ARYQS3Smrsymmq6j2kYw5/KnLoupXCor9/1LSbXhBPhQBfloOn2gorLnXv7U5TCVS2Xlvn9pxvqwFsBpwC10b0DjGHA6sLbkdnIvv5Vot3V9DEDq/Usz1rVGYzKvoZvlmAP8bgXbyb38kqQZ6GLDMdEFqTNQwvMr2Ebu5ZckzUAfLgGMAktLbiOVUWBZBdvIufxeAui2rnfBp96/NGN9CAC63gBY/nK6Xv7cpf7/7/r+pRnrwyUASZI0TQYAkiRlyABAkqQMGQBIkpQhAwBJkjJkACBJUoYMACRJytDc1BlogdT3AafW9fJ7H3Xe/P+XZsgeAEmSMmQAIElShgwAJEnKkAGAJEkZMgCQJClDBgCSJGXIAECSpAwZAEiSlCEDAEmSMmQAIElShgwAJEnKkAGAJEkZMgCQJClDBgCSJGXIAECSpAzNTZ2BFki9nn1qXS9/1/Ofu1klP1/2/7/s/qXOsgdAkqQMGQBIkpQhAwBJkjJkACBJUoYMACRJypABgCRJGTIAkCQpQ30IAEZTZ6CErRVsI/fyS5JmoA8BwLrUGSjhgQq2kXv5JUkz0IcA4JrUGSjhKxVsI/fyS5JmoIppMFNPxXkqcAswp+R2mjYGPB24s+R2ci+/UwF3W9enAk69f2nG+tADcAfw4dSZmIE/p3zjB5ZfkpTIeMlUhfnAtRXkpal0DTCvorLnXv7UZTGVS2Xlvn8pqbacAPOBDwC7K8hTXWk38H6qbfxzL3/qMpnKpbJy3780Y30YAzDRGuB3gecDxwBLK97+dD0K3EcMePso9Xd751Z+K9Fu6/o1+NT7l2asjwGAJDXF+k+d1YdBgJIkaZoMACRJypABgCRJGTIAkCQpQwYAkiRlyABAkqQMGQBIkpShKgKAx0p+fqSCPEhS05aV/PyuSnIhzVAVAcDWkp9fXUEeJKlpR5X8fNm6UyqligBgU8nPP7+CPEhS08rWXRsqyYWU0BcptxjG7XRvLXtJeZsDrKVc3Xd147mWhlTRA3BXyc+fCryugnxIUlPeCJxSchtl604puZdRfknMXcD5TWdckmbgAmLwc9l67zeazrhUtVXAHqoJAt6ElwMktdMc4C1U0/iPASuazb5Ujxsof0IM0h3A24hLA6nXspeUt6VEXfR2yl/zH07/2mQhpMnMrWg7nwDOqWhba4ArKtqWJLXRJ1JnQJpV0XYOBh7ASX0k6clsIeYQcB4AJVXVVMCbgQ9VtC1J6rMPYOOvFqiqBwDgUOAHlJ8eU5L6ahNwIvBI6oxIVY643wbsAC6qcJuS1CfvAL6WOhMSVNsDABFQXA+cVfF2JanrvgH8CnELoJRc1QEAxOI+3wVW1rBtSeqiTcAZwH2J8yH9XFWDAIetA14JPF7DtiWpax4D/i02/mqZumbdu4c42F9KPb0MktQFe4BXA/+YOiPSRHVOu3sbEQi8qOb9SFIb7QZeC3w8dUakyTTx6/wFwN8AyxvYlyS1wUbgUuCa1BmR9qep7vljgCuBZze0P0lK5RvAy4nZUaXWqmMQ4GTuI9YKeDWwoaF9SlKTNgNvJW71s/FX6zV5bX4cuBX4K+La2OnAggb3L0l12AK8D3gF8FWirpNaL+UI/YOAS4DLiN6BpnojJKmsPcQy6B8HrsK5/dVBbblFbwXwXOBs4GnA8cAhxOqC9hJISmUX0bhvIO5qugu4EfgXYqCf1FltCQDKKNvdlvo76Hr+1W1dP/66nn8pGbvdJUnKkAGAJEkZMgCQJClDBgCSJGXIAECSpAwZAEiSlCEDAEmSMmQAIElShgwAJEnKkAGAJEkZMgCQJClDBgCSJGXIAECSpAwZAEiSlCEDAEmSMtSWtbBXAc8DzgJOBo4t3lsKzE+YL0l52w5sAB4BfgZ8F7i+SFsT5ksqLWUAsBy4FLgMeHbivEjSdIwBNwF/CVwF7EybHWn6UjS6hwNvB15P/MKXpC7bAHwUeC+wKXFepCmb0+C+5gJvBj4D/Cp27Uvqh8XAucDvAbuA/wOMJ82RNAVN9QAcB1wJPKuh/UlSKjcALwfWpc6IdCBNBAAvBP4GOKiBfUlSG/wU+DfEOAGpleq+DfDVwD9g4y8pL4cDXyV6AqRWqrMH4NXAX9W8D0lqszGiJ+Dq1BmRJqqrcb4Y+Cwx8E+ScradmOfkW6kzIg2rIwA4DrgZu/0laeBh4Azgx6kzIg1UPQZgLjHa38ZfkvZaBfx56kxIw6oOAN6Ct/pJ0mReDPxW6kxIA1VeAjgcuBsYqXCbktQnPwVOBEZTZ0SqsgfgHdj4S9KBHA78u9SZkKC6HoDlwP0YAEjSk7kHOAnYkzojyltVPQCXYuMvSVNxPHGrtJRUVT0ANwJnVbSt24mVta4F7gO2VbRdSXlaRvRSriDuUJpfPC4CFg69NwIsKZ4vBxYAJxC/1qseML2TWEVwV/F609D7O4rnW4hegseBR4v3HiXGDwzS5uJx8P7W4nOjwGMV51k9U0UAsAr4WQXb2gW8DfgIdo1JeqJ5wKHAU4hr6auIhnrQuC+fkAbvNbnqaZvsIgKDLcBGYi6CR4bS+uK9DcXrwXNlooqZ+p5HNY3/C4i5syXlZRFwDNG4H1k8HkE08ocVzw8tkqZuQZFWEhO0TcUY+wYI64r0k6HnDxLBgjquigCgiq7/t2LjL/XVIuBYopE/ungcTjbs7TGHCLoOA9Yc4O92ErMaPkgEBYPn9xGDHH/E3ssbaqkqLgF8kfj1PlO3A7+I3f5Sl40Q18pPBp5GDHQbNPaHpcuWEtkDPEAEAxPTD4kAQolV0QNwQsnPfxQbf6krnko08CcBpxSPJxXvSwOz2dvDc8GEf9tD9BgMAoK1xA/B23AMQqOq6AF4hLjGNFNrgDsryIek6iwBTicWsHkG8HSiofd2X9XpJ+wNBm4v0p14R0MtqggAdhIDTWZqGU6LKaW0nGjkn8HeBv9E8h09r3bZDXyfvYHBt4mllbekzFQfVBEAjLcgD5KmZgGxYNd5wDOJBv/YpDmSpm8PcBdw01C6k7iLQVNkACD12wjwbKLBP7d4XJg0R1I9HgVuBb4DXA98jZijRvthACD1y2rgl4mG/jxijE3Vs9hJXfF9YlbZa4lbzb1sMMQAQOq2hURDf0GRzkybHam1xoBb2BsQfJ3M5yowAJC65zhi7o0XEDNxLk6bHamTHgX+lQgGriFuR8yKAYDUfvOIhn7Q6J+UNjtSL/0I+Bzwj0TvwO602amfAYDUTnOAXwFeDvwmsbCNpGZsBL4AfBr4Mj2dh8AAQGqXNcCrgMuIVe8kpbUZuJoIBr5ELM/cC30MAE4DXgOcT0xDuaTi7U/XNmKBjGuB/wXcUfP+ci9/Fz2d+KV/KfF/pupsI0Z+7yAq8m3F863ENeAdxERko8XzR4t/216kR9m3wt/NEycum8rfjLDv1OvzgKVT/JvFRVpWvF5U/O1I8Xxp8W+Dvzu4eP8g0p//ffMz4BPAX9GDGWz7FAAsAP4U+H3ae9vTGPBh4O1U36WUe/m7ZgT4beL/6xmJ89IV29l37fpHitcbhp4Pv/8ILjqzEDiEmK79EGDV0POVE94fvOeg0qm5iQgEriSCxs7pSwCwAPgnYqBUF/wzMZirqkYw9/J3yenAG4hf/M6rv9cGnri07APF44PA/UQAoPotAY4CjizS4PlTiXkmjqTc+i99Mwr8NfDnxOyEndGXAOBDwOsq2E6TPgi8uaJt5V7+tpsFXET0fExcGS0XDwM/KNI9ROO+jr2N/o50WdMMLCICgyOIoOAoYgnoE4q0Kl3WkhknLnX+GfGDrGzbWLs+BACnEZM7tLXbe3/GiF+DZe89zb38bTYXeAXwLmLp3L7byN5GfjjdQ1x/Vz4OZt+A4MSh1znc0XIr8F5i4GCv1ycYL5nKen8FeUiVrrD8vTQX+H+Ihi/1d1xH2kzMs/5B4PeAs8ijUlc1VhDHzGuJY+hrxDGV+riuI90D/A77Du5sjT70AKylu7+u7iB+wZeRe/nbZBYxkv+/EbP1dd0eogK7lViGdZDuS5gn9dcxxB0xg3Q60WvQtd7NydwF/CHwGcq3mZXpQwAwyhNvp+mKUeL2nbLbyLn8bXEO0aPx7NQZKeFe9i6t+i1i/XUH3imlxcSPhF8ieg3OptvLV3+LGAt0Q+qMQD8CgNZEUzNk+bvtcKLhv5RulWUb8G3gRvY2+i6dqi44jL3BwFnAM+nWfAfjxF0D7wbWJ85LaWWvkaTef+pk+btpFjHh0kbSf4dTSQ8DVwFvJOYdaOU1SWkG5gJnEMf2VcSxnvp8m0raSMwD0qUfDk+QugFI/Z9o+dOWP4XVxNriqb+7A6VtxBzm7yQqxz5cR5WmYjZxzL+TOAe2kf58PFD6EnE7ZSelbgBS/+dZ/rTlb9q/ISatSf29TUy7iW78PyImhFpQ1xcgdcwC4pz4I+Ic2U3683Vi2gC8rK4voE6pG4DU/3GWP235mzIP+ADpv6/htINYpOR3yXPiFWkmVhHnzNXEOZT6PB5O76Njl+dSNwCp/8Msf9ryN2EFcB3pv6txYBPwSeC36O7dH1JbLCXOpU8S51bq83ucqGsOqbPQVUrdAKT+z7L8actft18A7ibtd7QZ+J/A84meCEnVm0ecY/+T9BMTfZ+YXrn1UjcAqRswy5+2/HU6gZinPsX3MgZcT8yW1qVbnKQ+WEhck7+aWOo5RR1wPzGFcqulbgDcf977r8tJxEI1TZ/0dxL3Bx9ZfxElTcGRxDl5J83XBw8RvZCtlboBcP95778OhwI/ormTfDfw98B5TRRO0oydR5yrTd5JcDctHuSbugFw/3nvv2oLgW/QzIm9FfhT+rFugJST44hlf7fSTF1xIy29tTd1A+D+895/1T5M/SfzOmI+8IMaKpOkehwEvINmxgr9aUNlmpbUDYD7z3v/VbqAWAGvrhN4I3EtcVFTBZLUiPnEgN2fUV/9sQf49aYKNFWpGwD3n/f+q7KU+qL47cB7geWNlUZSCsuJc3079dQl62jZD4jUDYD7z3v/VflD6jlhr8QR/VJujiTO/TrqlD9osBxPKnUD4P7z3n8VVlD9LGA/I2YYk5Sv3yKW/K2ybtlEi3oTUzcA7j/v/VfhXVR7gn6aFt+2I6lRhxJ1QpV1zOWNluAAUjcA7j/v/VfhNqo5KXcTg/wkaaLXAo9RTV1zW8N536/UDYD7z3v/ZT2dak7I7cBFDeddUre8gOoGCJ5aNjOzy25A6rjnVLCNx4GXAl+qYFuS+uufiLri8Qq29ctlN2AAoNw9u4JtvA34SgXbkdR/XyEmAivr7Aq2UVrqLmD3n/f+yyp7/f/rwKzGcy2py2YRq32WqXtuLpsJewCUu5UlP/8ntCOQkdQd40TdUcYhZTNRxS+XspVf2Ty4/7z3X9YOYgGgmVoObK4oL5LysZyYHnymdgCLy2RgbpkP90Tuv95yL3+Zxl+SUik9JbCXAKRyqriLQFJ+ktcdBgBSOe8k/WUMSd0yi6g7kjIAkMo5F3hT6kxI6pS3AOekzkQVUt8GVnb/qZPlT6uKMjyGswBKmpqLiImA+lB/Ji9A6gbM8nf7AK6qHDuAFzacd0ndcjFRV/Sl/kxegNQNmOXv9gFcZVlcDEjS/ryW6n75t6X+TF6A1A2Y5e/2AVxHmT4PHNFkISS11qHA39PP+jN5AbZWkIdUaYvlT66usm0iIn5J+XoZ8DD11TPJpS7A2grykCrdbvmTq7uMVwGrGyuNpDZYTZz7ddcvpfThNsBrUmeghCpWkMu9/G33MuAe4CNEV6Ck/loBvBf4PnHu917SCAY4lRh8lfrX7HTTbuAUy59ck2UeJSqHkUZKJqkpi4kBwJtotk5Jrg0F+GAF+Wg6vb+islv+clKU/UHgXcDBDZRPUn2WE+fyT0hTlyTXhgLMB66tIC9NpWuAeRWV3fKXk/J7GCUuDTyt9lJKqtJxRG/eZtLWIcm1pQDzgQ/Q7u7w3cQv3zoav9zLP1Opv5NxYAz4LC1YHETSAT2HOFfHSF9vjNdc1ilpWwHWAFcQI8xHK8hf2TRa5OV9NHPNO/fyT1fq72diugt4D3BsjWWWNHVHApcDt5K+fpiYkut8AZS11Cfw/tIYcD0xl8DS2kovaTILiVH8V1P97H0GALSoAMpa6hN4Kmkr8DHgQuJSj6TqzScW6vkY3ZlgLbnOF0BZS30CTzdtI36VXAYcVMP3IeVkMfAi4OOkH9DXePs5q+wGKshEFXmQZqrLQegu4OvE2gOfJm5FknRgK4mVOy8Gfh1YkjY7pZRqPw0AlLsuBwDD9gDfBq4r0g3AzqQ5ktphIXAucH6Rnkk/ZsEFAwCplL4EABPtAG4mBhJeC/wrMZhJ6rvZwDOAC4DziFv3+jr7pgGAVELZ43ctcetl220EvkoEAjcBt2BAoH6YB/wicBbw3CKtSJifqaqi7kjefjoIUF1W9vidS9yqt76CbTWZHiMuGbyfGFDovAPqiqcQA/feQ8wqup3059N00kZi3YD5FWwruZ2UK0Bfu2bUDVWdgCuINRnafM/wk6X7gSuJSU/OwXNT6Y0Qx+JbiWPzftKfJzNNjxOztQ73TlRV/8xIFd0HDwOHlPj8GuDOCvIhzUTZk2jiOXQq8MfE6OKuGwfuJWZAux24rXh+LxVUPtKQWcT8+qcDTwdOK54fRwu6uUsaB75A/Oqf2NZVXf807m7KRTCXN59l6efqisDPAD5De+YMrzJtBb4BfBh4PfDLwKEH/pqlnzuUOGZeTxxD36A7E+9MJ40Bf0cMSNyfuuqfKakievgi8IISn7+DGMAxVkFepOkqexI92Tm0BvgPwL8F5pTcV9ttAX4A3FM83l08/oC47ql8rABOKNKJxePxxWPfJ7AaIy5X/A9ioN+B1F3/1PfhwhXA20pu403An1eQF2m6mjoBTwDeDryCPK+tbyACg7uLx/uBB4v0ADHDobpjCXAUsVDOkcDRRAN/YvG4Ml3WkhkFPkm0ifdM8TOdDwBeBlxVchuPEddMryufHWlamj4BR4BXEt2fp5Xcd59sBn4MrCOCgsmeb02Wu7wsA1YDTyUa9+Hng0b/4GS5a5/bgA8Bf0MEAdPR+QBgFfCzCrb1GPAO4ov0coCakvIEPI8IBH4TWFAyHznYSfQkbAAeIQYgPzL0evBv64fe254kp+2xmBikvZK49r5y6PXg+aoJ7y1MktNu2UVMv/0hYgzDTHU+AICYdvScira1FvgocX/nfcCjFW1XmkzSE7BwCHAJ8NvEeZR8ZG+P7CB6DrYRYxS2F+9tKh53EL0Pg/e3FH+7nfg1N8YTex62EFMvD+9jeNrlyT6zjH3HgCwEFg29ns0Tr40PPjNCNORLir9ZVLw+uHi+CFg+9P5Bxd8um7APlTNOtHV/S/R6b6hom2W0IgB4HREJSbmpurFeDfwG8CrgzIq3LWn67iR+7X8C+GHF2+5FAHAwMZAnx8FNyludv9ZPI3oFXgo8rcb9SNrX94B/AD5FzIFRl14EABCTn7yrwu1JXdBUd/2xwPOJKVB/jZhGVFI1xog1Mq4GPkcEAE3oTQBwKHG/77IKtym1XYrr9cuBi4AXAxcWryVNz0bgy0SD/yViLEjTehMAQMzq92cVb1Nqs9QD9gZLn55HrHl+IQbh0mR2EIP4ri0ev0n6FTF7FQDMIdYfP6vi7UptlToAmGgBcDZwfpGeRaxYKOVmN/AtYn6Z64gu/l1Jc/REvQoAIEYxf5c8Z4JSftoWAEy0mFiX4Eyih+C5xH3fUt9sJRr8G4DvAF8jbtlss94FABDXJz8HzKtp+1JbtD0AmMxJRC/dOURvwcnYS6Bu2U3cnnfjULo7aY5mppcBAMR9zH9d8z6k1PpwfC8ilmB9BtFbcAaxrLGzE6oNdhG34t1M9C7fXLzekTJTFeltAAARBHwUewLUX30IACYzj1jJ8AxiXfY1wCnAU1JmSr33EPHLfi1wC9HgryX9YL269DoAgFgq+G/wViX1U18DgP1ZTgQCw+lkYuyPNFXriHvt10543JQyUwn0PgAAOIZYH/nZDe1PakpuAcD+jBDLwB4P/EKRBs+fit9TbsaJVRzvIabP/eHQ83uY/qp5fZVFAABxi+AbgP/KExe9kLrKhu3JLWRvUHAM0VswWGL2aOKywpz9fVitNEZ0199P/JofLNl8H9HA38u+CyRpctkEAAOrgLcBb8QJS9R9BgDlzSWCgKPYu978EcTsok8BDivSIakymJmHiSWVf1qk9cCDRVpHrPvyEDESX+VkFwAMHEQsgXoZcTvS7IR5kWbKAKA589gbFBxO/JhYCawYSiuJcQqD17kvUDZKTHk7nDYQ19oHz9cDPyMa9fX0d8BdG2UbAAxbQUxQcjax6tnxRLQ/grciqd3acg5pcvOI1UpHisclwNIiTfZ6FnsHLI8QvROLiMsY84q/o3ic7O6muew/6Bhl8l/NjwOPFs8fLV7vJG5z283e6+WbiAZjc/HetiLt7/VmbMzbzgCgpKRfYAW6nv+u8/uXlErS+sdud0mSMmQAIElShgwAJEnKkAGAJEkZMgCQJClDBgCSJGXIAECSpAwZAEiSlCEDAEmSMmQAIElShgwAJEnKkAGAJEkZMgCQJClDBgCSJGXIAECSpAzNTZ2BwirgecBZwMnAscV7S4H5Ne+77HrMqXU9/5KkBFIGAMuBS4HLgGcDsxLmRZKkrKQIAA4H3g68nviFL0mSGtZkADAXeCPwX4BlDe5XkiRN0FQAcBxwJfCshvYnSZIOoIm7AF4I3IyNvyRJrVF3APBK4LPAQTXvR5IkTUOdlwBeDfwVju6XJKl16mqcLyZ++bdlngGpLga4eSs7D4fHT96SHj91HHxHE9f8V9SwbaltrMDzZgCgMpIeP1WPAZgLfBobf0mSWq3qAOAtONpfkqTWq7L76XDgbmCkwm1KbWcXbt68BKAyenMJ4B3Y+EuS1AlVRZ/LgfsxAFB+/AWXN3sAVEYvegAuxcZfkqTs3EhEMlWk24DLgTXAkiYLoSyVPV6XN59ltUjZ40f5Wk4Pjp9VwB7KF2QnsURwE+sTSANlj9uXNJ9ltUjnK3Al81J6cPxcQjWN//OazrhE+WP3eryOm7POV+BKYhZwAz04fq6gfCFe13iupVD22B0H3tx4rtUWna/AlcTlVFP3JPdFyhXgNuz2VzpVnISPARc1nXG1QucrcDXuIuBxehIA/IByBbi8+SxLP1fFSTgO7ABe2HDelV7nK3A16mKirqiq3knuEcoV4JTmsyz9XFUn4jgR1b+l2ewrsc5X4GrM5cBuqq1zkttFuQIsbT7L0s9VeTIO0ueBI5oshJLpfAWu2h0K/D311DXJdb4AylodJ+U4sAl4bYPlkNQ+LwMepr56JrnOF0BZq+vEHKSrgNWNlUZSG6wmzv2665fkOl8AZa3uE3ScuEz2EaIrUFJ/rQDeC2ynmboluc4XQFlr4iQdpFGicnDdDKlfFgPvJi79NVmnJNf5AihrTZ6sg/Qg8C7g4AbKJ6k+y4lz+SekqUuS63wBlLUUJ+0gjRKXBp5WeyklVek4ojdvM2nrkOQ6XwBlLeXJO0hjwGeB59RcVknlPIc4V8dIX2+0ov3sfAGUtdQn8MR0F/Ae4Ngayyxp6o4kJvG5lfT1Q+vaz7YV4DTg/cAdwKMV5K9serTIy58Bp9ZQ3olyL/90pf5+9pfGiJUGX4uTZUlNW0jcw3811c3bX0dKri0FWAD8Be3p7+nO3AAAGElJREFUmpks7QY+CMyvsNyWv5zU38lU0lbgY8CFtOu7k/pkPrFQz8eIcy71eT+VlFwbCrAA+OcK8tJUuo5qK/Lcy19G6u9iumkb8avkMuCgGr4PKSeLgRcBHyf9gL6ZpOTaUIAPVZCPptMHKiq75S8n9fdQJu0EriGuT7r2gDQ1K4kA+iracZm0TCplVtkNVJCJsnk4DbgFmF1yO00bA04H1pbcTu7lL6v0SdQSe4BvE70r1wE3EAGClLuFwLnA+UV6Jt2rL/enija8lKQRDDHgLXUUNtN0heVPLvV3UFfaTgwifC9wATCvqi9MarnZwJnEzHxX053r+TNJyaUuwNoK8pAq3W75kytbhjsq2EYTaQPwd8CbgWdhQKD+mEcc028mlt3dQPrzram6o5Q+XAIYpbu3SY0CyyrYRs7lL6vs8TsP+B3gvwGrymenMY8DtxGXCr4DfB34UdIcSVPzFKIb/0yia/9cYFHSHE3PJuCPgT8lFgoro1T72YcAoHQUlJjlT6uq43cF8F+A3wfmltxmKg8ANxbp/xA9NKNJc6TcjRDjnH4JOAs4GzgqaY5mbjfwYeA/ARuL95K2nwYA6Vn+tKo+fk8lovtfL7ndNhgH7iVmQLud6DG4tXiv68ed2mUWMb/+6cDTiUb/9OK91HVEWePAF4gxCXdO8m9lGACU/Hxqlj+tuo7fM4A/BF5Cf0YcD4wS1y8HAcEdwPeB9Skzpc44FDiJCJYHDf6p9G+Z7D3EugF/BHx3P39jAJB4/6lZ/rTqPn7XEJH/y+nupYGp2kn0DqwtHu8dev1QwnypecuJX+/DaQ3R0Pd9Aqs9wBeB/8j+G/4BA4DE+0/N8qfV1PF7AvB24BX075fOVGwA7gHuLh7vBx4s0gPEDIfqjiXEtfgji3Q0cDxwYvG4Ml3WkhkFPknc3nzPFD9jAJB4/6lZ/rSaPn5HiN6ANxDdnwo7gZ8QPQYPTfJ88Kj6LSJG2h9RPB43yfPDSX/utsVdwP8G/pIY4T8dBgCJ95+a5U8r5fF7JrHa36vo1m1MqewiRk9vmiQNgoTJ3s/ZIqI7fjgNGveJ7y8nfs33vYu+CruAzxGN/rUltmMAkHj/qVn+tFIfvwCHAJcAvw2cU9E2FXYQM8FtA7YQMyTuIIKDHUXaPPT+luJvtxNdumPF54dtIa7zDu9jeNrlyT6zDJgz9Hoh+wZ9s3liwzv4zAixaM2S4m8WFa8PLp4PGvnB+wcVf7sMA8sqjRPzZvwtsY7Ahoq2WYYBgPvPev9ltS3/q4HfIHoFzqx425Km707g08AngB9WvG0DAPfv/hNqc/5PI3oFXgo8rcb9SNrX94B/AD5FvVOWGwC4f/efUFfyfyzwfGLt8l8D5je0XykHY8BNxOJBnyMCgCYYALh/959QF/O/HLgIeDFwYfFa0vRsBL5MNPhfIsaCNM0AwP27/4S6nv/ZwDOA84hFUS4k/QJLUhvtIAbxXVs8fpNYFCslAwD37/4T6nr+J1pALJhyfpGeRf9nIJQmsxv4FnBdkW6i/Op7VTMAcP/uP6Gu5//JLCbWJRgsnfpcurVssTRVW4kGf7DE9deIWzbbzADA/bv/hLqe/5k4iVha9Ryit+Bk7CVQt+wmbs+7cSjdnTRHM2MA4P7df0Jdz38V5hFzuJ85lM7ASWTUDo8DPyB+1Q/SzcRkTV1nAOD+3X9CXc9/XeYRq7edQaxZsAY4hZhGVqrLQ8Qv+7XALcRqemtJP1ivLgYA7t/9J9T1/DftIGK1t0FAMHg8lvy+C83cJvY29IPH24GfpcxUAgYA7t/9J9T1/LfFCBEYHA/8QpEGz5+K31NuxoEfE8vi/rBI9ww9jqbLWqsYALh/959Q1/PfBQvZGxQcQ6x3sJoIDI4mLivM2d+H1UpjRHf9/cA6orFfB9xHNPD3su8CSZqcAYD7d/8JdT3/fTCXCAKOKtKRxHK1hxbvH1akQ1JlMDMPA+uBnxZpPfBgkdYBDxCN/+5UGewRAwD37/4T6nr+czKPvUHB4cR8BiuBFUNpJTE18uD1SJKctscoMeXtcNpAXIMfPF9PXHt/qHje1wF3bWQA4P7df0Jdz78ObB5wMBEIHAwsAZYWabLXs9i7tsII0TuxiLiMMa/4O4rHeZPsby77DzpGmfxX8+PAo8XzR4vXO4mpa3ez93r5JuJ43Vy8t61I+3u9GRvztjMASLz/1Cx/WqmPX0n5Slr/zC65c0mS1EEGAJIkZcgAQJKkDBkASJKUIQMASZIyZAAgSVKGDAAkScpQHwKALi8qsbWCbeRefknSDPQhAFiXOgMlPFDBNnIvvyRpBvoQAFyTOgMlfKWCbeRefklSIuMlU1mnEvNll81H02k3cIrlTy718SspX52vf9pQgA9WkI+m0/srKrvlL6cNx6+kPHW+/mlDAeYD11aQl6bSNUy+kpjlb14bjl9Jeep8/dOWAswHPkC7u8N3E79862j8ci//TLXl+JWUn87XP20rwBrgCuB24ha51I3eaJGX99HMNe/cyz9dbTt+JeUjaf1TxVrmZTPheupKyeNXUipJ658+3AYoSZKmyQBAkqQMGQBIkpQhAwBJkjJkACBJUoYMACRJypABgCRJGaoiAHis5OdHKsiDJEmahioCgK0lP7+6gjxIkqRpqCIA2FTy88+vIA+SJGkaqggA7in5+dcAcyrIhyRJmqIqAoC7Sn7+VOB1FeRDkiQ16GWUX9FoF3B+0xmXcDVASel0vv5ZBeyhmiDgTXg5QM3q/AkoqbN6Uf/cQPmCDNIdwNuISwNLmyyEstSLE1BSJyWtf6pay/x1wIcq2pbUJcuBzakzoWTKVsJV1cHqnuXAxpLbKHX8VDUT4JXAaEXbkrrkOakzIKmTktcdVQUAm4G/qGhbUpe8E3/FSZqeWUTdkVSVawFcQflZAaWuOZcYvCpJU/UW4JzUmajaW6huMKDJ1JX0GHARylHZY0f5uQh4nGrqnlaZA9xI+grZZGo67QBeiHJT9rhRXi4m6oqq6p3WWQ08QvoK2WRqOu0G3o1yUvaYUT5eS3W//Ft9/FxEdIumrpBNphTpM8BhKAdljxX132FEnVBHXdNar6KaGQJNpi6mh4FLUN+VPU7Ub5cQdUFd9UyrvQp7Akx5p6uIy2Lqp7LHh/ppNXHu112/tN4LiNmOUlfEJlOqtAP4/4AVqG/KHhvqlxXAn1DtQL/OHz/HADeRviI2mVKmTcAfAItRX5Q9JtQPi4F/T5zjTdYpnTEHeDMxa2DqithkSpkeBN4FHIy6ruyxoG5bTpzLPyFNXdI5q4D/DmwhfUVsMqVMo8AHgONRV5U9BtRNxxPn7ihp65DOOgj4PeDrwBjpK2OTKVUaAz5LCxYH0bSV/b9XtzyHOFfb0maV0pZFTFYAzwXOBp5GRFeHACPAgnTZkhr3feDjwCeAdYnzoidXthJuSx2s/VtN3NF2GXBS4rxM5PEjlZA6gj9Qr8D1xOxhS2srvaTJLAReBlxN9bP3taYHQMpd6hN4Kmkr8DHgQmB+PV+DlL35xCy2HyPOudTnvQGAVLPUJ/B00zbiV8llxDgaSTO3GHgRcdmti3eoleL1A+Wuy1H0LmIQ7eeBTxO3Ikk6sJXEyp0XA78OLEmbnVJKteEGAMpdlwOAYXuAbwPXFekGYGfSHEntsBA4Fzi/SM8EZifNUXUMAKQS+hIATLQDuJkYSHgt8K/EYCap72YDzwAuAM4jbt0bSZqj+hgASCWUDQDWAmuqyEjNNgJfJQKBm4BbMCBQP8wDfhE4i7id/Ll0Y92NKuoO23CphLKDcOYSt+qtr2BbTabHiEsG7ycGFB5b9ouUGvIUYuDee4BrgO2kP5+mkzYC7ybuOkg6CFDKXVUn4Argg7T7nuEnS/cDVwKXA+fQ325TdccIcSy+lTg27yf9eTLT9DgxffBw70TSAMDuA+Wu7Ek08Rw6FfhjYnRx140D9wK3ArcDtxXP78VfH6rWLOA44HTg6cBpxfPj6H47NQ58gfjVf+ck/1aGYwCkEuo6Ac8A/hB4Cf0ZcTwwCtzB3oDgDmIK4/UpM6XOOJSYUvdU9jb4p9K/Hqc9xLoBfwR8dz9/YwAgJVT3CbiGiPxfTowX6LOdRO/A2uLx3qHXDyXMl5q3nPj1PpzWEA193yew2gN8EfiP7L/hHzAAkBJq6gQ8AXg78Ar690tnKjYA9wB3F4/3Aw8W6QFihkN1xxLgKODIIh1NLOJ2YvG4Ml3WkhkFPglcQRzjU2EAICXU9Ak4QvQGvIHo/lTYScxkeC/RWzDx+eBR9VtEjLQ/ong8bpLnh2P7MXAX8L+BvwQ2TfOzBgBSQilPwDOJWwhfRVS6OrBdxC1UmyZJgyBhsvdztojojh9Og8Z94vvLiV/zfe+ir8Iu4HNEo39tie0YAEgJJT0BC4cAlwC/Tdzy5HlZnR3Eym7bgC3EPeM7iOBgR5E2D72/pfjb7USX7ljx+WFbiOu8w/sYnnZ5ss8sA+YMvV7IvkHfbJ7Y8A4+M0IsWrOk+JtFxeuDi+eDRn7w/kHF3y7DwLJK48QU238LXEVc1qpim2UYAEgltCEAGLYa+A2iV+DMirctafruJBbb+gTww4q3bQAgJdS2AGDYaUSvwEuBp9W4H0n7+h7wD8CniDkw6mIAICXU5gBg2LHA84kpUH+NmEZUUjXGiDUyriau7X+vof0aAEgJdSUAGLYcuAh4MXBh8VrS9GwEvkw0+F8ixoI0zQBASqiLAcCwwdKn5xFrnl9IDP6StK8dxCC+a4vHb5J+RUwDACmhrgcAEy0AzgbOL9Kz6P8MhNJkdgPfAq4r0k3E7XttYgAgJdS3AGCixcS6BGcSPQTPBValzJBUk61Eg38D8B3ga8Qtm21mACAl1PcAYDInAWcRcw6cDZyMvQTqlt3E7Xk3DqW7k+ZoZgwApIRyDAAmmkfM4X7mUDoDJ5FROzwO/ID4VT9INxOTNXWdAYCUkAHA5OYRq7edQaxZsAY4hZhGVqrLQ8Qv+7XALcRqemtJP1ivLgYAUkIGANNzELHa2yAgGDweS37fhWZuE3sb+sHj7cDPUmYqAQMAKSEDgGqMEIHB8cAvFGnw/Kn4PeVmHPgxsSzuD4t0z9DjaLqstYoBgJSQAUD9FrI3KDiGWO9gNREYHE1cVpizvw+rlcaI7vr7gXVEY78OuI9o4O9l3wWSNDkDACkhA4D05hJBwFFFOpJYrvbQ4v3DinRIqgxm5mFgPfDTIq0HHizSOuABovHfnSqDPWIAICVkANAd89gbFBxOzGewElgxlFYSUyMPXo8kyWl7jBJT3g6nDcQ1+MHz9cS194eK530dcNdGBgBSQgYA/TYPOJgIBA4GlgBLizTZ61nsXVthhOidWERcxphX/B3F47xJ9jeX/Qcdo0z+q/lx4NHi+aPF653E1LW72Xu9fBNxvG4u3ttWpP293oyNedsZAEgJGQBISiVp/TO75M4lSVIHGQBIkpQhAwBJkjJkACBJUoYMACRJypABgCRJGTIAkCQpQwYAkiRlyABAkqQMGQBIkpQhAwBJkjJkACBJUoYMACRJypABgCRJGTIAkCQpQwYAkiRlyABAkqQMGQBIkpQhAwBJkjJkACBJUoYMACRJypABgCRJGTIAkCQpQ3NTZ0CSOmy85OdnVZILaQbsAZAkKUMGAJIkZcgAQJKkDBkASJKUIQMASZIyZAAgSVKGDAAkScqQAYByt6Pk5w+uJBeScrO85Oe3lc2AAYBy90jJzz+nklxIyk3ZumNDJbmQMvZdYja3mabrcTa3nJU5dsrOIqjumgXcQLlj5ztlM2EPgHK3tuTnzwXeVEVGJGXjLcA5JbdRtu6Ssvd6yv+Kewy4qOmMqxXsAdB0XQQ8Tvlj5/ebzrjUN6dR/kQcJwYTvrDhvCs9AwBNx8VEXVFFnbOm4bxLvXQL1ZyQu4F3N5x3pWUAoKl6LdX88h8Hbm0471JvXU41J+UgfR44otESKBUDAD2ZQ4G/p9o65o2NlkDqsRXAFqo9QR8GLmmyEJJa5xKiLqiybtmM849IlfoDqj1JB+kqYHWD5ZCU3mri3K+jTnlng+WQsrAQ+BH1nLC7gI8QXYGS+msF8F5gO/XUJfcCCxorjZSRFwB7qOfEHQc2ET0Ni5sqkKRGLAb+PXGO11V/jAEXNlUgKUfvo74TeJAeBN6F1/GkrltOnMs/of56448bKpOUrfnATdR/Mo8Do8AHgOMbKZmkqhxPnLujNFNXfAOY10jJpMytAr5PMyf2oGvvs7iwkNR2zyHO1TGaqx++BxzSROEkhdXAAzR3kg/SXcB7gGNrL6GkqTiSmCvkVpqvD34MHF1/ESVN9DTgfpo/6Qe9AtcAr8RBg1LTlgCvIs7BJn/tD6cfASfWXVBJ+/dU4A7SVACDtBX4GDECeH69xZWyNZ9YqOdjxDmX8py/DWcTlVphBfBV0lYIg7QZ+BQxw9hInYWWMjBCnEufIs6t1Of3OHAdcXeBpJaYQ1ybT9UdOFnaSXRRXo6/FqSpWglcRszU9yjpz+NB2gO8H0f7S631Uuqd7GOmaQz4JvDfgfOJmQ0lxblwPnFufJN2BfGDtBF4cV1fgKTqHE7cCpS60jhQ2g5cT0xLegH+qlA+ZgNnEktzX0366/lPlr5IjDWS1CGvpp29AZOlDcDfAW8GnoUBgfpjHnFMv5lYdncD6c+3qaSNxJ0GkjpqJXHdbjfpK5TppMeAbxd5vwznHVB3PAV4ETEm5xrqW3inrjQGfBw4rOLvRVIizwRuIH3lUibdD1xJDCo8B+8yUHojxLH4VuLYTDUvR1Xp68AZlX5DJcxKnQGpR2YBv0n8MlmTNiuVGCeWH70VuJ24N/nW4r3xhPlS/8wCjgNOB54OnFY8P45+tFN3AP+JvWOHWqEPX6zUNrOBlxMn/AmJ81KHUaJCGwQEdxBrJ6xPmSl1xqHAScCp7G3wT6WfPU7fB/4z8P8Tt/m1igGAVJ+5xCQj/y/wjMR5acIW4AfAPcXj3cXjD4gBT8rHCiL4PYGYzvYEYgW9E4CDEuarKTcDfwJ8mrjm30oGAFIzLiACgV8jz/NuAxEY3F083g88WKQHgG3psqYZWAIcRSyUcySxYM3xRGN/PDE4NjfjwJeJhv+fE+dlSnKsiKSUTgR+B3gNeVaS+7MT+AkxvuChSZ4PHlW/RcRI+yOKx+MmeX44th8DW4gu/g8SY2U6w/9AKY3FwKXA7wO/lDgvXbGT6EnYADwCPFw8bhh63ECMRRi8tz1JTttjMbGW/Eri2vvKodeD56smvOcsklNzE/ARovHfkTgvM2IAIKV3CnEv/itwRrCq7SBmgttG/FLbXry3qXjcQSwCM3h/S/G324nBjmPF54dtYd8BXTuI4GRgss8sI9aTGFhI/NIemM0Tr40PPjNCNORLir9ZVLw+uHi+iFg8ZvD+QcXfLpuwD5W3Dvgk8Ange4nzUpoBgNQes4FfBV4JvISo4CWltQn4R6LR/xdaOJp/pgwApHaaA5wNvIy4VHBo2uxIWdkEfJ4Yxf9lYubM3jEAkNpvHvA8YvrTF+K0vVIdfkQ0+lcTv/QfT5qbBhgASN2zBriYCAbOwoV9pJl4HLgR+EKR1qbNTvMMAKRuW0zMlX4ecC7wHAwIpMmMAbcQa3ZcD3yFGNCZLQMAqV+WEr0CFxTpGcTgQilH9wLXDqVNabPTLgYAUr+tBH6FGENwNjHv+vykOZLq8RixNsWNwFeBr+EU1AdkACDlZS6xEMuZRToX+EX2vUddarsxYqGd70xInZyQJxUDAElLiSDgzKF0MtYPao+H2Lehvx6780vzBJc0mRXE5YKTiaVaB4+rUmZKvbeeWF76e0OPt2NXfi0MACRNx3JiQZg1xBTGg8fjUmZKnbMJuJO49W7wuJb4pa+GGABIqsJKopfgOGKiouHHI7Cuyc04e1d0vJeYZGfw/C5isSYl5kkpqW4LiGBgYmBwLHAMrnnQVZuB+9jbuA8//gjYlSxnmhIDAEmpLSTGHAyvQT/Z42E4p0ETdhK/3h86wOOPyXwSnT4wAJDUFQuAw4EjifXrVxBjEoYfJ3ueaz03Tlxr31ikAz1/BHgQ+Cn+cs9GrieGpHwMAoHlxOWGBcQUysuISZGWFa8XDP37EuL2yPnsvUQxiyderpgLjEx4b7D9Ydt5YsM6Cuye8N5mouEePH8MeLRIjxXv7STud99avLd1aPub2du4e5ucJEmSJEmSJEmSJEmSJEmSJEmSJEmSJEmSJEmSJEmSJEmSJEmSJEmSJEmSJEmSJEnSNP1fW0e6oKKx8h0AAAAASUVORK5CYII=;" vertex="1" parent="1">
          <mxGeometry x="320" y="770" width="120" height="120" as="geometry" />
        </mxCell>
        <mxCell id="xoJ8Gb0aEFxm84YsZ9i9-2" value="" style="endArrow=classic;html=1;rounded=0;" edge="1" parent="1">
          <mxGeometry width="50" height="50" relative="1" as="geometry">
            <mxPoint x="270" y="670" as="sourcePoint" />
            <mxPoint x="310" y="750" as="targetPoint" />
          </mxGeometry>
        </mxCell>
        <mxCell id="xoJ8Gb0aEFxm84YsZ9i9-3" value="" style="endArrow=classic;html=1;rounded=0;" edge="1" parent="1">
          <mxGeometry width="50" height="50" relative="1" as="geometry">
            <mxPoint x="490" y="670" as="sourcePoint" />
            <mxPoint x="450" y="750" as="targetPoint" />
          </mxGeometry>
        </mxCell>
        <mxCell id="xoJ8Gb0aEFxm84YsZ9i9-4" value="" style="endArrow=classic;html=1;rounded=0;" edge="1" parent="1">
          <mxGeometry width="50" height="50" relative="1" as="geometry">
            <mxPoint x="290" y="810" as="sourcePoint" />
            <mxPoint x="230" y="680" as="targetPoint" />
          </mxGeometry>
        </mxCell>
        <mxCell id="xoJ8Gb0aEFxm84YsZ9i9-5" value="" style="endArrow=classic;html=1;rounded=0;" edge="1" parent="1">
          <mxGeometry width="50" height="50" relative="1" as="geometry">
            <mxPoint x="470" y="810" as="sourcePoint" />
            <mxPoint x="530" y="680" as="targetPoint" />
          </mxGeometry>
        </mxCell>
      </root>
    </mxGraphModel>
  </diagram>
</mxfile>
